<svg width="85" height="85" viewBox="0 0 85 85" fill="none" xmlns="http://www.w3.org/2000/svg">
<path d="M11.2634 7.55229C10.5159 11.7134 9.86803 15.2696 9.8182 15.4345C9.73514 15.7462 11.1969 15.7645 38.8212 15.7645C66.4454 15.7645 67.9072 15.7828 67.8241 16.0761C67.7743 16.2594 67.4421 18.1842 67.06 20.3472C66.678 22.5102 66.2959 24.6733 66.1962 25.1499L66.0301 26.0298L36.9441 26.0664L7.85809 26.1214L6.49598 33.8204C5.73187 38.0548 5.11726 41.5743 5.11726 41.6476C5.10065 41.7393 18.1736 41.7943 34.1534 41.7943H63.1896L61.6448 50.3548C60.781 55.0841 60.0501 59.1169 60.0003 59.3369C59.9173 59.7035 58.605 60.2167 48.3393 63.9746C41.9773 66.2842 36.6783 68.1906 36.5621 68.1906C36.3793 68.1906 16.3962 59.8318 16.2965 59.7035C16.2799 59.6851 16.5457 58.072 16.9111 56.1106C17.26 54.1492 17.559 52.3895 17.559 52.2062C17.559 51.8945 17.2434 51.8762 10.466 51.9129L3.3731 51.9679L1.66215 61.3899C0.731932 66.5775 -0.0321782 70.8303 0.00104397 70.8486C0.0176551 70.8669 7.5757 74.0565 16.7949 77.9426L33.5555 85L52.7579 77.9426C63.3225 74.0748 72.0267 70.8303 72.0932 70.757C72.1928 70.647 84.9668 0.641579 85 0.0366592C85 0.0183258 68.7211 0 48.8044 0H12.6255L11.2634 7.55229Z" fill="white"/>
</svg>
