<svg width="100" height="89" viewBox="0 0 100 89" fill="none" xmlns="http://www.w3.org/2000/svg">
<path d="M49.914 53.4294C54.8455 53.4294 58.8434 49.4316 58.8434 44.5C58.8434 39.5684 54.8455 35.5706 49.914 35.5706C44.9824 35.5706 40.9845 39.5684 40.9845 44.5C40.9845 49.4316 44.9824 53.4294 49.914 53.4294Z" fill="white"/>
<path d="M49.914 53.4294C54.8455 53.4294 58.8434 49.4316 58.8434 44.5C58.8434 39.5684 54.8455 35.5706 49.914 35.5706C44.9824 35.5706 40.9845 39.5684 40.9845 44.5C40.9845 49.4316 44.9824 53.4294 49.914 53.4294Z" stroke="white" stroke-width="4"/>
<path d="M49.914 62.7944C76.3761 62.7944 97.8279 54.6037 97.8279 44.5C97.8279 34.3963 76.3761 26.2056 49.914 26.2056C23.4518 26.2056 2 34.3963 2 44.5C2 54.6037 23.4518 62.7944 49.914 62.7944Z" stroke="white" stroke-width="4"/>
<path d="M34.0705 53.6472C47.3016 76.5641 65.1209 91.0466 73.8709 85.9947C82.621 80.9428 78.9885 58.2697 65.7574 35.3528C52.5263 12.4359 34.7071 -2.04657 25.957 3.00529C17.2069 8.05716 20.8395 30.7303 34.0705 53.6472Z" stroke="white" stroke-width="4"/>
<path d="M34.0705 35.3528C20.8395 58.2697 17.2069 80.9428 25.957 85.9947C34.7071 91.0466 52.5263 76.5641 65.7574 53.6472C78.9885 30.7303 82.621 8.05716 73.8709 3.00529C65.1209 -2.04657 47.3016 12.4359 34.0705 35.3528Z" stroke="white" stroke-width="4"/>
</svg>
