<svg width="272" height="40" viewBox="0 0 272 40" fill="none" xmlns="http://www.w3.org/2000/svg">
<path d="M1.46042 0.265738L1.97914 0.0126537L14.9031 0V40H2.24289L1.71538 39.7975C1.056 39.5444 0.379027 38.9033 0.15044 38.3043C0.00977156 37.9163 0.000979821 36.8449 0.000980595 19.9557C0.000981512 -0.0210904 -0.0517697 1.60709 0.616408 0.881577C0.801036 0.679109 1.17909 0.400716 1.46042 0.265738Z" fill="white"/>
<rect width="229" height="40" transform="translate(14.9031)" fill="white"/>
<path d="M30.4294 17.1016C30.3669 16.4714 30.0987 15.9818 29.6248 15.6328C29.1508 15.2839 28.5076 15.1094 27.6951 15.1094C27.143 15.1094 26.6768 15.1875 26.2966 15.3437C25.9164 15.4948 25.6248 15.7057 25.4216 15.9766C25.2237 16.2474 25.1248 16.5547 25.1248 16.8984C25.1143 17.1849 25.1742 17.4349 25.3044 17.6484C25.4399 17.862 25.6248 18.0469 25.8591 18.2031C26.0935 18.3542 26.3643 18.487 26.6716 18.6016C26.9789 18.7109 27.307 18.8047 27.656 18.8828L29.0935 19.2266C29.7914 19.3828 30.432 19.5911 31.0154 19.8516C31.5987 20.112 32.1039 20.4323 32.531 20.8125C32.9581 21.1927 33.2888 21.6406 33.5232 22.1562C33.7628 22.6719 33.8852 23.263 33.8904 23.9297C33.8852 24.9089 33.6352 25.7578 33.1404 26.4766C32.6508 27.1901 31.9425 27.7448 31.0154 28.1406C30.0935 28.5312 28.9815 28.7266 27.6794 28.7266C26.3878 28.7266 25.2628 28.5286 24.3044 28.1328C23.3513 27.737 22.6065 27.151 22.0701 26.375C21.5388 25.5937 21.2602 24.6276 21.2341 23.4766H24.5076C24.544 24.013 24.6977 24.4609 24.9685 24.8203C25.2445 25.1745 25.6117 25.4427 26.0701 25.625C26.5336 25.8021 27.057 25.8906 27.6404 25.8906C28.2133 25.8906 28.7107 25.8073 29.1326 25.6406C29.5597 25.474 29.8904 25.2422 30.1248 24.9453C30.3591 24.6484 30.4763 24.3073 30.4763 23.9219C30.4763 23.5625 30.3695 23.2604 30.156 23.0156C29.9477 22.7708 29.6404 22.5625 29.2341 22.3906C28.8331 22.2187 28.3409 22.0625 27.7576 21.9219L26.0154 21.4844C24.6664 21.1562 23.6013 20.6432 22.8201 19.9453C22.0388 19.2474 21.6508 18.3073 21.656 17.125C21.6508 16.1562 21.9086 15.3099 22.4294 14.5859C22.9555 13.862 23.6768 13.2969 24.5935 12.8906C25.5102 12.4844 26.5518 12.2812 27.7185 12.2812C28.906 12.2812 29.9425 12.4844 30.8279 12.8906C31.7185 13.2969 32.4112 13.862 32.906 14.5859C33.4008 15.3099 33.656 16.1484 33.6716 17.1016H30.4294ZM42.4861 16.5V19H35.2595V16.5H42.4861ZM36.9001 13.625H40.2283V24.8125C40.2283 25.1198 40.2751 25.3594 40.3689 25.5312C40.4626 25.6979 40.5929 25.8151 40.7595 25.8828C40.9314 25.9505 41.1293 25.9844 41.3533 25.9844C41.5095 25.9844 41.6658 25.9714 41.822 25.9453C41.9783 25.9141 42.0981 25.8906 42.1814 25.875L42.7048 28.3516C42.5382 28.4036 42.3038 28.4635 42.0017 28.5313C41.6996 28.6042 41.3324 28.6484 40.9001 28.6641C40.0981 28.6953 39.3949 28.5885 38.7908 28.3437C38.1918 28.099 37.7257 27.7187 37.3923 27.2031C37.059 26.6875 36.8949 26.0365 36.9001 25.25V13.625ZM46.7087 33C46.2869 33 45.891 32.9661 45.5212 32.8984C45.1567 32.8359 44.8546 32.7552 44.615 32.6562L45.365 30.1719C45.7556 30.2917 46.1072 30.3568 46.4197 30.3672C46.7374 30.3776 47.0108 30.3047 47.24 30.1484C47.4744 29.9922 47.6645 29.7266 47.8103 29.3516L48.0056 28.8438L43.7009 16.5H47.2009L49.6853 25.3125H49.8103L52.3181 16.5H55.8416L51.1775 29.7969C50.9535 30.4427 50.6488 31.0052 50.2634 31.4844C49.8832 31.9688 49.4014 32.3411 48.8181 32.6016C48.2348 32.8672 47.5317 33 46.7087 33ZM60.8728 12.5V28.5H57.5447V12.5H60.8728ZM69.0076 28.7344C67.7732 28.7344 66.7107 28.4844 65.8201 27.9844C64.9347 27.4792 64.2524 26.7656 63.7732 25.8437C63.294 24.9167 63.0544 23.8203 63.0544 22.5547C63.0544 21.3203 63.294 20.237 63.7732 19.3047C64.2524 18.3724 64.9268 17.6458 65.7966 17.125C66.6716 16.6042 67.6977 16.3438 68.8748 16.3438C69.6664 16.3438 70.4034 16.4714 71.0857 16.7266C71.7732 16.9766 72.3722 17.3542 72.8826 17.8594C73.3982 18.3646 73.7992 19 74.0857 19.7656C74.3722 20.526 74.5154 21.4167 74.5154 22.4375V23.3516H64.3826V21.2891H71.3826C71.3826 20.8099 71.2784 20.3854 71.0701 20.0156C70.8617 19.6458 70.5727 19.3568 70.2029 19.1484C69.8383 18.9349 69.4138 18.8281 68.9294 18.8281C68.4242 18.8281 67.9763 18.9453 67.5857 19.1797C67.2003 19.4089 66.8982 19.7187 66.6794 20.1094C66.4607 20.4948 66.3487 20.9245 66.3435 21.3984V23.3594C66.3435 23.9531 66.4529 24.4661 66.6716 24.8984C66.8956 25.3307 67.2107 25.6641 67.6169 25.8984C68.0232 26.1328 68.505 26.25 69.0623 26.25C69.432 26.25 69.7706 26.1979 70.0779 26.0938C70.3852 25.9896 70.6482 25.8333 70.8669 25.625C71.0857 25.4167 71.2524 25.1615 71.3669 24.8594L74.4451 25.0625C74.2888 25.8021 73.9685 26.4479 73.4841 27C73.005 27.5469 72.3852 27.974 71.6248 28.2813C70.8695 28.5833 69.9972 28.7344 69.0076 28.7344ZM81.1091 28.6953C80.1977 28.6953 79.3722 28.4609 78.6326 27.9922C77.8982 27.5182 77.3149 26.8229 76.8826 25.9062C76.4555 24.9844 76.2419 23.8542 76.2419 22.5156C76.2419 21.1406 76.4633 19.9974 76.906 19.0859C77.3487 18.1693 77.9373 17.4844 78.6716 17.0313C79.4112 16.5729 80.2211 16.3438 81.1013 16.3438C81.7732 16.3438 82.3331 16.4583 82.781 16.6875C83.2341 16.9115 83.5987 17.1927 83.8748 17.5312C84.156 17.8646 84.3695 18.1927 84.5154 18.5156H84.6169V12.5H87.9373V28.5H84.656V26.5781H84.5154C84.3591 26.9115 84.1378 27.2422 83.8513 27.5703C83.5701 27.8932 83.2029 28.1615 82.7498 28.375C82.3018 28.5885 81.755 28.6953 81.1091 28.6953ZM82.1638 26.0469C82.7003 26.0469 83.1534 25.901 83.5232 25.6094C83.8982 25.3125 84.1847 24.8984 84.3826 24.3672C84.5857 23.8359 84.6873 23.2135 84.6873 22.5C84.6873 21.7865 84.5883 21.1667 84.3904 20.6406C84.1925 20.1146 83.906 19.7083 83.531 19.4219C83.156 19.1354 82.7003 18.9922 82.1638 18.9922C81.6169 18.9922 81.156 19.1406 80.781 19.4375C80.406 19.7344 80.1222 20.1458 79.9294 20.6719C79.7367 21.1979 79.6404 21.8073 79.6404 22.5C79.6404 23.1979 79.7367 23.8151 79.9294 24.3516C80.1274 24.8828 80.4112 25.2995 80.781 25.6016C81.156 25.8984 81.6169 26.0469 82.1638 26.0469ZM98.1501 20.6094V23.25H90.8533V20.6094H98.1501ZM115.166 18.1016H111.744C111.681 17.6589 111.554 17.2656 111.361 16.9219C111.168 16.5729 110.921 16.276 110.619 16.0312C110.317 15.7865 109.968 15.599 109.572 15.4687C109.181 15.3385 108.757 15.2734 108.299 15.2734C107.47 15.2734 106.749 15.4792 106.135 15.8906C105.52 16.2969 105.043 16.8906 104.705 17.6719C104.366 18.4479 104.197 19.3906 104.197 20.5C104.197 21.6406 104.366 22.599 104.705 23.375C105.049 24.151 105.528 24.737 106.142 25.1328C106.757 25.5286 107.468 25.7266 108.275 25.7266C108.728 25.7266 109.148 25.6667 109.533 25.5469C109.924 25.4271 110.27 25.2526 110.572 25.0234C110.874 24.7891 111.124 24.5052 111.322 24.1719C111.525 23.8385 111.666 23.4583 111.744 23.0312L115.166 23.0469C115.077 23.7812 114.856 24.4896 114.502 25.1719C114.153 25.849 113.681 26.4557 113.088 26.9922C112.499 27.5234 111.796 27.9453 110.978 28.2578C110.166 28.5651 109.247 28.7187 108.22 28.7187C106.793 28.7187 105.517 28.3958 104.392 27.75C103.273 27.1042 102.387 26.1693 101.736 24.9453C101.09 23.7214 100.767 22.2396 100.767 20.5C100.767 18.7552 101.095 17.2708 101.752 16.0469C102.408 14.8229 103.299 13.8906 104.424 13.25C105.549 12.6042 106.814 12.2812 108.22 12.2812C109.148 12.2812 110.007 12.4115 110.799 12.6719C111.595 12.9323 112.301 13.3125 112.916 13.8125C113.53 14.3073 114.03 14.9141 114.416 15.6328C114.806 16.3516 115.056 17.1745 115.166 18.1016ZM122.951 28.7344C121.737 28.7344 120.688 28.4766 119.802 27.9609C118.922 27.4401 118.243 26.7161 117.763 25.7891C117.284 24.8568 117.045 23.776 117.045 22.5469C117.045 21.3073 117.284 20.224 117.763 19.2969C118.243 18.3646 118.922 17.6406 119.802 17.125C120.688 16.6042 121.737 16.3438 122.951 16.3438C124.164 16.3438 125.211 16.6042 126.092 17.125C126.977 17.6406 127.659 18.3646 128.138 19.2969C128.618 20.224 128.857 21.3073 128.857 22.5469C128.857 23.776 128.618 24.8568 128.138 25.7891C127.659 26.7161 126.977 27.4401 126.092 27.9609C125.211 28.4766 124.164 28.7344 122.951 28.7344ZM122.967 26.1562C123.519 26.1562 123.98 26 124.349 25.6875C124.719 25.3698 124.998 24.9375 125.185 24.3906C125.378 23.8437 125.474 23.2214 125.474 22.5234C125.474 21.8255 125.378 21.2031 125.185 20.6562C124.998 20.1094 124.719 19.6771 124.349 19.3594C123.98 19.0417 123.519 18.8828 122.967 18.8828C122.409 18.8828 121.941 19.0417 121.56 19.3594C121.185 19.6771 120.901 20.1094 120.709 20.6562C120.521 21.2031 120.427 21.8255 120.427 22.5234C120.427 23.2214 120.521 23.8437 120.709 24.3906C120.901 24.9375 121.185 25.3698 121.56 25.6875C121.941 26 122.409 26.1562 122.967 26.1562ZM131.021 28.5V16.5H134.193V18.6172H134.334C134.584 17.9141 135 17.3594 135.584 16.9531C136.167 16.5469 136.865 16.3438 137.677 16.3438C138.5 16.3438 139.201 16.5495 139.779 16.9609C140.357 17.3672 140.743 17.9193 140.935 18.6172H141.06C141.305 17.9297 141.748 17.3802 142.388 16.9687C143.034 16.5521 143.797 16.3438 144.677 16.3438C145.797 16.3438 146.706 16.7005 147.404 17.4141C148.107 18.1224 148.459 19.1276 148.459 20.4297V28.5H145.138V21.0859C145.138 20.4193 144.961 19.9193 144.607 19.5859C144.253 19.2526 143.81 19.0859 143.279 19.0859C142.675 19.0859 142.204 19.2786 141.865 19.6641C141.526 20.0443 141.357 20.5469 141.357 21.1719V28.5H138.131V21.0156C138.131 20.4271 137.961 19.9583 137.623 19.6094C137.289 19.2604 136.849 19.0859 136.302 19.0859C135.933 19.0859 135.599 19.1797 135.302 19.3672C135.011 19.5495 134.779 19.8073 134.607 20.1406C134.435 20.4687 134.349 20.8542 134.349 21.2969V28.5H131.021ZM151.088 33V16.5H154.369V18.5156H154.517C154.663 18.1927 154.874 17.8646 155.15 17.5312C155.431 17.1927 155.796 16.9115 156.244 16.6875C156.697 16.4583 157.26 16.3438 157.931 16.3438C158.806 16.3438 159.614 16.5729 160.353 17.0313C161.093 17.4844 161.684 18.1693 162.127 19.0859C162.569 19.9974 162.791 21.1406 162.791 22.5156C162.791 23.8542 162.575 24.9844 162.142 25.9062C161.715 26.8229 161.132 27.5182 160.392 27.9922C159.658 28.4609 158.835 28.6953 157.924 28.6953C157.278 28.6953 156.728 28.5885 156.275 28.375C155.827 28.1615 155.46 27.8932 155.174 27.5703C154.887 27.2422 154.668 26.9115 154.517 26.5781H154.416V33H151.088ZM154.345 22.5C154.345 23.2135 154.444 23.8359 154.642 24.3672C154.84 24.8984 155.127 25.3125 155.502 25.6094C155.877 25.901 156.332 26.0469 156.869 26.0469C157.411 26.0469 157.869 25.8984 158.244 25.6016C158.619 25.2995 158.903 24.8828 159.095 24.3516C159.293 23.8151 159.392 23.1979 159.392 22.5C159.392 21.8073 159.296 21.1979 159.103 20.6719C158.911 20.1458 158.627 19.7344 158.252 19.4375C157.877 19.1406 157.416 18.9922 156.869 18.9922C156.327 18.9922 155.869 19.1354 155.494 19.4219C155.124 19.7083 154.84 20.1146 154.642 20.6406C154.444 21.1667 154.345 21.7865 154.345 22.5ZM170.431 28.7344C169.218 28.7344 168.168 28.4766 167.283 27.9609C166.403 27.4401 165.723 26.7161 165.244 25.7891C164.765 24.8568 164.525 23.776 164.525 22.5469C164.525 21.3073 164.765 20.224 165.244 19.2969C165.723 18.3646 166.403 17.6406 167.283 17.125C168.168 16.6042 169.218 16.3438 170.431 16.3438C171.645 16.3438 172.692 16.6042 173.572 17.125C174.457 17.6406 175.14 18.3646 175.619 19.2969C176.098 20.224 176.338 21.3073 176.338 22.5469C176.338 23.776 176.098 24.8568 175.619 25.7891C175.14 26.7161 174.457 27.4401 173.572 27.9609C172.692 28.4766 171.645 28.7344 170.431 28.7344ZM170.447 26.1562C170.999 26.1562 171.46 26 171.83 25.6875C172.2 25.3698 172.478 24.9375 172.666 24.3906C172.858 23.8437 172.955 23.2214 172.955 22.5234C172.955 21.8255 172.858 21.2031 172.666 20.6562C172.478 20.1094 172.2 19.6771 171.83 19.3594C171.46 19.0417 170.999 18.8828 170.447 18.8828C169.89 18.8828 169.421 19.0417 169.041 19.3594C168.666 19.6771 168.382 20.1094 168.189 20.6562C168.002 21.2031 167.908 21.8255 167.908 22.5234C167.908 23.2214 168.002 23.8437 168.189 24.3906C168.382 24.9375 168.666 25.3698 169.041 25.6875C169.421 26 169.89 26.1562 170.447 26.1562ZM181.83 21.5625V28.5H178.502V16.5H181.674V18.6172H181.814C182.08 17.9193 182.525 17.3672 183.15 16.9609C183.775 16.5495 184.533 16.3438 185.424 16.3438C186.257 16.3438 186.983 16.526 187.603 16.8906C188.223 17.2552 188.705 17.776 189.049 18.4531C189.392 19.125 189.564 19.9271 189.564 20.8594V28.5H186.236V21.4531C186.241 20.7187 186.054 20.1458 185.674 19.7344C185.293 19.3177 184.77 19.1094 184.103 19.1094C183.655 19.1094 183.26 19.2057 182.916 19.3984C182.577 19.5911 182.312 19.8724 182.119 20.2422C181.931 20.6068 181.835 21.0469 181.83 21.5625ZM197.656 28.7344C196.422 28.7344 195.359 28.4844 194.469 27.9844C193.583 27.4792 192.901 26.7656 192.422 25.8437C191.942 24.9167 191.703 23.8203 191.703 22.5547C191.703 21.3203 191.942 20.237 192.422 19.3047C192.901 18.3724 193.575 17.6458 194.445 17.125C195.32 16.6042 196.346 16.3438 197.523 16.3438C198.315 16.3438 199.052 16.4714 199.734 16.7266C200.422 16.9766 201.021 17.3542 201.531 17.8594C202.047 18.3646 202.448 19 202.734 19.7656C203.021 20.526 203.164 21.4167 203.164 22.4375V23.3516H193.031V21.2891H200.031C200.031 20.8099 199.927 20.3854 199.719 20.0156C199.51 19.6458 199.221 19.3568 198.851 19.1484C198.487 18.9349 198.062 18.8281 197.578 18.8281C197.073 18.8281 196.625 18.9453 196.234 19.1797C195.849 19.4089 195.547 19.7187 195.328 20.1094C195.109 20.4948 194.997 20.9245 194.992 21.3984V23.3594C194.992 23.9531 195.101 24.4661 195.32 24.8984C195.544 25.3307 195.859 25.6641 196.265 25.8984C196.672 26.1328 197.153 26.25 197.711 26.25C198.08 26.25 198.419 26.1979 198.726 26.0938C199.034 25.9896 199.297 25.8333 199.515 25.625C199.734 25.4167 199.901 25.1615 200.015 24.8594L203.094 25.0625C202.937 25.8021 202.617 26.4479 202.133 27C201.653 27.5469 201.034 27.974 200.273 28.2813C199.518 28.5833 198.646 28.7344 197.656 28.7344ZM208.664 21.5625V28.5H205.336V16.5H208.508V18.6172H208.648C208.914 17.9193 209.359 17.3672 209.984 16.9609C210.609 16.5495 211.367 16.3438 212.258 16.3438C213.091 16.3438 213.817 16.526 214.437 16.8906C215.057 17.2552 215.539 17.776 215.883 18.4531C216.226 19.125 216.398 19.9271 216.398 20.8594V28.5H213.07V21.4531C213.075 20.7187 212.888 20.1458 212.508 19.7344C212.127 19.3177 211.604 19.1094 210.937 19.1094C210.489 19.1094 210.094 19.2057 209.75 19.3984C209.411 19.5911 209.146 19.8724 208.953 20.2422C208.765 20.6068 208.669 21.0469 208.664 21.5625ZM225.404 16.5V19H218.177V16.5H225.404ZM219.818 13.625H223.146V24.8125C223.146 25.1198 223.193 25.3594 223.287 25.5312C223.381 25.6979 223.511 25.8151 223.677 25.8828C223.849 25.9505 224.047 25.9844 224.271 25.9844C224.427 25.9844 224.584 25.9714 224.74 25.9453C224.896 25.9141 225.016 25.8906 225.099 25.875L225.623 28.3516C225.456 28.4036 225.222 28.4635 224.92 28.5313C224.618 28.6042 224.25 28.6484 223.818 28.6641C223.016 28.6953 222.313 28.5885 221.709 28.3437C221.11 28.099 220.644 27.7187 220.31 27.2031C219.977 26.6875 219.813 26.0365 219.818 25.25V13.625ZM237.406 19.9219L234.359 20.1094C234.307 19.849 234.195 19.6146 234.023 19.4062C233.851 19.1927 233.625 19.0234 233.344 18.8984C233.067 18.7682 232.737 18.7031 232.351 18.7031C231.836 18.7031 231.401 18.8125 231.047 19.0312C230.692 19.2448 230.515 19.5312 230.515 19.8906C230.515 20.1771 230.63 20.4193 230.859 20.6172C231.088 20.8151 231.482 20.974 232.039 21.0937L234.211 21.5312C235.377 21.7708 236.247 22.1562 236.82 22.6875C237.393 23.2187 237.679 23.9167 237.679 24.7812C237.679 25.5677 237.448 26.2578 236.984 26.8516C236.526 27.4453 235.896 27.9089 235.094 28.2422C234.297 28.5703 233.377 28.7344 232.336 28.7344C230.747 28.7344 229.482 28.4036 228.539 27.7422C227.601 27.0755 227.052 26.1693 226.89 25.0234L230.164 24.8516C230.263 25.3359 230.502 25.7057 230.883 25.9609C231.263 26.2109 231.75 26.3359 232.344 26.3359C232.927 26.3359 233.396 26.224 233.75 26C234.109 25.7708 234.291 25.4766 234.297 25.1172C234.291 24.8151 234.164 24.5677 233.914 24.375C233.664 24.1771 233.278 24.026 232.758 23.9219L230.679 23.5078C229.508 23.2734 228.635 22.8672 228.062 22.2891C227.495 21.7109 227.211 20.974 227.211 20.0781C227.211 19.3073 227.419 18.6432 227.836 18.0859C228.258 17.5286 228.849 17.099 229.609 16.7969C230.375 16.4948 231.271 16.3438 232.297 16.3438C233.812 16.3438 235.005 16.6641 235.875 17.3047C236.75 17.9453 237.26 18.8177 237.406 19.9219Z" fill="black"/>
<path fill-rule="evenodd" clip-rule="evenodd" d="M271.795 10.3678C271.592 9.75223 270.959 9.25471 269.166 8.28496C268.511 7.93521 267.508 7.39377 266.601 6.90379C266.217 6.69675 265.851 6.49891 265.535 6.32859C264.948 6.00743 264.28 5.64517 263.707 5.33398C263.241 5.08137 262.838 4.86241 262.59 4.7264C262.036 4.43125 261.042 3.89157 260.392 3.52896C256.822 1.56417 254.273 0.214949 253.947 0.105325C253.732 0.0366424 251.962 0.00680769 243.903 0V40H253.666L254.079 39.8145C254.299 39.7217 255.741 38.9544 257.288 38.1195C257.819 37.8315 258.501 37.4631 259.243 37.0619C260.652 36.3003 262.281 35.4203 263.513 34.7465C270.555 30.9396 271.3 30.5547 271.595 29.9501C271.645 29.8489 271.681 29.7416 271.733 29.611C271.909 29.1641 271.909 28.987 271.9 19.9051C271.891 13.5638 271.865 10.5618 271.795 10.3678ZM259.53 23.0741C260.559 22.5871 261.201 21.8434 261.543 20.7367C262.185 18.656 260.752 16.4071 258.554 16.0441C255.969 15.628 253.719 18.231 254.492 20.7367C254.835 21.8434 255.477 22.5871 256.506 23.0741C257.051 23.3397 257.165 23.3574 258.018 23.3574C258.871 23.3574 258.985 23.3397 259.53 23.0741Z" fill="white"/>
</svg>
