<svg width="146" height="40" viewBox="0 0 146 40" fill="none" xmlns="http://www.w3.org/2000/svg">
<path d="M1.46042 0.265738L1.97914 0.0126537L14.9031 0V40H2.24289L1.71538 39.7975C1.056 39.5445 0.379027 38.9033 0.15044 38.3043C0.00977156 37.9163 0.000979821 36.8449 0.000980595 19.9557C0.000981512 -0.0210904 -0.0517697 1.60709 0.616408 0.881577C0.801036 0.679109 1.17909 0.400716 1.46042 0.265738Z" fill="white"/>
<rect width="103" height="40" transform="translate(14.9031)" fill="white"/>
<path d="M21.4412 28.5V12.5H32.0349V15.2891H24.824V19.1016H31.3318V21.8906H24.824V28.5H21.4412ZM34.2478 28.5V16.5H37.5759V28.5H34.2478ZM35.9197 14.9531C35.4249 14.9531 35.0004 14.7891 34.6462 14.4609C34.2973 14.1276 34.1228 13.7292 34.1228 13.2656C34.1228 12.8073 34.2973 12.4141 34.6462 12.0859C35.0004 11.7526 35.4249 11.5859 35.9197 11.5859C36.4145 11.5859 36.8363 11.7526 37.1853 12.0859C37.5395 12.4141 37.7166 12.8073 37.7166 13.2656C37.7166 13.7292 37.5395 14.1276 37.1853 14.4609C36.8363 14.7891 36.4145 14.9531 35.9197 14.9531ZM40.2419 28.5V16.5H43.4685V18.5937H43.5935C43.8123 17.849 44.1794 17.2865 44.6951 16.9063C45.2107 16.5208 45.8044 16.3281 46.4763 16.3281C46.643 16.3281 46.8227 16.3385 47.0154 16.3594C47.2081 16.3802 47.3774 16.4089 47.5232 16.4453V19.3984C47.3669 19.3516 47.1508 19.3099 46.8748 19.2734C46.5987 19.237 46.3461 19.2188 46.1169 19.2188C45.6274 19.2188 45.1899 19.3255 44.8044 19.5391C44.4242 19.7474 44.1222 20.0391 43.8982 20.4141C43.6794 20.7891 43.5701 21.2214 43.5701 21.7109V28.5H40.2419ZM54.1541 28.7344C52.9197 28.7344 51.8572 28.4844 50.9666 27.9844C50.0811 27.4792 49.3988 26.7656 48.9197 25.8437C48.4405 24.9167 48.2009 23.8203 48.2009 22.5547C48.2009 21.3203 48.4405 20.237 48.9197 19.3047C49.3988 18.3724 50.0733 17.6458 50.9431 17.125C51.8181 16.6042 52.8442 16.3438 54.0212 16.3438C54.8129 16.3438 55.5499 16.4714 56.2322 16.7266C56.9197 16.9766 57.5186 17.3542 58.0291 17.8594C58.5447 18.3646 58.9457 19 59.2322 19.7656C59.5186 20.526 59.6619 21.4167 59.6619 22.4375V23.3516H49.5291V21.2891H56.5291C56.5291 20.8099 56.4249 20.3854 56.2166 20.0156C56.0082 19.6458 55.7192 19.3568 55.3494 19.1484C54.9848 18.9349 54.5603 18.8281 54.0759 18.8281C53.5707 18.8281 53.1228 18.9453 52.7322 19.1797C52.3468 19.4089 52.0447 19.7187 51.8259 20.1094C51.6072 20.4948 51.4952 20.9245 51.49 21.3984V23.3594C51.49 23.9531 51.5994 24.4661 51.8181 24.8984C52.0421 25.3307 52.3572 25.6641 52.7634 25.8984C53.1697 26.1328 53.6514 26.25 54.2087 26.25C54.5785 26.25 54.9171 26.1979 55.2244 26.0938C55.5317 25.9896 55.7947 25.8333 56.0134 25.625C56.2322 25.4167 56.3988 25.1615 56.5134 24.8594L59.5916 25.0625C59.4353 25.8021 59.115 26.4479 58.6306 27C58.1514 27.5469 57.5317 27.974 56.7712 28.2813C56.016 28.5833 55.1436 28.7344 54.1541 28.7344ZM61.8962 28.5V12.5H65.2244V18.5156H65.3259C65.4718 18.1927 65.6827 17.8646 65.9587 17.5312C66.24 17.1927 66.6046 16.9115 67.0525 16.6875C67.5056 16.4583 68.0681 16.3438 68.74 16.3438C69.615 16.3438 70.4223 16.5729 71.1619 17.0313C71.9014 17.4844 72.4926 18.1693 72.9353 19.0859C73.378 19.9974 73.5994 21.1406 73.5994 22.5156C73.5994 23.8542 73.3832 24.9844 72.9509 25.9062C72.5238 26.8229 71.9405 27.5182 71.2009 27.9922C70.4666 28.4609 69.6436 28.6953 68.7322 28.6953C68.0863 28.6953 67.5369 28.5885 67.0837 28.375C66.6358 28.1615 66.2686 27.8932 65.9822 27.5703C65.6957 27.2422 65.477 26.9115 65.3259 26.5781H65.1775V28.5H61.8962ZM65.1541 22.5C65.1541 23.2135 65.253 23.8359 65.4509 24.3672C65.6488 24.8984 65.9353 25.3125 66.3103 25.6094C66.6853 25.901 67.141 26.0469 67.6775 26.0469C68.2192 26.0469 68.6775 25.8984 69.0525 25.6016C69.4275 25.2995 69.7113 24.8828 69.9041 24.3516C70.102 23.8151 70.2009 23.1979 70.2009 22.5C70.2009 21.8073 70.1046 21.1979 69.9119 20.6719C69.7192 20.1458 69.4353 19.7344 69.0603 19.4375C68.6853 19.1406 68.2244 18.9922 67.6775 18.9922C67.1358 18.9922 66.6775 19.1354 66.3025 19.4219C65.9327 19.7083 65.6488 20.1146 65.4509 20.6406C65.253 21.1667 65.1541 21.7865 65.1541 22.5ZM79.2419 28.7266C78.4763 28.7266 77.794 28.5938 77.1951 28.3281C76.5961 28.0573 76.1222 27.6589 75.7732 27.1328C75.4294 26.6016 75.2576 25.9401 75.2576 25.1484C75.2576 24.4818 75.38 23.9219 75.6248 23.4687C75.8695 23.0156 76.2029 22.651 76.6248 22.375C77.0466 22.099 77.5258 21.8906 78.0623 21.75C78.6039 21.6094 79.1716 21.5104 79.7654 21.4531C80.4633 21.3802 81.0258 21.3125 81.4529 21.25C81.88 21.1823 82.1899 21.0833 82.3826 20.9531C82.5753 20.8229 82.6716 20.6302 82.6716 20.375V20.3281C82.6716 19.8333 82.5154 19.4505 82.2029 19.1797C81.8956 18.9089 81.4581 18.7734 80.8904 18.7734C80.2914 18.7734 79.8149 18.9062 79.4607 19.1719C79.1065 19.4323 78.8722 19.7604 78.7576 20.1562L75.6794 19.9062C75.8357 19.1771 76.143 18.5469 76.6013 18.0156C77.0597 17.4792 77.6508 17.0677 78.3748 16.7812C79.1039 16.4896 79.9477 16.3438 80.906 16.3438C81.5727 16.3438 82.2107 16.4219 82.8201 16.5781C83.4347 16.7344 83.9789 16.9766 84.4529 17.3047C84.932 17.6328 85.3097 18.0547 85.5857 18.5703C85.8617 19.0807 85.9998 19.6927 85.9998 20.4062V28.5H82.8435V26.8359H82.7498C82.557 27.2109 82.2992 27.5417 81.9763 27.8281C81.6534 28.1094 81.2654 28.3307 80.8123 28.4922C80.3591 28.6484 79.8357 28.7266 79.2419 28.7266ZM80.1951 26.4297C80.6847 26.4297 81.1169 26.3333 81.4919 26.1406C81.8669 25.9427 82.1612 25.6771 82.3748 25.3438C82.5883 25.0104 82.6951 24.6328 82.6951 24.2109V22.9375C82.5909 23.0052 82.4477 23.0677 82.2654 23.125C82.0883 23.1771 81.8878 23.2266 81.6638 23.2734C81.4399 23.3151 81.2159 23.3542 80.9919 23.3906C80.768 23.4219 80.5649 23.4505 80.3826 23.4766C79.9919 23.5339 79.6508 23.625 79.3591 23.75C79.0675 23.875 78.8409 24.0443 78.6794 24.2578C78.518 24.4661 78.4373 24.7266 78.4373 25.0391C78.4373 25.4922 78.6013 25.8385 78.9294 26.0781C79.2628 26.3125 79.6847 26.4297 80.1951 26.4297ZM98.5662 19.9219L95.5193 20.1094C95.4672 19.849 95.3552 19.6146 95.1833 19.4062C95.0115 19.1927 94.7849 19.0234 94.5037 18.8984C94.2276 18.7682 93.8969 18.7031 93.5115 18.7031C92.9958 18.7031 92.561 18.8125 92.2068 19.0312C91.8526 19.2448 91.6755 19.5312 91.6755 19.8906C91.6755 20.1771 91.7901 20.4193 92.0193 20.6172C92.2485 20.8151 92.6417 20.974 93.199 21.0937L95.3709 21.5312C96.5375 21.7708 97.4073 22.1562 97.9802 22.6875C98.5531 23.2187 98.8396 23.9167 98.8396 24.7812C98.8396 25.5677 98.6078 26.2578 98.1443 26.8516C97.686 27.4453 97.0557 27.9089 96.2537 28.2422C95.4568 28.5703 94.5375 28.7344 93.4958 28.7344C91.9073 28.7344 90.6417 28.4036 89.699 27.7422C88.7615 27.0755 88.212 26.1693 88.0505 25.0234L91.324 24.8516C91.4229 25.3359 91.6625 25.7057 92.0427 25.9609C92.4229 26.2109 92.9099 26.3359 93.5037 26.3359C94.087 26.3359 94.5557 26.224 94.9099 26C95.2693 25.7708 95.4516 25.4766 95.4568 25.1172C95.4516 24.8151 95.324 24.5677 95.074 24.375C94.824 24.1771 94.4386 24.026 93.9177 23.9219L91.8396 23.5078C90.6677 23.2734 89.7953 22.8672 89.2224 22.2891C88.6547 21.7109 88.3708 20.974 88.3708 20.0781C88.3708 19.3073 88.5792 18.6432 88.9958 18.0859C89.4177 17.5286 90.0089 17.099 90.7693 16.7969C91.5349 16.4948 92.4307 16.3438 93.4568 16.3438C94.9724 16.3438 96.1651 16.6641 97.0349 17.3047C97.9099 17.9453 98.4203 18.8177 98.5662 19.9219ZM106.404 28.7344C105.17 28.7344 104.107 28.4844 103.217 27.9844C102.331 27.4792 101.649 26.7656 101.17 25.8437C100.691 24.9167 100.451 23.8203 100.451 22.5547C100.451 21.3203 100.691 20.237 101.17 19.3047C101.649 18.3724 102.323 17.6458 103.193 17.125C104.068 16.6042 105.094 16.3438 106.271 16.3438C107.063 16.3438 107.8 16.4714 108.482 16.7266C109.17 16.9766 109.769 17.3542 110.279 17.8594C110.795 18.3646 111.196 19 111.482 19.7656C111.769 20.526 111.912 21.4167 111.912 22.4375V23.3516H101.779V21.2891H108.779C108.779 20.8099 108.675 20.3854 108.467 20.0156C108.258 19.6458 107.969 19.3568 107.599 19.1484C107.235 18.9349 106.81 18.8281 106.326 18.8281C105.821 18.8281 105.373 18.9453 104.982 19.1797C104.597 19.4089 104.295 19.7187 104.076 20.1094C103.857 20.4948 103.745 20.9245 103.74 21.3984V23.3594C103.74 23.9531 103.849 24.4661 104.068 24.8984C104.292 25.3307 104.607 25.6641 105.013 25.8984C105.42 26.1328 105.901 26.25 106.459 26.25C106.829 26.25 107.167 26.1979 107.474 26.0938C107.782 25.9896 108.045 25.8333 108.263 25.625C108.482 25.4167 108.649 25.1615 108.763 24.8594L111.842 25.0625C111.685 25.8021 111.365 26.4479 110.881 27C110.401 27.5469 109.782 27.974 109.021 28.2813C108.266 28.5833 107.394 28.7344 106.404 28.7344Z" fill="black"/>
<path fill-rule="evenodd" clip-rule="evenodd" d="M145.795 10.3678C145.592 9.75223 144.959 9.25471 143.166 8.28496C142.511 7.93521 141.508 7.39377 140.601 6.90379C140.217 6.69675 139.851 6.49891 139.535 6.32859C138.948 6.00743 138.28 5.64517 137.707 5.33398C137.241 5.08137 136.838 4.86241 136.59 4.7264C136.036 4.43125 135.042 3.89157 134.392 3.52896C130.822 1.56417 128.273 0.214949 127.947 0.105325C127.732 0.0366424 125.962 0.00680769 117.903 0V40H127.666L128.079 39.8145C128.299 39.7217 129.741 38.9544 131.288 38.1195C131.819 37.8315 132.501 37.4631 133.243 37.0619C134.652 36.3003 136.281 35.4203 137.513 34.7465C144.555 30.9396 145.3 30.5547 145.595 29.9501C145.645 29.8489 145.681 29.7416 145.733 29.611C145.909 29.1641 145.909 28.987 145.9 19.9051C145.891 13.5638 145.865 10.5618 145.795 10.3678ZM133.53 23.0741C134.559 22.5871 135.201 21.8434 135.543 20.7367C136.185 18.656 134.752 16.4071 132.554 16.0441C129.969 15.628 127.719 18.231 128.492 20.7367C128.835 21.8434 129.477 22.5871 130.506 23.0741C131.051 23.3397 131.165 23.3574 132.018 23.3574C132.871 23.3574 132.985 23.3397 133.53 23.0741Z" fill="white"/>
</svg>
