<svg width="86" height="40" viewBox="0 0 86 40" fill="none" xmlns="http://www.w3.org/2000/svg">
<path d="M1.46042 0.265738L1.97914 0.0126537L14.9031 0V40H2.24289L1.71538 39.7975C1.056 39.5444 0.379027 38.9033 0.15044 38.3043C0.00977156 37.9163 0.000979821 36.8449 0.000980595 19.9557C0.000981512 -0.0210904 -0.0517697 1.60709 0.616408 0.881577C0.801036 0.679109 1.17909 0.400716 1.46042 0.265738Z" fill="white"/>
<rect width="43" height="40" transform="translate(14.9031)" fill="white"/>
<path d="M32.3865 17.6719C32.2771 17.2917 32.1235 16.9557 31.9255 16.6641C31.7276 16.3672 31.4854 16.1172 31.199 15.9141C30.9177 15.7057 30.5948 15.5469 30.2302 15.4375C29.8708 15.3281 29.4724 15.2734 29.0349 15.2734C28.2172 15.2734 27.4985 15.4766 26.8787 15.8828C26.2641 16.2891 25.7849 16.8802 25.4412 17.6562C25.0974 18.4271 24.9255 19.3698 24.9255 20.4844C24.9255 21.599 25.0948 22.5469 25.4333 23.3281C25.7719 24.1094 26.2511 24.7057 26.8708 25.1172C27.4906 25.5234 28.2224 25.7266 29.0662 25.7266C29.8318 25.7266 30.4854 25.5911 31.0271 25.3203C31.574 25.0443 31.9906 24.6562 32.2771 24.1562C32.5688 23.6562 32.7146 23.0651 32.7146 22.3828L33.4021 22.4844H29.2771V19.9375H35.9724V21.9531C35.9724 23.3594 35.6755 24.5677 35.0818 25.5781C34.488 26.5833 33.6703 27.3594 32.6287 27.9062C31.587 28.4479 30.3943 28.7187 29.0505 28.7187C27.5505 28.7187 26.2328 28.388 25.0974 27.7266C23.962 27.0599 23.0766 26.1146 22.4412 24.8906C21.811 23.6615 21.4958 22.2031 21.4958 20.5156C21.4958 19.2187 21.6833 18.0625 22.0583 17.0469C22.4386 16.026 22.9698 15.1615 23.6521 14.4531C24.3344 13.7448 25.1287 13.2057 26.0349 12.8359C26.9412 12.4661 27.9229 12.2812 28.9802 12.2812C29.8865 12.2812 30.7302 12.4141 31.5115 12.6797C32.2927 12.9401 32.9854 13.3099 33.5896 13.7891C34.199 14.2682 34.6964 14.8385 35.0818 15.5C35.4672 16.1562 35.7146 16.8802 35.824 17.6719H32.3865ZM39.2029 28.5V16.5H42.531V28.5H39.2029ZM40.8748 14.9531C40.38 14.9531 39.9555 14.7891 39.6013 14.4609C39.2524 14.1276 39.0779 13.7292 39.0779 13.2656C39.0779 12.8073 39.2524 12.4141 39.6013 12.0859C39.9555 11.7526 40.38 11.5859 40.8748 11.5859C41.3695 11.5859 41.7914 11.7526 42.1404 12.0859C42.4945 12.4141 42.6716 12.8073 42.6716 13.2656C42.6716 13.7292 42.4945 14.1276 42.1404 14.4609C41.7914 14.7891 41.3695 14.9531 40.8748 14.9531ZM51.5798 16.5V19H44.3533V16.5H51.5798ZM45.9939 13.625H49.322V24.8125C49.322 25.1198 49.3689 25.3594 49.4626 25.5312C49.5564 25.6979 49.6866 25.8151 49.8533 25.8828C50.0251 25.9505 50.2231 25.9844 50.447 25.9844C50.6033 25.9844 50.7595 25.9714 50.9158 25.9453C51.072 25.9141 51.1918 25.8906 51.2751 25.875L51.7986 28.3516C51.6319 28.4036 51.3975 28.4635 51.0955 28.5313C50.7934 28.6042 50.4262 28.6484 49.9939 28.6641C49.1918 28.6953 48.4887 28.5885 47.8845 28.3437C47.2856 28.099 46.8194 27.7187 46.4861 27.2031C46.1528 26.6875 45.9887 26.0365 45.9939 25.25V13.625Z" fill="black"/>
<path fill-rule="evenodd" clip-rule="evenodd" d="M85.7947 10.3678C85.5925 9.75223 84.9594 9.25471 83.1659 8.28496C82.5108 7.93521 81.5081 7.39377 80.6007 6.90379C80.2173 6.69675 79.8509 6.49891 79.5349 6.32859C78.9477 6.00743 78.2802 5.64517 77.7068 5.33398C77.2413 5.08137 76.8378 4.86241 76.5896 4.7264C76.0358 4.43125 75.0423 3.89157 74.3917 3.52896C70.8222 1.56417 68.2726 0.214949 67.9473 0.105325C67.7325 0.0366424 65.9623 0.00680769 57.9031 0V40H67.666L68.0792 39.8145C68.299 39.7217 69.7408 38.9544 71.2882 38.1195C71.819 37.8315 72.5006 37.4631 73.243 37.0619C74.6522 36.3003 76.2805 35.4203 77.5128 34.7465C84.5546 30.9396 85.2996 30.5547 85.5951 29.9501C85.6446 29.8489 85.6814 29.7416 85.7331 29.611C85.909 29.1641 85.909 28.987 85.9002 19.9051C85.8914 13.5638 85.865 10.5618 85.7947 10.3678ZM73.5301 23.0741C74.5587 22.5871 75.2005 21.8434 75.5434 20.7367C76.1852 18.656 74.7522 16.4071 72.5542 16.0441C69.9694 15.628 67.7187 18.231 68.4924 20.7367C68.8353 21.8434 69.4771 22.5871 70.5057 23.0741C71.0508 23.3397 71.1651 23.3574 72.0179 23.3574C72.8707 23.3574 72.985 23.3397 73.5301 23.0741Z" fill="white"/>
</svg>
