<svg width="148" height="40" viewBox="0 0 148 40" fill="none" xmlns="http://www.w3.org/2000/svg">
<path d="M1.46042 0.265738L1.97914 0.0126537L14.9031 0V40H2.24289L1.71538 39.7975C1.056 39.5444 0.379027 38.9033 0.15044 38.3043C0.00977156 37.9163 0.000979821 36.8449 0.000980595 19.9557C0.000981512 -0.0210904 -0.0517697 1.60709 0.616408 0.881577C0.801036 0.679109 1.17909 0.400716 1.46042 0.265738Z" fill="white"/>
<rect width="105" height="40" transform="translate(14.9031)" fill="white"/>
<path d="M21.6033 28.5V12.5H24.9861V25.7109H31.8455V28.5H21.6033ZM34.0232 28.5V16.5H37.3513V28.5H34.0232ZM35.6951 14.9531C35.2003 14.9531 34.7758 14.7891 34.4216 14.4609C34.0727 14.1276 33.8982 13.7292 33.8982 13.2656C33.8982 12.8073 34.0727 12.4141 34.4216 12.0859C34.7758 11.7526 35.2003 11.5859 35.6951 11.5859C36.1899 11.5859 36.6117 11.7526 36.9607 12.0859C37.3149 12.4141 37.4919 12.8073 37.4919 13.2656C37.4919 13.7292 37.3149 14.1276 36.9607 14.4609C36.6117 14.7891 36.1899 14.9531 35.6951 14.9531ZM40.0798 28.5V12.5H43.408V18.5156H43.5095C43.6554 18.1927 43.8663 17.8646 44.1423 17.5312C44.4236 17.1927 44.7882 16.9115 45.2361 16.6875C45.6892 16.4583 46.2517 16.3438 46.9236 16.3438C47.7986 16.3438 48.6059 16.5729 49.3455 17.0313C50.085 17.4844 50.6762 18.1693 51.1189 19.0859C51.5616 19.9974 51.783 21.1406 51.783 22.5156C51.783 23.8542 51.5668 24.9844 51.1345 25.9062C50.7074 26.8229 50.1241 27.5182 49.3845 27.9922C48.6501 28.4609 47.8272 28.6953 46.9158 28.6953C46.2699 28.6953 45.7205 28.5885 45.2673 28.375C44.8194 28.1615 44.4522 27.8932 44.1658 27.5703C43.8793 27.2422 43.6606 26.9115 43.5095 26.5781H43.3611V28.5H40.0798ZM43.3376 22.5C43.3376 23.2135 43.4366 23.8359 43.6345 24.3672C43.8324 24.8984 44.1189 25.3125 44.4939 25.6094C44.8689 25.901 45.3246 26.0469 45.8611 26.0469C46.4028 26.0469 46.8611 25.8984 47.2361 25.6016C47.6111 25.2995 47.8949 24.8828 48.0876 24.3516C48.2856 23.8151 48.3845 23.1979 48.3845 22.5C48.3845 21.8073 48.2882 21.1979 48.0955 20.6719C47.9028 20.1458 47.6189 19.7344 47.2439 19.4375C46.8689 19.1406 46.408 18.9922 45.8611 18.9922C45.3194 18.9922 44.8611 19.1354 44.4861 19.4219C44.1163 19.7083 43.8324 20.1146 43.6345 20.6406C43.4366 21.1667 43.3376 21.7865 43.3376 22.5ZM54.0037 28.5V16.5H57.2302V18.5937H57.3552C57.574 17.849 57.9412 17.2865 58.4568 16.9063C58.9724 16.5208 59.5662 16.3281 60.238 16.3281C60.4047 16.3281 60.5844 16.3385 60.7771 16.3594C60.9698 16.3802 61.1391 16.4089 61.2849 16.4453V19.3984C61.1287 19.3516 60.9125 19.3099 60.6365 19.2734C60.3604 19.237 60.1078 19.2188 59.8787 19.2188C59.3891 19.2188 58.9516 19.3255 58.5662 19.5391C58.186 19.7474 57.8839 20.0391 57.6599 20.4141C57.4412 20.7891 57.3318 21.2214 57.3318 21.7109V28.5H54.0037ZM66.0837 28.7266C65.3181 28.7266 64.6358 28.5938 64.0369 28.3281C63.4379 28.0573 62.9639 27.6589 62.615 27.1328C62.2712 26.6016 62.0994 25.9401 62.0994 25.1484C62.0994 24.4818 62.2218 23.9219 62.4666 23.4687C62.7113 23.0156 63.0447 22.651 63.4666 22.375C63.8884 22.099 64.3676 21.8906 64.9041 21.75C65.4457 21.6094 66.0134 21.5104 66.6072 21.4531C67.3051 21.3802 67.8676 21.3125 68.2947 21.25C68.7218 21.1823 69.0317 21.0833 69.2244 20.9531C69.4171 20.8229 69.5134 20.6302 69.5134 20.375V20.3281C69.5134 19.8333 69.3572 19.4505 69.0447 19.1797C68.7374 18.9089 68.2999 18.7734 67.7322 18.7734C67.1332 18.7734 66.6567 18.9062 66.3025 19.1719C65.9483 19.4323 65.7139 19.7604 65.5994 20.1562L62.5212 19.9062C62.6775 19.1771 62.9848 18.5469 63.4431 18.0156C63.9014 17.4792 64.4926 17.0677 65.2166 16.7812C65.9457 16.4896 66.7895 16.3438 67.7478 16.3438C68.4145 16.3438 69.0525 16.4219 69.6619 16.5781C70.2764 16.7344 70.8207 16.9766 71.2947 17.3047C71.7738 17.6328 72.1514 18.0547 72.4275 18.5703C72.7035 19.0807 72.8416 19.6927 72.8416 20.4062V28.5H69.6853V26.8359H69.5916C69.3988 27.2109 69.141 27.5417 68.8181 27.8281C68.4952 28.1094 68.1072 28.3307 67.6541 28.4922C67.2009 28.6484 66.6775 28.7266 66.0837 28.7266ZM67.0369 26.4297C67.5264 26.4297 67.9587 26.3333 68.3337 26.1406C68.7087 25.9427 69.003 25.6771 69.2166 25.3438C69.4301 25.0104 69.5369 24.6328 69.5369 24.2109V22.9375C69.4327 23.0052 69.2895 23.0677 69.1072 23.125C68.9301 23.1771 68.7296 23.2266 68.5056 23.2734C68.2817 23.3151 68.0577 23.3542 67.8337 23.3906C67.6098 23.4219 67.4067 23.4505 67.2244 23.4766C66.8337 23.5339 66.4926 23.625 66.2009 23.75C65.9093 23.875 65.6827 24.0443 65.5212 24.2578C65.3598 24.4661 65.2791 24.7266 65.2791 25.0391C65.2791 25.4922 65.4431 25.8385 65.7712 26.0781C66.1046 26.3125 66.5264 26.4297 67.0369 26.4297ZM75.4236 28.5V16.5H78.6501V18.5937H78.7751C78.9939 17.849 79.3611 17.2865 79.8767 16.9063C80.3923 16.5208 80.9861 16.3281 81.658 16.3281C81.8246 16.3281 82.0043 16.3385 82.197 16.3594C82.3897 16.3802 82.559 16.4089 82.7048 16.4453V19.3984C82.5486 19.3516 82.3324 19.3099 82.0564 19.2734C81.7804 19.237 81.5278 19.2188 81.2986 19.2188C80.809 19.2188 80.3715 19.3255 79.9861 19.5391C79.6059 19.7474 79.3038 20.0391 79.0798 20.4141C78.8611 20.7891 78.7517 21.2214 78.7517 21.7109V28.5H75.4236ZM84.4255 28.5V16.5H87.7537V28.5H84.4255ZM86.0974 14.9531C85.6026 14.9531 85.1781 14.7891 84.824 14.4609C84.475 14.1276 84.3005 13.7292 84.3005 13.2656C84.3005 12.8073 84.475 12.4141 84.824 12.0859C85.1781 11.7526 85.6026 11.5859 86.0974 11.5859C86.5922 11.5859 87.0141 11.7526 87.363 12.0859C87.7172 12.4141 87.8943 12.8073 87.8943 13.2656C87.8943 13.7292 87.7172 14.1276 87.363 14.4609C87.0141 14.7891 86.5922 14.9531 86.0974 14.9531ZM95.8884 28.7344C94.6541 28.7344 93.5916 28.4844 92.7009 27.9844C91.8155 27.4792 91.1332 26.7656 90.6541 25.8437C90.1749 24.9167 89.9353 23.8203 89.9353 22.5547C89.9353 21.3203 90.1749 20.237 90.6541 19.3047C91.1332 18.3724 91.8077 17.6458 92.6775 17.125C93.5525 16.6042 94.5785 16.3438 95.7556 16.3438C96.5473 16.3438 97.2843 16.4714 97.9666 16.7266C98.6541 16.9766 99.253 17.3542 99.7634 17.8594C100.279 18.3646 100.68 19 100.967 19.7656C101.253 20.526 101.396 21.4167 101.396 22.4375V23.3516H91.2634V21.2891H98.2634C98.2634 20.8099 98.1593 20.3854 97.9509 20.0156C97.7426 19.6458 97.4535 19.3568 97.0837 19.1484C96.7192 18.9349 96.2947 18.8281 95.8103 18.8281C95.3051 18.8281 94.8572 18.9453 94.4666 19.1797C94.0811 19.4089 93.7791 19.7187 93.5603 20.1094C93.3416 20.4948 93.2296 20.9245 93.2244 21.3984V23.3594C93.2244 23.9531 93.3337 24.4661 93.5525 24.8984C93.7764 25.3307 94.0916 25.6641 94.4978 25.8984C94.9041 26.1328 95.3858 26.25 95.9431 26.25C96.3129 26.25 96.6514 26.1979 96.9587 26.0938C97.266 25.9896 97.5291 25.8333 97.7478 25.625C97.9666 25.4167 98.1332 25.1615 98.2478 24.8594L101.326 25.0625C101.17 25.8021 100.849 26.4479 100.365 27C99.8858 27.5469 99.266 27.974 98.5056 28.2813C97.7504 28.5833 96.878 28.7344 95.8884 28.7344ZM113.552 19.9219L110.506 20.1094C110.454 19.849 110.342 19.6146 110.17 19.4062C109.998 19.1927 109.771 19.0234 109.49 18.8984C109.214 18.7682 108.883 18.7031 108.498 18.7031C107.982 18.7031 107.547 18.8125 107.193 19.0312C106.839 19.2448 106.662 19.5312 106.662 19.8906C106.662 20.1771 106.776 20.4193 107.006 20.6172C107.235 20.8151 107.628 20.974 108.185 21.0937L110.357 21.5312C111.524 21.7708 112.394 22.1562 112.967 22.6875C113.539 23.2187 113.826 23.9167 113.826 24.7812C113.826 25.5677 113.594 26.2578 113.131 26.8516C112.672 27.4453 112.042 27.9089 111.24 28.2422C110.443 28.5703 109.524 28.7344 108.482 28.7344C106.894 28.7344 105.628 28.4036 104.685 27.7422C103.748 27.0755 103.198 26.1693 103.037 25.0234L106.31 24.8516C106.409 25.3359 106.649 25.7057 107.029 25.9609C107.409 26.2109 107.896 26.3359 108.49 26.3359C109.073 26.3359 109.542 26.224 109.896 26C110.256 25.7708 110.438 25.4766 110.443 25.1172C110.438 24.8151 110.31 24.5677 110.06 24.375C109.81 24.1771 109.425 24.026 108.904 23.9219L106.826 23.5078C105.654 23.2734 104.782 22.8672 104.209 22.2891C103.641 21.7109 103.357 20.974 103.357 20.0781C103.357 19.3073 103.566 18.6432 103.982 18.0859C104.404 17.5286 104.995 17.099 105.756 16.7969C106.521 16.4948 107.417 16.3438 108.443 16.3438C109.959 16.3438 111.151 16.6641 112.021 17.3047C112.896 17.9453 113.407 18.8177 113.552 19.9219Z" fill="black"/>
<path fill-rule="evenodd" clip-rule="evenodd" d="M147.795 10.3678C147.592 9.75223 146.959 9.25471 145.166 8.28496C144.511 7.93521 143.508 7.39377 142.601 6.90379C142.217 6.69675 141.851 6.49891 141.535 6.32859C140.948 6.00743 140.28 5.64517 139.707 5.33398C139.241 5.08137 138.838 4.86241 138.59 4.7264C138.036 4.43125 137.042 3.89157 136.392 3.52896C132.822 1.56417 130.273 0.214949 129.947 0.105325C129.732 0.0366424 127.962 0.00680769 119.903 0V40H129.666L130.079 39.8145C130.299 39.7217 131.741 38.9544 133.288 38.1195C133.819 37.8315 134.501 37.4631 135.243 37.0619C136.652 36.3003 138.281 35.4203 139.513 34.7465C146.555 30.9396 147.3 30.5547 147.595 29.9501C147.645 29.8489 147.681 29.7416 147.733 29.611C147.909 29.1641 147.909 28.987 147.9 19.9051C147.891 13.5638 147.865 10.5618 147.795 10.3678ZM135.53 23.0741C136.559 22.5871 137.201 21.8434 137.543 20.7367C138.185 18.656 136.752 16.4071 134.554 16.0441C131.969 15.628 129.719 18.231 130.492 20.7367C130.835 21.8434 131.477 22.5871 132.506 23.0741C133.051 23.3397 133.165 23.3574 134.018 23.3574C134.871 23.3574 134.985 23.3397 135.53 23.0741Z" fill="white"/>
</svg>
