<svg width="198" height="40" viewBox="0 0 198 40" fill="none" xmlns="http://www.w3.org/2000/svg">
<path d="M1.46042 0.265738L1.97914 0.0126537L14.9031 0V40H2.24289L1.71538 39.7975C1.056 39.5444 0.379027 38.9033 0.15044 38.3043C0.00977156 37.9163 0.000979821 36.8449 0.000980595 19.9557C0.000981512 -0.0210904 -0.0517697 1.60709 0.616408 0.881577C0.801036 0.679109 1.17909 0.400716 1.46042 0.265738Z" fill="white"/>
<rect width="155" height="40" transform="translate(14.9031)" fill="white"/>
<path d="M20.8142 15.2891V12.5H33.9548V15.2891H29.0564V28.5H25.7126V15.2891H20.8142ZM37.8455 28.7266C37.0798 28.7266 36.3975 28.5938 35.7986 28.3281C35.1996 28.0573 34.7257 27.6589 34.3767 27.1328C34.033 26.6016 33.8611 25.9401 33.8611 25.1484C33.8611 24.4818 33.9835 23.9219 34.2283 23.4687C34.4731 23.0156 34.8064 22.651 35.2283 22.375C35.6501 22.099 36.1293 21.8906 36.6658 21.75C37.2074 21.6094 37.7751 21.5104 38.3689 21.4531C39.0668 21.3802 39.6293 21.3125 40.0564 21.25C40.4835 21.1823 40.7934 21.0833 40.9861 20.9531C41.1788 20.8229 41.2751 20.6302 41.2751 20.375V20.3281C41.2751 19.8333 41.1189 19.4505 40.8064 19.1797C40.4991 18.9089 40.0616 18.7734 39.4939 18.7734C38.8949 18.7734 38.4184 18.9062 38.0642 19.1719C37.71 19.4323 37.4757 19.7604 37.3611 20.1562L34.283 19.9062C34.4392 19.1771 34.7465 18.5469 35.2048 18.0156C35.6632 17.4792 36.2543 17.0677 36.9783 16.7812C37.7074 16.4896 38.5512 16.3438 39.5095 16.3438C40.1762 16.3438 40.8142 16.4219 41.4236 16.5781C42.0382 16.7344 42.5824 16.9766 43.0564 17.3047C43.5356 17.6328 43.9132 18.0547 44.1892 18.5703C44.4653 19.0807 44.6033 19.6927 44.6033 20.4062V28.5H41.447V26.8359H41.3533C41.1606 27.2109 40.9028 27.5417 40.5798 27.8281C40.2569 28.1094 39.8689 28.3307 39.4158 28.4922C38.9626 28.6484 38.4392 28.7266 37.8455 28.7266ZM38.7986 26.4297C39.2882 26.4297 39.7205 26.3333 40.0955 26.1406C40.4705 25.9427 40.7647 25.6771 40.9783 25.3438C41.1918 25.0104 41.2986 24.6328 41.2986 24.2109V22.9375C41.1944 23.0052 41.0512 23.0677 40.8689 23.125C40.6918 23.1771 40.4913 23.2266 40.2673 23.2734C40.0434 23.3151 39.8194 23.3542 39.5955 23.3906C39.3715 23.4219 39.1684 23.4505 38.9861 23.4766C38.5955 23.5339 38.2543 23.625 37.9626 23.75C37.671 23.875 37.4444 24.0443 37.283 24.2578C37.1215 24.4661 37.0408 24.7266 37.0408 25.0391C37.0408 25.4922 37.2048 25.8385 37.533 26.0781C37.8663 26.3125 38.2882 26.4297 38.7986 26.4297ZM47.1853 28.5V16.5H50.5134V28.5H47.1853ZM48.8572 14.9531C48.3624 14.9531 47.9379 14.7891 47.5837 14.4609C47.2348 14.1276 47.0603 13.7292 47.0603 13.2656C47.0603 12.8073 47.2348 12.4141 47.5837 12.0859C47.9379 11.7526 48.3624 11.5859 48.8572 11.5859C49.352 11.5859 49.7738 11.7526 50.1228 12.0859C50.477 12.4141 50.6541 12.8073 50.6541 13.2656C50.6541 13.7292 50.477 14.1276 50.1228 14.4609C49.7738 14.7891 49.352 14.9531 48.8572 14.9531ZM56.5076 12.5V28.5H53.1794V12.5H56.5076ZM62.8376 28.5L58.2595 12.5H61.9548L64.6033 23.6172H64.7361L67.658 12.5H70.822L73.7361 23.6406H73.8767L76.5251 12.5H80.2205L75.6423 28.5H72.3455L69.2986 18.0391H69.1736L66.1345 28.5H62.8376ZM81.9685 28.5V16.5H85.2966V28.5H81.9685ZM83.6404 14.9531C83.1456 14.9531 82.7211 14.7891 82.3669 14.4609C82.018 14.1276 81.8435 13.7292 81.8435 13.2656C81.8435 12.8073 82.018 12.4141 82.3669 12.0859C82.7211 11.7526 83.1456 11.5859 83.6404 11.5859C84.1352 11.5859 84.557 11.7526 84.906 12.0859C85.2602 12.4141 85.4373 12.8073 85.4373 13.2656C85.4373 13.7292 85.2602 14.1276 84.906 14.4609C84.557 14.7891 84.1352 14.9531 83.6404 14.9531ZM91.2908 21.5625V28.5H87.9626V16.5H91.1345V18.6172H91.2751C91.5408 17.9193 91.9861 17.3672 92.6111 16.9609C93.2361 16.5495 93.9939 16.3438 94.8845 16.3438C95.7179 16.3438 96.4444 16.526 97.0642 16.8906C97.684 17.2552 98.1658 17.776 98.5095 18.4531C98.8533 19.125 99.0251 19.9271 99.0251 20.8594V28.5H95.697V21.4531C95.7022 20.7187 95.5147 20.1458 95.1345 19.7344C94.7543 19.3177 94.2309 19.1094 93.5642 19.1094C93.1163 19.1094 92.7205 19.2057 92.3767 19.3984C92.0382 19.5911 91.7725 19.8724 91.5798 20.2422C91.3923 20.6068 91.296 21.0469 91.2908 21.5625ZM106.07 28.6953C105.159 28.6953 104.333 28.4609 103.594 27.9922C102.859 27.5182 102.276 26.8229 101.844 25.9062C101.416 24.9844 101.203 23.8542 101.203 22.5156C101.203 21.1406 101.424 19.9974 101.867 19.0859C102.31 18.1693 102.898 17.4844 103.633 17.0313C104.372 16.5729 105.182 16.3438 106.062 16.3438C106.734 16.3438 107.294 16.4583 107.742 16.6875C108.195 16.9115 108.56 17.1927 108.836 17.5312C109.117 17.8646 109.33 18.1927 109.476 18.5156H109.578V12.5H112.898V28.5H109.617V26.5781H109.476C109.32 26.9115 109.099 27.2422 108.812 27.5703C108.531 27.8932 108.164 28.1615 107.711 28.375C107.263 28.5885 106.716 28.6953 106.07 28.6953ZM107.125 26.0469C107.661 26.0469 108.114 25.901 108.484 25.6094C108.859 25.3125 109.146 24.8984 109.344 24.3672C109.547 23.8359 109.648 23.2135 109.648 22.5C109.648 21.7865 109.549 21.1667 109.351 20.6406C109.153 20.1146 108.867 19.7083 108.492 19.4219C108.117 19.1354 107.661 18.9922 107.125 18.9922C106.578 18.9922 106.117 19.1406 105.742 19.4375C105.367 19.7344 105.083 20.1458 104.89 20.6719C104.698 21.1979 104.601 21.8073 104.601 22.5C104.601 23.1979 104.698 23.8151 104.89 24.3516C105.088 24.8828 105.372 25.2995 105.742 25.6016C106.117 25.8984 106.578 26.0469 107.125 26.0469ZM134.906 18.1016H131.484C131.422 17.6589 131.294 17.2656 131.101 16.9219C130.909 16.5729 130.661 16.276 130.359 16.0312C130.057 15.7865 129.708 15.599 129.312 15.4687C128.922 15.3385 128.497 15.2734 128.039 15.2734C127.211 15.2734 126.489 15.4792 125.875 15.8906C125.26 16.2969 124.784 16.8906 124.445 17.6719C124.107 18.4479 123.937 19.3906 123.937 20.5C123.937 21.6406 124.107 22.599 124.445 23.375C124.789 24.151 125.268 24.737 125.883 25.1328C126.497 25.5286 127.208 25.7266 128.015 25.7266C128.469 25.7266 128.888 25.6667 129.273 25.5469C129.664 25.4271 130.01 25.2526 130.312 25.0234C130.614 24.7891 130.864 24.5052 131.062 24.1719C131.265 23.8385 131.406 23.4583 131.484 23.0312L134.906 23.0469C134.817 23.7812 134.596 24.4896 134.242 25.1719C133.893 25.849 133.422 26.4557 132.828 26.9922C132.239 27.5234 131.536 27.9453 130.719 28.2578C129.906 28.5651 128.987 28.7187 127.961 28.7187C126.534 28.7187 125.258 28.3958 124.133 27.75C123.013 27.1042 122.127 26.1693 121.476 24.9453C120.83 23.7214 120.508 22.2396 120.508 20.5C120.508 18.7552 120.836 17.2708 121.492 16.0469C122.148 14.8229 123.039 13.8906 124.164 13.25C125.289 12.6042 126.554 12.2812 127.961 12.2812C128.888 12.2812 129.747 12.4115 130.539 12.6719C131.336 12.9323 132.041 13.3125 132.656 13.8125C133.271 14.3073 133.771 14.9141 134.156 15.6328C134.547 16.3516 134.797 17.1745 134.906 18.1016ZM146.011 17.1016C145.949 16.4714 145.681 15.9818 145.207 15.6328C144.733 15.2839 144.09 15.1094 143.277 15.1094C142.725 15.1094 142.259 15.1875 141.879 15.3437C141.498 15.4948 141.207 15.7057 141.004 15.9766C140.806 16.2474 140.707 16.5547 140.707 16.8984C140.696 17.1849 140.756 17.4349 140.886 17.6484C141.022 17.862 141.207 18.0469 141.441 18.2031C141.676 18.3542 141.946 18.487 142.254 18.6016C142.561 18.7109 142.889 18.8047 143.238 18.8828L144.676 19.2266C145.373 19.3828 146.014 19.5911 146.597 19.8516C147.181 20.112 147.686 20.4323 148.113 20.8125C148.54 21.1927 148.871 21.6406 149.105 22.1562C149.345 22.6719 149.467 23.263 149.472 23.9297C149.467 24.9089 149.217 25.7578 148.722 26.4766C148.233 27.1901 147.524 27.7448 146.597 28.1406C145.676 28.5312 144.564 28.7266 143.261 28.7266C141.97 28.7266 140.845 28.5286 139.886 28.1328C138.933 27.737 138.189 27.151 137.652 26.375C137.121 25.5937 136.842 24.6276 136.816 23.4766H140.09C140.126 24.013 140.28 24.4609 140.551 24.8203C140.827 25.1745 141.194 25.4427 141.652 25.625C142.116 25.8021 142.639 25.8906 143.222 25.8906C143.795 25.8906 144.293 25.8073 144.715 25.6406C145.142 25.474 145.472 25.2422 145.707 24.9453C145.941 24.6484 146.058 24.3073 146.058 23.9219C146.058 23.5625 145.952 23.2604 145.738 23.0156C145.53 22.7708 145.222 22.5625 144.816 22.3906C144.415 22.2187 143.923 22.0625 143.34 21.9219L141.597 21.4844C140.248 21.1562 139.183 20.6432 138.402 19.9453C137.621 19.2474 137.233 18.3073 137.238 17.125C137.233 16.1562 137.491 15.3099 138.011 14.5859C138.538 13.862 139.259 13.2969 140.176 12.8906C141.092 12.4844 142.134 12.2812 143.301 12.2812C144.488 12.2812 145.524 12.4844 146.41 12.8906C147.301 13.2969 147.993 13.862 148.488 14.5859C148.983 15.3099 149.238 16.1484 149.254 17.1016H146.011ZM160.427 17.1016C160.365 16.4714 160.097 15.9818 159.623 15.6328C159.149 15.2839 158.506 15.1094 157.693 15.1094C157.141 15.1094 156.675 15.1875 156.295 15.3437C155.914 15.4948 155.623 15.7057 155.42 15.9766C155.222 16.2474 155.123 16.5547 155.123 16.8984C155.112 17.1849 155.172 17.4349 155.302 17.6484C155.438 17.862 155.623 18.0469 155.857 18.2031C156.092 18.3542 156.362 18.487 156.67 18.6016C156.977 18.7109 157.305 18.8047 157.654 18.8828L159.092 19.2266C159.789 19.3828 160.43 19.5911 161.013 19.8516C161.597 20.112 162.102 20.4323 162.529 20.8125C162.956 21.1927 163.287 21.6406 163.521 22.1562C163.761 22.6719 163.883 23.263 163.888 23.9297C163.883 24.9089 163.633 25.7578 163.138 26.4766C162.649 27.1901 161.941 27.7448 161.013 28.1406C160.092 28.5312 158.98 28.7266 157.677 28.7266C156.386 28.7266 155.261 28.5286 154.302 28.1328C153.349 27.737 152.605 27.151 152.068 26.375C151.537 25.5937 151.258 24.6276 151.232 23.4766H154.506C154.542 24.013 154.696 24.4609 154.967 24.8203C155.243 25.1745 155.61 25.4427 156.068 25.625C156.532 25.8021 157.055 25.8906 157.638 25.8906C158.211 25.8906 158.709 25.8073 159.131 25.6406C159.558 25.474 159.888 25.2422 160.123 24.9453C160.357 24.6484 160.474 24.3073 160.474 23.9219C160.474 23.5625 160.368 23.2604 160.154 23.0156C159.946 22.7708 159.638 22.5625 159.232 22.3906C158.831 22.2187 158.339 22.0625 157.756 21.9219L156.013 21.4844C154.664 21.1562 153.599 20.6432 152.818 19.9453C152.037 19.2474 151.649 18.3073 151.654 17.125C151.649 16.1562 151.907 15.3099 152.427 14.5859C152.954 13.862 153.675 13.2969 154.592 12.8906C155.508 12.4844 156.55 12.2812 157.717 12.2812C158.904 12.2812 159.941 12.4844 160.826 12.8906C161.717 13.2969 162.409 13.862 162.904 14.5859C163.399 15.3099 163.654 16.1484 163.67 17.1016H160.427Z" fill="black"/>
<path fill-rule="evenodd" clip-rule="evenodd" d="M197.795 10.3678C197.592 9.75223 196.959 9.25471 195.166 8.28496C194.511 7.93521 193.508 7.39377 192.601 6.90379C192.217 6.69675 191.851 6.49891 191.535 6.32859C190.948 6.00743 190.28 5.64517 189.707 5.33398C189.241 5.08137 188.838 4.86241 188.59 4.7264C188.036 4.43125 187.042 3.89157 186.392 3.52896C182.822 1.56417 180.273 0.214949 179.947 0.105325C179.732 0.0366424 177.962 0.00680769 169.903 0V40H179.666L180.079 39.8145C180.299 39.7217 181.741 38.9544 183.288 38.1195C183.819 37.8315 184.501 37.4631 185.243 37.0619C186.652 36.3003 188.281 35.4203 189.513 34.7465C196.555 30.9396 197.3 30.5547 197.595 29.9501C197.645 29.8489 197.681 29.7416 197.733 29.611C197.909 29.1641 197.909 28.987 197.9 19.9051C197.891 13.5638 197.865 10.5618 197.795 10.3678ZM185.53 23.0741C186.559 22.5871 187.201 21.8434 187.543 20.7367C188.185 18.656 186.752 16.4071 184.554 16.0441C181.969 15.628 179.719 18.231 180.492 20.7367C180.835 21.8434 181.477 22.5871 182.506 23.0741C183.051 23.3397 183.165 23.3574 184.018 23.3574C184.871 23.3574 184.985 23.3397 185.53 23.0741Z" fill="white"/>
</svg>
