<svg width="102" height="40" viewBox="0 0 102 40" fill="none" xmlns="http://www.w3.org/2000/svg">
<path d="M1.46042 0.265738L1.97914 0.0126537L14.9031 0V40H2.24289L1.71538 39.7975C1.056 39.5444 0.379027 38.9033 0.15044 38.3043C0.00977156 37.9163 0.000979821 36.8449 0.000980595 19.9557C0.000981512 -0.0210904 -0.0517697 1.60709 0.616408 0.881577C0.801036 0.679109 1.17909 0.400716 1.46042 0.265738Z" fill="white"/>
<rect width="59" height="40" transform="translate(14.9031)" fill="white"/>
<path d="M25.075 28.5L20.4968 12.5H24.1921L26.8406 23.6172H26.9734L29.8953 12.5H33.0593L35.9734 23.6406H36.114L38.7625 12.5H42.4578L37.8796 28.5H34.5828L31.5359 18.0391H31.4109L28.3718 28.5H25.075ZM48.3855 28.7344C47.1511 28.7344 46.0886 28.4844 45.198 27.9844C44.3126 27.4792 43.6303 26.7656 43.1511 25.8437C42.672 24.9167 42.4324 23.8203 42.4324 22.5547C42.4324 21.3203 42.672 20.237 43.1511 19.3047C43.6303 18.3724 44.3048 17.6458 45.1746 17.125C46.0496 16.6042 47.0756 16.3438 48.2527 16.3438C49.0444 16.3438 49.7813 16.4714 50.4636 16.7266C51.1511 16.9766 51.7501 17.3542 52.2605 17.8594C52.7761 18.3646 53.1772 19 53.4636 19.7656C53.7501 20.526 53.8933 21.4167 53.8933 22.4375V23.3516H43.7605V21.2891H50.7605C50.7605 20.8099 50.6563 20.3854 50.448 20.0156C50.2397 19.6458 49.9506 19.3568 49.5808 19.1484C49.2162 18.9349 48.7917 18.8281 48.3074 18.8281C47.8022 18.8281 47.3542 18.9453 46.9636 19.1797C46.5782 19.4089 46.2761 19.7187 46.0574 20.1094C45.8386 20.4948 45.7266 20.9245 45.7214 21.3984V23.3594C45.7214 23.9531 45.8308 24.4661 46.0496 24.8984C46.2735 25.3307 46.5886 25.6641 46.9949 25.8984C47.4011 26.1328 47.8829 26.25 48.4402 26.25C48.81 26.25 49.1485 26.1979 49.4558 26.0938C49.7631 25.9896 50.0261 25.8333 50.2449 25.625C50.4636 25.4167 50.6303 25.1615 50.7449 24.8594L53.823 25.0625C53.6667 25.8021 53.3464 26.4479 52.8621 27C52.3829 27.5469 51.7631 27.974 51.0027 28.2813C50.2475 28.5833 49.3751 28.7344 48.3855 28.7344ZM56.1277 28.5V12.5H59.4558V18.5156H59.5574C59.7032 18.1927 59.9141 17.8646 60.1902 17.5312C60.4714 17.1927 60.836 16.9115 61.2839 16.6875C61.7371 16.4583 62.2996 16.3438 62.9714 16.3438C63.8464 16.3438 64.6537 16.5729 65.3933 17.0313C66.1329 17.4844 66.724 18.1693 67.1667 19.0859C67.6095 19.9974 67.8308 21.1406 67.8308 22.5156C67.8308 23.8542 67.6147 24.9844 67.1824 25.9062C66.7553 26.8229 66.172 27.5182 65.4324 27.9922C64.698 28.4609 63.8751 28.6953 62.9636 28.6953C62.3178 28.6953 61.7683 28.5885 61.3152 28.375C60.8673 28.1615 60.5001 27.8932 60.2136 27.5703C59.9272 27.2422 59.7084 26.9115 59.5574 26.5781H59.4089V28.5H56.1277ZM59.3855 22.5C59.3855 23.2135 59.4845 23.8359 59.6824 24.3672C59.8803 24.8984 60.1667 25.3125 60.5417 25.6094C60.9167 25.901 61.3725 26.0469 61.9089 26.0469C62.4506 26.0469 62.9089 25.8984 63.2839 25.6016C63.6589 25.2995 63.9428 24.8828 64.1355 24.3516C64.3334 23.8151 64.4324 23.1979 64.4324 22.5C64.4324 21.8073 64.336 21.1979 64.1433 20.6719C63.9506 20.1458 63.6667 19.7344 63.2917 19.4375C62.9167 19.1406 62.4558 18.9922 61.9089 18.9922C61.3673 18.9922 60.9089 19.1354 60.5339 19.4219C60.1641 19.7083 59.8803 20.1146 59.6824 20.6406C59.4845 21.1667 59.3855 21.7865 59.3855 22.5Z" fill="black"/>
<path fill-rule="evenodd" clip-rule="evenodd" d="M101.795 10.3678C101.592 9.75223 100.959 9.25471 99.1659 8.28496C98.5108 7.93521 97.5081 7.39377 96.6007 6.90379C96.2173 6.69675 95.8509 6.49891 95.5349 6.32859C94.9477 6.00743 94.2802 5.64517 93.7068 5.33398C93.2413 5.08137 92.8378 4.86241 92.5896 4.7264C92.0358 4.43125 91.0423 3.89157 90.3917 3.52896C86.8222 1.56417 84.2726 0.214949 83.9473 0.105325C83.7325 0.0366424 81.9623 0.00680769 73.9031 0V40H83.666L84.0792 39.8145C84.299 39.7217 85.7408 38.9544 87.2882 38.1195C87.819 37.8315 88.5006 37.4631 89.243 37.0619C90.6522 36.3003 92.2805 35.4203 93.5128 34.7465C100.555 30.9396 101.3 30.5547 101.595 29.9501C101.645 29.8489 101.681 29.7416 101.733 29.611C101.909 29.1641 101.909 28.987 101.9 19.9051C101.891 13.5638 101.865 10.5618 101.795 10.3678ZM89.5301 23.0741C90.5587 22.5871 91.2005 21.8434 91.5434 20.7367C92.1852 18.656 90.7522 16.4071 88.5542 16.0441C85.9694 15.628 83.7187 18.231 84.4924 20.7367C84.8353 21.8434 85.4771 22.5871 86.5057 23.0741C87.0508 23.3397 87.1651 23.3574 88.0179 23.3574C88.8707 23.3574 88.985 23.3397 89.5301 23.0741Z" fill="white"/>
</svg>
