<svg width="20" height="21" viewBox="0 0 20 21" fill="none" xmlns="http://www.w3.org/2000/svg">
<path fill-rule="evenodd" clip-rule="evenodd" d="M6.1 19.712C7.31667 20.2373 8.61667 20.5 10 20.5C11.3833 20.5 12.6833 20.2373 13.9 19.712C15.1167 19.1873 16.175 18.475 17.075 17.575C17.975 16.675 18.6873 15.6167 19.212 14.4C19.7373 13.1833 20 11.8833 20 10.5C20 9.11667 19.7373 7.81667 19.212 6.6C18.6873 5.38333 17.975 4.325 17.075 3.425C16.175 2.525 15.1167 1.81233 13.9 1.287C12.6833 0.762333 11.3833 0.5 10 0.5C8.61667 0.5 7.31667 0.762333 6.1 1.287C4.88333 1.81233 3.825 2.525 2.925 3.425C2.025 4.325 1.31267 5.38333 0.788 6.6C0.262667 7.81667 0 9.11667 0 10.5C0 11.8833 0.262667 13.1833 0.788 14.4C1.31267 15.6167 2.025 16.675 2.925 17.575C3.825 18.475 4.88333 19.1873 6.1 19.712ZM15.675 16.175C14.125 17.725 12.2333 18.5 10 18.5C7.76667 18.5 5.875 17.725 4.325 16.175C2.775 14.625 2 12.7333 2 10.5C2 8.26667 2.775 6.375 4.325 4.825C5.875 3.275 7.76667 2.5 10 2.5C12.2333 2.5 14.125 3.275 15.675 4.825C17.225 6.375 18 8.26667 18 10.5C18 12.7333 17.225 14.625 15.675 16.175ZM15.2964 7.69647L14.6035 7.00358C14.4083 6.80832 14.0917 6.80832 13.8964 7.00358L8.95353 11.9465C8.75827 12.1417 8.44168 12.1417 8.24642 11.9465L6.10353 9.80358C5.90827 9.60832 5.59168 9.60832 5.39642 9.80358L4.70353 10.4965C4.50827 10.6917 4.50827 11.0083 4.70353 11.2036L8.24642 14.7465C8.44168 14.9417 8.75827 14.9417 8.95353 14.7465L15.2964 8.40358C15.4917 8.20832 15.4917 7.89173 15.2964 7.69647Z" fill="white"/>
</svg>
