<svg width="85" height="85" viewBox="0 0 85 85" fill="none" xmlns="http://www.w3.org/2000/svg">
<path d="M0 0V85H85V0H0ZM45.5357 66.0268C45.5357 74.301 40.6482 78.3347 33.5731 78.3347C27.1829 78.3347 23.4737 75.0258 21.5915 71.0319L28.0955 67.095C29.3497 69.3205 30.3021 71.2027 33.04 71.2027C35.3167 71.2027 37.1875 70.1762 37.1875 66.1824V39.4643H45.5357V66.0268ZM64.3856 78.145C56.969 78.145 52.1763 74.7981 49.8369 70.1762L56.3504 66.4062C58.058 69.2029 60.2874 71.0661 64.2243 71.0661C67.5333 71.0661 69.4552 69.6013 69.4552 67.3189C69.4552 64.581 67.4763 63.6115 63.824 62.0064L61.828 61.1488C56.064 58.6974 52.2427 55.6162 52.2427 49.1103C52.2427 43.1204 56.8058 38.7452 63.9378 38.7452C69.017 38.7452 72.6655 40.3238 75.2933 44.9457L69.0625 48.9509C67.6926 46.4977 66.2165 45.5357 63.9284 45.5357C61.589 45.5357 60.1052 47.0194 60.1052 48.9509C60.1052 51.3472 61.589 52.3167 65.0117 53.8004L67.0077 54.6561C73.7982 57.5666 77.6213 60.5378 77.6213 67.2088C77.6232 74.3997 71.9749 78.145 64.3856 78.145Z" fill="white"/>
</svg>
