<svg width="677" height="798" viewBox="0 0 677 798" fill="none" xmlns="http://www.w3.org/2000/svg">
<path d="M100.758 19.2057C141.328 22.9973 167.386 26.8147 206.008 39.6887C236.837 49.9653 276.577 54.4402 311.515 60.4294C329.329 63.4833 348.355 64.4229 366.394 65.0671C388.5 65.8566 412.484 62 434.284 66.2265C485.271 76.1118 536.894 96.6889 578.052 128.32C631.483 169.382 670.715 224.874 675.057 293.473C678.403 346.339 645.717 407.937 606.78 442.007C547.303 494.049 471.861 497.43 396.023 498.947C350.512 499.857 307.044 506.487 263.463 519.688C224.313 531.547 195.355 551.304 162.98 575.211C134.892 595.953 104.063 613.733 71.3864 626.097C42.0938 637.18 7.83206 636.749 -23.0418 635.114C-67.869 632.741 -123.369 626.766 -162.687 602.651C-195.811 582.335 -221.103 548.688 -243.074 517.627C-259.8 493.979 -275.568 466.131 -258.919 439.688C-249.01 423.95 -235.902 410.682 -226.455 394.342C-213.861 372.557 -203.485 351.571 -193.863 328.255C-167.321 263.942 -165.687 192.376 -135.377 129.35C-123.941 105.571 -106.037 85.8032 -86.0369 68.803C-63.1863 49.3801 -32.1633 27.9972 -2.68759 20.3651C29.3813 12.0616 68.2993 16.1721 100.758 19.2057Z" fill="white" stroke="white" stroke-width="3" stroke-linecap="round"/>
<path d="M353.059 252.693C353.059 253.588 352.147 254.314 351.022 254.314C349.896 254.314 348.984 253.588 348.984 252.693C348.984 251.798 349.896 251.072 351.022 251.072C352.147 251.072 353.059 251.798 353.059 252.693Z" fill="black"/>
<path d="M106.011 164.109C106.939 164.615 107.175 165.625 106.538 166.363C105.901 167.101 104.633 167.289 103.705 166.782C102.777 166.276 102.541 165.266 103.178 164.528C103.815 163.79 105.083 163.602 106.011 164.109Z" fill="black"/>
<path d="M329.017 410.86C329.663 411.593 329.44 412.604 328.519 413.119C327.598 413.633 326.327 413.456 325.681 412.723C325.034 411.99 325.257 410.979 326.178 410.465C327.099 409.95 328.37 410.127 329.017 410.86Z" fill="black"/>
<path d="M-11.1946 485.598C-10.4094 486.668 -10.6797 488.144 -11.7984 488.894C-12.917 489.645 -14.4603 489.387 -15.2455 488.317C-16.0307 487.247 -15.7603 485.772 -14.6417 485.021C-13.5231 484.27 -11.9797 484.528 -11.1946 485.598Z" fill="black"/>
<path d="M-84.5498 590.437C-83.7646 591.507 -84.0349 592.982 -85.1536 593.733C-86.2722 594.484 -87.8155 594.226 -88.6007 593.156C-89.3859 592.086 -89.1156 590.61 -87.9969 589.86C-86.8783 589.109 -85.335 589.367 -84.5498 590.437Z" fill="black"/>
<path d="M119.023 398.991C119.731 399.956 119.488 401.288 118.478 401.966C117.469 402.643 116.076 402.41 115.368 401.445C114.659 400.479 114.903 399.148 115.913 398.47C116.922 397.793 118.314 398.026 119.023 398.991Z" fill="black"/>
<path d="M496.78 116.926C496.642 115.814 497.562 114.684 498.834 114.403C500.107 114.123 501.25 114.797 501.388 115.909C501.526 117.021 500.607 118.151 499.334 118.431C498.062 118.712 496.918 118.038 496.78 116.926Z" fill="black"/>
<path d="M570.844 230.73C570.308 229.697 570.779 228.405 571.895 227.843C573.012 227.282 574.351 227.665 574.887 228.698C575.422 229.731 574.952 231.024 573.835 231.585C572.719 232.146 571.379 231.764 570.844 230.73Z" fill="black"/>
<path d="M508.957 338.115C508.421 337.082 508.892 335.79 510.008 335.228C511.124 334.667 512.464 335.05 512.999 336.083C513.535 337.116 513.064 338.409 511.948 338.97C510.832 339.531 509.492 339.149 508.957 338.115Z" fill="black"/>
<path d="M329.644 270.024C329.108 268.991 329.579 267.698 330.695 267.137C331.812 266.576 333.151 266.959 333.687 267.992C334.222 269.025 333.752 270.318 332.635 270.879C331.519 271.44 330.18 271.057 329.644 270.024Z" fill="black"/>
<path d="M259.006 142.488C258.47 141.455 258.94 140.162 260.057 139.601C261.173 139.04 262.513 139.423 263.048 140.456C263.584 141.489 263.113 142.782 261.997 143.343C260.881 143.904 259.541 143.522 259.006 142.488Z" fill="black"/>
<path d="M188.367 14.9524C187.831 13.9191 188.302 12.6266 189.418 12.0655C190.535 11.5043 191.874 11.887 192.41 12.9203C192.946 13.9535 192.475 15.2461 191.359 15.8072C190.242 16.3684 188.903 15.9857 188.367 14.9524Z" fill="black"/>
<path d="M350.342 186.763C350.342 187.659 349.43 188.385 348.305 188.385C347.179 188.385 346.267 187.659 346.267 186.763C346.267 185.868 347.179 185.142 348.305 185.142C349.43 185.142 350.342 185.868 350.342 186.763Z" fill="black"/>
<path d="M36.1499 128.587C37.0778 129.093 37.3138 130.102 36.6771 130.841C36.0403 131.579 34.7719 131.767 33.844 131.26C32.9161 130.753 32.6801 129.744 33.3169 129.006C33.9536 128.268 35.222 128.08 36.1499 128.587Z" fill="black"/>
<path d="M279.186 358.139C279.833 358.872 279.61 359.883 278.689 360.397C277.768 360.912 276.497 360.735 275.851 360.002C275.204 359.269 275.427 358.258 276.348 357.743C277.269 357.229 278.54 357.406 279.186 358.139Z" fill="black"/>
<path d="M74.2167 277.051C74.7627 277.67 74.5747 278.524 73.7968 278.958C73.0189 279.393 71.9457 279.243 71.3997 278.624C70.8536 278.005 71.0416 277.152 71.8195 276.717C72.5974 276.283 73.6707 276.432 74.2167 277.051Z" fill="black"/>
<path d="M-71.7103 408.646C-70.9251 409.715 -71.1954 411.191 -72.3141 411.942C-73.4327 412.693 -74.976 412.434 -75.7612 411.365C-76.5464 410.295 -76.2761 408.819 -75.1574 408.068C-74.0388 407.317 -72.4955 407.576 -71.7103 408.646Z" fill="black"/>
<path d="M-145.066 513.484C-144.28 514.554 -144.551 516.03 -145.669 516.781C-146.788 517.532 -148.331 517.273 -149.117 516.203C-149.902 515.134 -149.631 513.658 -148.513 512.907C-147.394 512.156 -145.851 512.415 -145.066 513.484Z" fill="black"/>
<path d="M64.4196 329.557C65.1281 330.522 64.8842 331.854 63.8748 332.531C62.8655 333.209 61.4729 332.976 60.7645 332.01C60.056 331.045 60.2999 329.714 61.3092 329.036C62.3186 328.359 63.7111 328.592 64.4196 329.557Z" fill="black"/>
<path d="M510.015 198.152C509.877 197.039 510.796 195.91 512.069 195.629C513.341 195.348 514.485 196.022 514.623 197.135C514.761 198.247 513.841 199.376 512.569 199.657C511.296 199.938 510.153 199.264 510.015 198.152Z" fill="black"/>
<path d="M612.987 305.458C612.451 304.425 612.922 303.132 614.038 302.571C615.154 302.01 616.494 302.393 617.029 303.426C617.565 304.459 617.094 305.752 615.978 306.313C614.862 306.874 613.522 306.491 612.987 305.458Z" fill="black"/>
<path d="M551.099 412.843C550.564 411.81 551.034 410.517 552.151 409.956C553.267 409.395 554.607 409.778 555.142 410.811C555.678 411.844 555.207 413.137 554.091 413.698C552.975 414.259 551.635 413.876 551.099 412.843Z" fill="black"/>
<path d="M371.787 344.752C371.251 343.719 371.722 342.426 372.838 341.865C373.954 341.304 375.294 341.686 375.83 342.72C376.365 343.753 375.895 345.045 374.778 345.607C373.662 346.168 372.322 345.785 371.787 344.752Z" fill="black"/>
<path d="M301.148 217.216C300.613 216.183 301.083 214.89 302.2 214.329C303.316 213.768 304.655 214.151 305.191 215.184C305.727 216.217 305.256 217.51 304.14 218.071C303.023 218.632 301.684 218.249 301.148 217.216Z" fill="black"/>
<path d="M230.51 89.6801C229.974 88.6468 230.445 87.3543 231.561 86.7931C232.678 86.232 234.017 86.6147 234.553 87.6479C235.089 88.6812 234.618 89.9737 233.501 90.5349C232.385 91.096 231.046 90.7133 230.51 89.6801Z" fill="black"/>
<path d="M313.665 206.218C313.665 207.113 312.753 207.839 311.627 207.839C310.502 207.839 309.59 207.113 309.59 206.218C309.59 205.323 310.502 204.597 311.627 204.597C312.753 204.597 313.665 205.323 313.665 206.218Z" fill="black"/>
<path d="M35.558 163.656C36.4859 164.162 36.7219 165.172 36.0851 165.91C35.4484 166.648 34.18 166.836 33.2521 166.329C32.3242 165.823 32.0882 164.813 32.7249 164.075C33.3617 163.337 34.6301 163.149 35.558 163.656Z" fill="black"/>
<path d="M263.214 390.828C263.86 391.561 263.638 392.572 262.716 393.086C261.795 393.601 260.525 393.423 259.878 392.691C259.232 391.958 259.454 390.947 260.375 390.432C261.296 389.918 262.567 390.095 263.214 390.828Z" fill="black"/>
<path d="M60.7272 304.658C61.2732 305.277 61.0852 306.131 60.3073 306.565C59.5294 306.999 58.4562 306.85 57.9102 306.231C57.3642 305.612 57.5521 304.758 58.33 304.324C59.1079 303.889 60.1812 304.039 60.7272 304.658Z" fill="black"/>
<path d="M-91.1085 456.359C-90.3233 457.428 -90.5936 458.904 -91.7122 459.655C-92.8309 460.406 -94.3742 460.147 -95.1594 459.078C-95.9446 458.008 -95.6742 456.532 -94.5556 455.781C-93.437 455.03 -91.8936 455.289 -91.1085 456.359Z" fill="black"/>
<path d="M-164.464 561.197C-163.679 562.267 -163.949 563.743 -165.067 564.494C-166.186 565.245 -167.729 564.986 -168.515 563.916C-169.3 562.847 -169.029 561.371 -167.911 560.62C-166.792 559.869 -165.249 560.128 -164.464 561.197Z" fill="black"/>
<path d="M46.9167 372.608C47.6252 373.574 47.3813 374.905 46.3719 375.583C45.3626 376.26 43.9701 376.027 43.2616 375.062C42.5531 374.097 42.797 372.765 43.8064 372.088C44.8157 371.41 46.2083 371.643 46.9167 372.608Z" fill="black"/>
<path d="M548.488 164.83C548.35 163.718 549.27 162.589 550.542 162.308C551.815 162.027 552.958 162.701 553.096 163.813C553.234 164.926 552.315 166.055 551.042 166.336C549.77 166.617 548.626 165.943 548.488 164.83Z" fill="black"/>
<path d="M637.732 264.718C637.196 263.685 637.667 262.392 638.783 261.831C639.9 261.27 641.239 261.653 641.775 262.686C642.31 263.719 641.84 265.012 640.723 265.573C639.607 266.134 638.268 265.752 637.732 264.718Z" fill="black"/>
<path d="M575.845 372.103C575.309 371.07 575.78 369.778 576.896 369.216C578.013 368.655 579.352 369.038 579.888 370.071C580.423 371.104 579.953 372.397 578.836 372.958C577.72 373.519 576.38 373.137 575.845 372.103Z" fill="black"/>
<path d="M396.532 304.012C395.996 302.979 396.467 301.686 397.583 301.125C398.7 300.564 400.039 300.947 400.575 301.98C401.111 303.013 400.64 304.306 399.523 304.867C398.407 305.428 397.068 305.045 396.532 304.012Z" fill="black"/>
<path d="M325.894 176.476C325.358 175.443 325.829 174.15 326.945 173.589C328.061 173.028 329.401 173.411 329.936 174.444C330.472 175.477 330.001 176.77 328.885 177.331C327.769 177.892 326.429 177.509 325.894 176.476Z" fill="black"/>
<path d="M255.255 48.9403C254.719 47.9071 255.19 46.6146 256.307 46.0534C257.423 45.4922 258.762 45.8749 259.298 46.9082C259.834 47.9415 259.363 49.234 258.247 49.7952C257.13 50.3563 255.791 49.9736 255.255 48.9403Z" fill="black"/>
<path d="M297.364 233.238C297.364 234.134 296.451 234.86 295.326 234.86C294.201 234.86 293.288 234.134 293.288 233.238C293.288 232.343 294.201 231.617 295.326 231.617C296.451 231.617 297.364 232.343 297.364 233.238Z" fill="black"/>
<path d="M54.3359 189.638C55.2638 190.145 55.4998 191.154 54.8631 191.892C54.2263 192.631 52.9579 192.818 52.0301 192.312C51.1022 191.805 50.8661 190.796 51.5029 190.058C52.1397 189.32 53.408 189.132 54.3359 189.638Z" fill="black"/>
<path d="M269.382 420.395C270.028 421.128 269.806 422.139 268.885 422.653C267.964 423.168 266.693 422.991 266.046 422.258C265.4 421.525 265.622 420.514 266.543 420C267.465 419.485 268.735 419.662 269.382 420.395Z" fill="black"/>
<path d="M65.9364 329.628C66.4825 330.247 66.2945 331.101 65.5166 331.535C64.7387 331.97 63.6654 331.82 63.1194 331.201C62.5734 330.582 62.7614 329.729 63.5393 329.294C64.3172 328.86 65.3904 329.009 65.9364 329.628Z" fill="black"/>
<path d="M-83.6173 499.515C-82.8321 500.585 -83.1024 502.061 -84.2211 502.812C-85.3397 503.563 -86.883 503.304 -87.6682 502.234C-88.4534 501.165 -88.1831 499.689 -87.0644 498.938C-85.9458 498.187 -84.4025 498.446 -83.6173 499.515Z" fill="black"/>
<path d="M-156.972 604.354C-156.187 605.424 -156.458 606.9 -157.576 607.651C-158.695 608.401 -160.238 608.143 -161.023 607.073C-161.809 606.004 -161.538 604.528 -160.42 603.777C-159.301 603.026 -157.758 603.285 -156.972 604.354Z" fill="black"/>
<path d="M53.676 411.549C54.3845 412.514 54.1406 413.846 53.1312 414.523C52.1219 415.201 50.7294 414.967 50.0209 414.002C49.3124 413.037 49.5563 411.705 50.5657 411.028C51.575 410.35 52.9676 410.584 53.676 411.549Z" fill="black"/>
<path d="M562.756 127.195C562.618 126.083 563.537 124.953 564.81 124.672C566.082 124.392 567.226 125.066 567.364 126.178C567.502 127.29 566.582 128.42 565.31 128.7C564.037 128.981 562.894 128.307 562.756 127.195Z" fill="black"/>
<path d="M637.736 225.408C637.2 224.375 637.671 223.082 638.787 222.521C639.904 221.96 641.243 222.343 641.779 223.376C642.315 224.409 641.844 225.702 640.727 226.263C639.611 226.824 638.272 226.442 637.736 225.408Z" fill="black"/>
<path d="M575.849 332.793C575.313 331.76 575.784 330.468 576.9 329.906C578.017 329.345 579.356 329.728 579.892 330.761C580.427 331.794 579.957 333.087 578.84 333.648C577.724 334.209 576.385 333.827 575.849 332.793Z" fill="black"/>
<path d="M396.536 264.702C396 263.669 396.471 262.376 397.587 261.815C398.704 261.254 400.043 261.637 400.579 262.67C401.115 263.703 400.644 264.996 399.528 265.557C398.411 266.118 397.072 265.735 396.536 264.702Z" fill="black"/>
<path d="M325.898 137.166C325.362 136.133 325.833 134.84 326.949 134.279C328.066 133.718 329.405 134.101 329.941 135.134C330.476 136.167 330.006 137.46 328.889 138.021C327.773 138.582 326.433 138.199 325.898 137.166Z" fill="black"/>
<path d="M255.259 9.63034C254.724 8.59708 255.194 7.30455 256.311 6.74339C257.427 6.18223 258.766 6.56494 259.302 7.5982C259.838 8.63146 259.367 9.92399 258.251 10.4851C257.134 11.0463 255.795 10.6636 255.259 9.63034Z" fill="black"/>
<path d="M391.095 221.349C391.095 222.245 390.183 222.971 389.058 222.971C387.932 222.971 387.02 222.245 387.02 221.349C387.02 220.454 387.932 219.728 389.058 219.728C390.183 219.728 391.095 220.454 391.095 221.349Z" fill="black"/>
<path d="M95.0508 121.421C95.9787 121.928 96.2147 122.937 95.578 123.675C94.9412 124.414 93.6728 124.601 92.7449 124.095C91.817 123.588 91.581 122.579 92.2178 121.841C92.8546 121.103 94.123 120.915 95.0508 121.421Z" fill="black"/>
<path d="M337.516 367.819C338.163 368.552 337.94 369.563 337.019 370.078C336.098 370.592 334.827 370.415 334.181 369.682C333.534 368.949 333.757 367.938 334.678 367.424C335.599 366.909 336.87 367.086 337.516 367.819Z" fill="black"/>
<path d="M123.478 285.227C124.024 285.845 123.836 286.699 123.058 287.134C122.28 287.568 121.207 287.419 120.661 286.8C120.115 286.181 120.303 285.327 121.081 284.893C121.859 284.458 122.932 284.608 123.478 285.227Z" fill="black"/>
<path d="M-0.871862 422.775C-0.0866867 423.845 -0.357018 425.321 -1.47565 426.072C-2.59428 426.823 -4.1376 426.564 -4.92278 425.494C-5.70795 424.425 -5.43764 422.949 -4.31901 422.198C-3.20038 421.447 -1.65704 421.706 -0.871862 422.775Z" fill="black"/>
<path d="M-74.2271 527.614C-73.4419 528.684 -73.7122 530.16 -74.8309 530.911C-75.9495 531.661 -77.4928 531.403 -78.278 530.333C-79.0632 529.263 -78.7929 527.788 -77.6742 527.037C-76.5556 526.286 -75.0123 526.544 -74.2271 527.614Z" fill="black"/>
<path d="M128.337 342.306C129.046 343.272 128.802 344.603 127.792 345.281C126.783 345.958 125.39 345.725 124.682 344.76C123.974 343.795 124.217 342.463 125.227 341.785C126.236 341.108 127.629 341.341 128.337 342.306Z" fill="black"/>
<path d="M458.603 165.356C458.465 164.243 459.385 163.114 460.657 162.833C461.93 162.552 463.073 163.226 463.211 164.339C463.349 165.451 462.43 166.58 461.157 166.861C459.885 167.142 458.741 166.468 458.603 165.356Z" fill="black"/>
<path d="M551.864 285.867C551.329 284.834 551.799 283.541 552.916 282.98C554.032 282.419 555.372 282.802 555.907 283.835C556.443 284.868 555.972 286.161 554.856 286.722C553.739 287.283 552.4 286.9 551.864 285.867Z" fill="black"/>
<path d="M489.977 393.252C489.442 392.219 489.912 390.926 491.029 390.365C492.145 389.804 493.484 390.187 494.02 391.22C494.556 392.253 494.085 393.546 492.969 394.107C491.852 394.668 490.513 394.286 489.977 393.252Z" fill="black"/>
<path d="M310.664 325.161C310.129 324.128 310.599 322.835 311.716 322.274C312.832 321.713 314.172 322.096 314.707 323.129C315.243 324.162 314.772 325.455 313.656 326.016C312.54 326.577 311.2 326.194 310.664 325.161Z" fill="black"/>
<path d="M136.68 223.631C136.145 222.598 136.615 221.305 137.732 220.744C138.848 220.183 140.188 220.566 140.723 221.599C141.259 222.632 140.788 223.925 139.672 224.486C138.556 225.047 137.216 224.664 136.68 223.631Z" fill="black"/>
<path d="M136.68 223.631C136.145 222.598 136.615 221.305 137.732 220.744C138.848 220.183 140.188 220.566 140.723 221.599C141.259 222.632 140.788 223.925 139.672 224.486C138.556 225.047 137.216 224.664 136.68 223.631Z" fill="black"/>
<path d="M-54.2117 156.687C-54.7474 155.654 -54.2767 154.362 -53.1603 153.8C-52.0439 153.239 -50.7046 153.622 -50.1689 154.655C-49.6332 155.689 -50.1039 156.981 -51.2203 157.542C-52.3367 158.103 -53.676 157.721 -54.2117 156.687Z" fill="black"/>
<path d="M319.357 457.153C318.821 456.12 319.292 454.828 320.408 454.266C321.524 453.705 322.864 454.088 323.399 455.121C323.935 456.154 323.464 457.447 322.348 458.008C321.232 458.569 319.892 458.187 319.357 457.153Z" fill="black"/>
<path d="M169.388 70.0893C168.852 69.056 169.323 67.7635 170.439 67.2023C171.555 66.6412 172.895 67.0239 173.431 68.0571C173.966 69.0904 173.496 70.3829 172.379 70.9441C171.263 71.5053 169.923 71.1225 169.388 70.0893Z" fill="black"/>
<path d="M-21.5045 3.14546C-22.0402 2.1122 -21.5695 0.819673 -20.4531 0.258514C-19.3367 -0.302646 -17.9974 0.0800661 -17.4617 1.11332C-16.9259 2.14658 -17.3967 3.43911 -18.5131 4.00027C-19.6295 4.56143 -20.9688 4.17872 -21.5045 3.14546Z" fill="black"/>
<path d="M352.064 303.611C351.528 302.578 351.999 301.286 353.115 300.724C354.232 300.163 355.571 300.546 356.107 301.579C356.642 302.612 356.172 303.905 355.055 304.466C353.939 305.027 352.6 304.645 352.064 303.611Z" fill="black"/>
<path d="M416.906 263.501C416.906 264.397 415.993 265.122 414.868 265.122C413.742 265.122 412.83 264.397 412.83 263.501C412.83 262.606 413.742 261.88 414.868 261.88C415.993 261.88 416.906 262.606 416.906 263.501Z" fill="black"/>
<path d="M226.013 196.557C226.013 197.453 225.101 198.179 223.976 198.179C222.85 198.179 221.938 197.453 221.938 196.557C221.938 195.662 222.85 194.936 223.976 194.936C225.101 194.936 226.013 195.662 226.013 196.557Z" fill="black"/>
<path d="M599.582 497.023C599.582 497.919 598.669 498.644 597.544 498.644C596.419 498.644 595.506 497.919 595.506 497.023C595.506 496.128 596.419 495.402 597.544 495.402C598.669 495.402 599.582 496.128 599.582 497.023Z" fill="black"/>
<path d="M153.337 128.34C154.265 128.846 154.501 129.856 153.864 130.594C153.228 131.332 151.959 131.52 151.031 131.013C150.103 130.507 149.867 129.497 150.504 128.759C151.141 128.021 152.409 127.833 153.337 128.34Z" fill="black"/>
<path d="M-37.555 61.3959C-36.6271 61.9026 -36.391 62.9117 -37.0278 63.65C-37.6646 64.3883 -38.933 64.576 -39.8608 64.0694C-40.7887 63.5628 -41.0247 62.5536 -40.388 61.8154C-39.7512 61.0771 -38.4828 60.8893 -37.555 61.3959Z" fill="black"/>
<path d="M336.013 361.862C336.941 362.368 337.177 363.378 336.541 364.116C335.904 364.854 334.635 365.042 333.708 364.535C332.78 364.029 332.544 363.02 333.18 362.281C333.817 361.543 335.086 361.355 336.013 361.862Z" fill="black"/>
<path d="M389.079 390.523C389.725 391.255 389.503 392.267 388.582 392.781C387.661 393.295 386.39 393.118 385.743 392.385C385.097 391.653 385.319 390.641 386.24 390.127C387.161 389.613 388.432 389.79 389.079 390.523Z" fill="black"/>
<path d="M198.187 323.579C198.833 324.312 198.611 325.323 197.689 325.837C196.768 326.351 195.497 326.174 194.851 325.442C194.204 324.709 194.427 323.698 195.348 323.183C196.269 322.669 197.54 322.846 198.187 323.579Z" fill="black"/>
<path d="M571.755 624.045C572.401 624.778 572.179 625.789 571.258 626.303C570.337 626.817 569.066 626.64 568.419 625.907C567.773 625.175 567.995 624.163 568.916 623.649C569.838 623.135 571.108 623.312 571.755 624.045Z" fill="black"/>
<path d="M-23.8685 237.456C-23.3225 238.075 -23.5105 238.929 -24.2884 239.363C-25.0663 239.798 -26.1395 239.648 -26.6855 239.029C-27.2315 238.41 -27.0435 237.557 -26.2656 237.122C-25.4878 236.688 -24.4145 236.837 -23.8685 237.456Z" fill="black"/>
<path d="M349.7 537.922C350.246 538.541 350.058 539.395 349.28 539.829C348.502 540.264 347.429 540.114 346.883 539.495C346.337 538.876 346.525 538.022 347.303 537.588C348.081 537.154 349.154 537.303 349.7 537.922Z" fill="black"/>
<path d="M61.7477 455.913C62.5328 456.983 62.2625 458.459 61.1439 459.209C60.0253 459.96 58.4819 459.702 57.6968 458.632C56.9116 457.562 57.1819 456.087 58.3005 455.336C59.4191 454.585 60.9625 454.843 61.7477 455.913Z" fill="black"/>
<path d="M-129.145 388.969C-128.359 390.039 -128.63 391.515 -129.748 392.266C-130.867 393.016 -132.41 392.758 -133.195 391.688C-133.981 390.619 -133.71 389.143 -132.592 388.392C-131.473 387.641 -129.93 387.9 -129.145 388.969Z" fill="black"/>
<path d="M244.424 689.435C245.209 690.505 244.939 691.981 243.82 692.731C242.701 693.482 241.158 693.224 240.373 692.154C239.588 691.084 239.858 689.609 240.977 688.858C242.095 688.107 243.639 688.365 244.424 689.435Z" fill="black"/>
<path d="M-11.6076 560.752C-10.8224 561.822 -11.0927 563.297 -12.2113 564.048C-13.33 564.799 -14.8733 564.541 -15.6585 563.471C-16.4436 562.401 -16.1733 560.925 -15.0547 560.175C-13.9361 559.424 -12.3927 559.682 -11.6076 560.752Z" fill="black"/>
<path d="M-202.5 493.808C-201.715 494.878 -201.985 496.354 -203.104 497.104C-204.222 497.855 -205.765 497.597 -206.551 496.527C-207.336 495.457 -207.066 493.982 -205.947 493.231C-204.828 492.48 -203.285 492.738 -202.5 493.808Z" fill="black"/>
<path d="M171.069 794.274C171.854 795.344 171.583 796.819 170.465 797.57C169.346 798.321 167.803 798.063 167.018 796.993C166.232 795.923 166.503 794.447 167.621 793.697C168.74 792.946 170.283 793.204 171.069 794.274Z" fill="black"/>
<path d="M184.839 372.206C185.547 373.172 185.303 374.503 184.294 375.181C183.285 375.858 181.892 375.625 181.184 374.66C180.475 373.695 180.719 372.363 181.728 371.686C182.738 371.008 184.13 371.241 184.839 372.206Z" fill="black"/>
<path d="M422.922 119.432C422.784 118.32 423.703 117.191 424.976 116.91C426.248 116.629 427.392 117.303 427.53 118.415C427.668 119.528 426.748 120.657 425.476 120.938C424.203 121.219 423.06 120.545 422.922 119.432Z" fill="black"/>
<path d="M501.039 250.095C500.503 249.061 500.974 247.769 502.091 247.208C503.207 246.647 504.546 247.029 505.082 248.063C505.618 249.096 505.147 250.388 504.031 250.95C502.914 251.511 501.575 251.128 501.039 250.095Z" fill="black"/>
<path d="M439.152 357.48C438.616 356.446 439.087 355.154 440.203 354.593C441.32 354.032 442.659 354.414 443.195 355.448C443.731 356.481 443.26 357.773 442.143 358.335C441.027 358.896 439.688 358.513 439.152 357.48Z" fill="black"/>
<path d="M259.839 289.389C259.304 288.355 259.774 287.063 260.891 286.502C262.007 285.94 263.347 286.323 263.882 287.356C264.418 288.39 263.947 289.682 262.831 290.243C261.714 290.805 260.375 290.422 259.839 289.389Z" fill="black"/>
<path d="M189.201 161.853C188.665 160.819 189.136 159.527 190.252 158.966C191.369 158.405 192.708 158.787 193.244 159.821C193.78 160.854 193.309 162.146 192.192 162.707C191.076 163.269 189.737 162.886 189.201 161.853Z" fill="black"/>
<path d="M118.563 34.3168C118.027 33.2835 118.498 31.991 119.614 31.4298C120.73 30.8687 122.07 31.2514 122.605 32.2846C123.141 33.3179 122.67 34.6104 121.554 35.1716C120.438 35.7328 119.098 35.35 118.563 34.3168Z" fill="black"/>
<path d="M473.96 286.198C473.96 287.094 473.047 287.819 471.922 287.819C470.797 287.819 469.884 287.094 469.884 286.198C469.884 285.303 470.797 284.577 471.922 284.577C473.047 284.577 473.96 285.303 473.96 286.198Z" fill="black"/>
<path d="M209.141 103.754C210.069 104.26 210.305 105.269 209.668 106.008C209.031 106.746 207.763 106.934 206.835 106.427C205.907 105.921 205.671 104.911 206.308 104.173C206.945 103.435 208.213 103.247 209.141 103.754Z" fill="black"/>
<path d="M452.166 383.021C452.813 383.754 452.59 384.765 451.669 385.279C450.748 385.793 449.477 385.616 448.831 384.884C448.184 384.151 448.407 383.14 449.328 382.625C450.249 382.111 451.52 382.288 452.166 383.021Z" fill="black"/>
<path d="M220.303 298.064C220.849 298.683 220.661 299.537 219.883 299.972C219.105 300.406 218.032 300.257 217.486 299.638C216.94 299.019 217.128 298.165 217.906 297.73C218.684 297.296 219.757 297.446 220.303 298.064Z" fill="black"/>
<path d="M138.364 444.963C139.149 446.033 138.879 447.509 137.76 448.26C136.642 449.01 135.098 448.752 134.313 447.682C133.528 446.613 133.798 445.137 134.917 444.386C136.036 443.635 137.579 443.894 138.364 444.963Z" fill="black"/>
<path d="M65.0088 549.802C65.794 550.872 65.5237 552.348 64.4051 553.098C63.2864 553.849 61.7431 553.591 60.9579 552.521C60.1728 551.451 60.4431 549.976 61.5617 549.225C62.6803 548.474 64.2237 548.732 65.0088 549.802Z" fill="black"/>
<path d="M253.97 362.326C254.678 363.292 254.434 364.623 253.425 365.301C252.415 365.978 251.023 365.745 250.314 364.78C249.606 363.815 249.85 362.483 250.859 361.806C251.868 361.128 253.261 361.361 253.97 362.326Z" fill="black"/>
<path d="M354.911 105.474C354.773 104.362 355.692 103.232 356.965 102.952C358.237 102.671 359.381 103.345 359.519 104.457C359.657 105.569 358.737 106.699 357.464 106.98C356.192 107.26 355.049 106.586 354.911 105.474Z" fill="black"/>
<path d="M430.859 252.352C430.324 251.319 430.794 250.026 431.911 249.465C433.027 248.904 434.366 249.287 434.902 250.32C435.438 251.353 434.967 252.646 433.851 253.207C432.734 253.768 431.395 253.386 430.859 252.352Z" fill="black"/>
<path d="M368.972 359.737C368.436 358.704 368.907 357.412 370.023 356.85C371.14 356.289 372.479 356.672 373.015 357.705C373.551 358.738 373.08 360.031 371.963 360.592C370.847 361.153 369.508 360.771 368.972 359.737Z" fill="black"/>
<path d="M189.659 291.646C189.124 290.613 189.594 289.32 190.711 288.759C191.827 288.198 193.166 288.581 193.702 289.614C194.238 290.647 193.767 291.94 192.651 292.501C191.534 293.062 190.195 292.679 189.659 291.646Z" fill="black"/>
<path d="M119.021 164.11C118.485 163.077 118.956 161.784 120.072 161.223C121.189 160.662 122.528 161.045 123.064 162.078C123.599 163.111 123.129 164.404 122.012 164.965C120.896 165.526 119.557 165.143 119.021 164.11Z" fill="black"/>
<path d="M51.3739 27.2052C50.8382 26.172 51.3089 24.8794 52.4253 24.3183C53.5417 23.7571 54.881 24.1398 55.4167 25.1731C55.9525 26.2064 55.4817 27.4989 54.3653 28.06C53.249 28.6212 51.9096 28.2385 51.3739 27.2052Z" fill="black"/>
<path d="M280.827 387.48C280.827 387.48 276.445 384.225 265.505 383.158L270.535 399.626C279.012 392.628 280.827 387.48 280.827 387.48ZM264.124 382.909C251.617 381.688 231.131 383.129 199.848 394.272C198.844 394.606 197.915 394.93 197.057 395.242C196.199 395.555 195.413 395.855 194.696 396.14C193.978 396.425 193.33 396.695 192.747 396.947C192.163 397.199 191.646 397.434 191.192 397.647C190.737 397.861 190.345 398.053 190.014 398.222C189.681 398.39 189.409 398.536 189.194 398.654C188.762 398.891 188.56 399.021 188.56 399.021C188.56 399.021 188.587 398.979 188.688 398.881C188.788 398.784 188.961 398.631 189.251 398.411C189.396 398.3 189.57 398.173 189.779 398.027C189.987 397.881 190.231 397.717 190.515 397.532C190.799 397.347 191.123 397.142 191.493 396.915C191.863 396.688 192.279 396.439 192.747 396.167C193.214 395.895 193.697 395.629 194.185 395.37C194.672 395.113 195.164 394.864 195.648 394.627C196.134 394.39 196.611 394.164 197.071 393.952C197.252 393.869 197.413 393.799 197.587 393.722L167.144 386.301L159.297 388.588L180.32 404.834L187.753 429.168L179.395 454.388L187.238 452.09L208.25 428.829C208.058 428.862 207.88 428.895 207.679 428.928C207.18 429.01 206.657 429.089 206.122 429.163C205.589 429.238 205.042 429.306 204.494 429.365C203.945 429.424 203.397 429.472 202.857 429.507C202.317 429.543 201.834 429.568 201.401 429.587C200.967 429.606 200.583 429.617 200.245 429.622C199.907 429.627 199.612 429.627 199.358 429.622C199.103 429.618 198.888 429.609 198.706 429.599C198.343 429.578 198.114 429.548 197.976 429.524C197.838 429.499 197.792 429.48 197.792 429.48C197.792 429.48 198.033 429.474 198.522 429.429C198.767 429.407 199.074 429.375 199.443 429.33C199.813 429.285 200.245 429.225 200.741 429.148C201.237 429.071 201.797 428.977 202.421 428.86C203.045 428.744 203.734 428.605 204.488 428.441C205.242 428.277 206.061 428.087 206.947 427.866C207.832 427.646 208.783 427.396 209.802 427.112C242.017 418.871 259.832 408.611 269.529 400.604L264.124 382.909ZM245.021 398.345C245.024 398.354 245.026 398.362 245.028 398.371C245.034 398.386 245.038 398.401 245.042 398.416C245.047 398.431 245.052 398.445 245.056 398.46C245.06 398.476 245.064 398.49 245.068 398.505C245.073 398.52 245.077 398.535 245.081 398.55C245.085 398.565 245.09 398.58 245.094 398.595C245.098 398.61 245.102 398.626 245.106 398.641C245.11 398.656 245.114 398.671 245.117 398.686C245.122 398.7 245.126 398.715 245.13 398.73C245.134 398.746 245.137 398.76 245.141 398.775C245.145 398.791 245.149 398.806 245.152 398.821C245.156 398.836 245.16 398.851 245.163 398.867C245.167 398.882 245.17 398.897 245.174 398.912C245.177 398.927 245.181 398.942 245.184 398.958C245.188 398.973 245.191 398.988 245.194 399.003C245.198 399.018 245.201 399.034 245.205 399.049C245.208 399.064 245.211 399.079 245.215 399.094C245.218 399.11 245.221 399.125 245.224 399.14C245.227 399.155 245.23 399.17 245.233 399.186C245.236 399.201 245.239 399.216 245.242 399.232C245.245 399.247 245.247 399.262 245.251 399.277C245.254 399.293 245.256 399.308 245.259 399.323C245.262 399.339 245.264 399.354 245.267 399.369C245.269 399.385 245.273 399.4 245.275 399.416C245.277 399.431 245.28 399.446 245.283 399.462C245.285 399.477 245.288 399.493 245.29 399.508C245.293 399.523 245.295 399.539 245.297 399.554C245.3 399.569 245.302 399.585 245.304 399.6C245.307 399.615 245.309 399.631 245.311 399.647C245.313 399.661 245.315 399.678 245.317 399.692C245.32 399.708 245.321 399.723 245.324 399.739C245.325 399.755 245.328 399.77 245.329 399.785C245.331 399.801 245.333 399.816 245.335 399.832C245.337 399.847 245.338 399.862 245.34 399.878C245.342 399.894 245.343 399.909 245.345 399.924C245.347 399.94 245.349 399.955 245.35 399.971C245.351 399.986 245.353 400.002 245.355 400.018C245.356 400.033 245.357 400.048 245.359 400.064C245.36 400.079 245.361 400.095 245.363 400.11C245.364 400.126 245.366 400.141 245.366 400.157C245.368 400.172 245.369 400.188 245.37 400.203C245.372 400.219 245.372 400.235 245.373 400.25C245.374 400.266 245.375 400.281 245.376 400.297C245.377 400.313 245.378 400.328 245.379 400.343C245.38 400.359 245.38 400.374 245.381 400.39C245.382 400.405 245.383 400.421 245.384 400.436C245.384 400.452 245.385 400.467 245.386 400.483C245.386 400.499 245.387 400.514 245.387 400.53C245.388 400.545 245.388 400.561 245.388 400.577C245.389 400.592 245.389 400.608 245.39 400.623C245.391 400.639 245.391 400.654 245.391 400.67C245.391 400.686 245.391 400.701 245.391 400.717C245.392 400.733 245.392 400.747 245.392 400.764C245.392 400.779 245.392 400.794 245.392 400.81C245.392 400.826 245.392 400.841 245.392 400.857C245.392 400.872 245.392 400.888 245.392 400.903C245.391 400.919 245.391 400.935 245.391 400.95C245.39 400.966 245.39 400.981 245.39 400.997C245.39 401.012 245.389 401.028 245.388 401.043C245.388 401.059 245.388 401.074 245.387 401.09C245.387 401.106 245.386 401.121 245.385 401.137C245.385 401.152 245.384 401.168 245.383 401.184C245.383 401.199 245.382 401.214 245.381 401.23C245.381 401.245 245.379 401.261 245.379 401.277C245.378 401.292 245.377 401.308 245.376 401.323C245.375 401.339 245.374 401.354 245.373 401.369C245.372 401.385 245.37 401.401 245.37 401.417C245.368 401.432 245.367 401.447 245.366 401.463C245.365 401.478 245.363 401.494 245.363 401.51C245.361 401.525 245.36 401.541 245.359 401.556C245.357 401.571 245.356 401.587 245.354 401.602C245.353 401.618 245.351 401.634 245.35 401.648C245.348 401.664 245.346 401.68 245.345 401.695C245.343 401.711 245.341 401.727 245.34 401.742C245.337 401.757 245.336 401.773 245.334 401.788C245.333 401.804 245.33 401.819 245.329 401.834C245.327 401.85 245.324 401.866 245.323 401.881C245.321 401.896 245.318 401.911 245.316 401.928C245.314 401.943 245.313 401.958 245.31 401.973C245.307 401.989 245.306 402.005 245.304 402.02C245.301 402.035 245.298 402.051 245.296 402.066C245.294 402.081 245.292 402.097 245.289 402.112C245.287 402.127 245.284 402.143 245.282 402.158C245.279 402.174 245.277 402.188 245.274 402.204C245.271 402.219 245.268 402.235 245.266 402.25C245.263 402.265 245.261 402.281 245.258 402.297C245.255 402.312 245.253 402.327 245.25 402.342C245.246 402.357 245.243 402.373 245.241 402.388C245.238 402.404 245.235 402.418 245.231 402.434C245.228 402.449 245.226 402.464 245.222 402.48C245.219 402.495 245.216 402.51 245.213 402.525C245.21 402.541 245.207 402.556 245.203 402.571C245.2 402.586 245.196 402.601 245.193 402.617C245.19 402.632 245.187 402.647 245.183 402.662C245.18 402.677 245.175 402.692 245.172 402.708C245.169 402.723 245.165 402.738 245.162 402.754C245.158 402.769 245.155 402.783 245.151 402.799C245.147 402.814 245.143 402.829 245.139 402.844C245.135 402.859 245.131 402.874 245.128 402.889C245.124 402.904 245.12 402.92 245.116 402.935C245.112 402.95 245.108 402.964 245.104 402.979C245.1 402.994 245.096 403.009 245.092 403.025C245.088 403.04 245.083 403.055 245.079 403.069C245.075 403.084 245.071 403.099 245.066 403.115C245.062 403.129 245.058 403.144 245.053 403.16C245.049 403.174 245.044 403.189 245.04 403.204C245.036 403.219 245.031 403.234 245.026 403.249C245.022 403.263 245.018 403.278 245.013 403.293C245.008 403.308 245.003 403.323 244.999 403.338C244.994 403.353 244.989 403.367 244.985 403.382C244.98 403.397 244.974 403.412 244.97 403.427C244.965 403.442 244.96 403.456 244.955 403.471C244.95 403.485 244.945 403.501 244.94 403.515C244.935 403.53 244.93 403.545 244.925 403.559C244.92 403.574 244.914 403.589 244.91 403.603C244.904 403.618 244.899 403.633 244.894 403.647C244.888 403.662 244.883 403.676 244.877 403.691C244.872 403.706 244.867 403.72 244.861 403.735C244.856 403.749 244.85 403.764 244.845 403.779C244.839 403.793 244.833 403.808 244.828 403.822C244.822 403.836 244.817 403.851 244.811 403.866C244.805 403.88 244.8 403.894 244.793 403.909C244.788 403.923 244.782 403.938 244.776 403.952C244.77 403.966 244.765 403.981 244.758 403.995C244.753 404.01 244.746 404.025 244.74 404.039C244.734 404.054 244.729 404.068 244.722 404.082C244.716 404.096 244.71 404.11 244.704 404.125C244.697 404.139 244.691 404.153 244.685 404.167C244.679 404.182 244.672 404.196 244.666 404.21C244.66 404.224 244.654 404.238 244.647 404.253C244.641 404.267 244.634 404.281 244.628 404.295C244.621 404.309 244.614 404.324 244.607 404.337C244.601 404.352 244.595 404.366 244.588 404.38C244.581 404.394 244.574 404.408 244.568 404.422C244.561 404.436 244.554 404.45 244.547 404.463C244.541 404.478 244.534 404.492 244.527 404.506C244.52 404.52 244.513 404.534 244.506 404.548C244.499 404.562 244.492 404.576 244.485 404.59C244.478 404.603 244.471 404.617 244.464 404.631C244.456 404.645 244.449 404.658 244.442 404.672C244.435 404.686 244.428 404.7 244.42 404.713C244.413 404.727 244.406 404.741 244.398 404.755C244.391 404.769 244.384 404.782 244.376 404.796C244.369 404.809 244.361 404.823 244.354 404.837C244.347 404.851 244.338 404.864 244.331 404.878C244.324 404.892 244.316 404.905 244.308 404.919C244.301 404.932 244.293 404.946 244.285 404.959C244.278 404.973 244.269 404.986 244.262 405C244.254 405.013 244.246 405.026 244.238 405.04C244.23 405.053 244.222 405.067 244.214 405.08C244.206 405.093 244.198 405.107 244.19 405.12C244.183 405.133 244.174 405.147 244.166 405.16C244.158 405.173 244.149 405.186 244.141 405.2C244.134 405.213 244.125 405.226 244.117 405.239C244.108 405.253 244.1 405.266 244.092 405.278C244.083 405.292 244.075 405.305 244.066 405.318C244.058 405.332 244.05 405.344 244.041 405.357C244.033 405.37 244.025 405.384 244.015 405.396C244.007 405.41 243.999 405.422 243.99 405.435C243.981 405.448 243.973 405.461 243.964 405.474C243.955 405.487 243.946 405.5 243.937 405.513C243.929 405.526 243.92 405.539 243.911 405.551C243.903 405.564 243.893 405.577 243.884 405.59C243.876 405.602 243.867 405.615 243.857 405.628C243.849 405.641 243.84 405.653 243.831 405.666C243.821 405.678 243.813 405.691 243.803 405.704C243.794 405.716 243.785 405.729 243.776 405.742C243.767 405.754 243.757 405.766 243.748 405.779C243.739 405.791 243.729 405.804 243.72 405.816C243.711 405.829 243.701 405.841 243.692 405.853C243.682 405.866 243.673 405.879 243.663 405.891C243.654 405.903 243.645 405.916 243.635 405.928C243.625 405.94 243.616 405.952 243.606 405.964C243.597 405.977 243.587 405.989 243.578 406.001C243.567 406.013 243.557 406.026 243.548 406.038C243.539 406.05 243.528 406.062 243.519 406.074C243.509 406.086 243.499 406.098 243.489 406.11C243.479 406.122 243.469 406.134 243.459 406.146C243.449 406.158 243.44 406.17 243.429 406.182C243.419 406.194 243.409 406.206 243.399 406.217C243.388 406.23 243.379 406.241 243.369 406.253C243.358 406.265 243.348 406.277 243.338 406.288C243.327 406.3 243.317 406.311 243.308 406.323C243.297 406.335 243.286 406.347 243.276 406.358C243.266 406.37 243.255 406.381 243.245 406.393C243.235 406.404 243.224 406.416 243.214 406.428C243.204 406.439 243.192 406.45 243.182 406.462C243.172 406.473 243.161 406.485 243.15 406.497C243.14 406.507 243.129 406.519 243.118 406.531C243.108 406.542 243.097 406.553 243.086 406.565C243.076 406.576 243.064 406.587 243.054 406.598C243.043 406.609 243.032 406.62 243.021 406.631C243.011 406.642 243 406.654 242.989 406.664C242.978 406.676 242.966 406.687 242.956 406.698C242.945 406.709 242.933 406.72 242.922 406.731C242.912 406.742 242.9 406.753 242.89 406.764C242.878 406.774 242.867 406.786 242.856 406.797C242.845 406.807 242.833 406.818 242.822 406.829C242.811 406.84 242.8 406.85 242.788 406.861C242.777 406.872 242.766 406.883 242.755 406.893C242.743 406.904 242.732 406.914 242.721 406.924C242.709 406.936 242.698 406.946 242.686 406.957C242.674 406.967 242.663 406.977 242.651 406.988C242.64 406.998 242.629 407.009 242.617 407.019C242.605 407.03 242.593 407.04 242.582 407.051C242.57 407.06 242.559 407.071 242.547 407.081C242.535 407.091 242.524 407.102 242.512 407.111C242.5 407.122 242.488 407.132 242.476 407.142C242.464 407.152 242.453 407.163 242.44 407.172C242.429 407.182 242.417 407.193 242.405 407.203C242.393 407.213 242.381 407.223 242.369 407.233C242.357 407.243 242.345 407.252 242.333 407.262C242.321 407.272 242.309 407.282 242.297 407.292C242.285 407.302 242.273 407.312 242.261 407.321C242.248 407.331 242.236 407.34 242.224 407.35C242.212 407.359 242.199 407.369 242.188 407.379C242.175 407.388 242.163 407.398 242.15 407.408C242.138 407.417 242.126 407.426 242.113 407.436C242.101 407.446 242.088 407.455 242.076 407.464C242.064 407.473 242.051 407.483 242.039 407.492C242.026 407.502 242.014 407.511 242.001 407.52C241.988 407.529 241.976 407.539 241.963 407.548C241.951 407.557 241.938 407.566 241.925 407.575C241.913 407.584 241.9 407.593 241.887 407.602C241.875 407.611 241.862 407.621 241.85 407.63C241.837 407.639 241.824 407.647 241.811 407.656C241.799 407.665 241.786 407.674 241.773 407.683C241.761 407.691 241.747 407.701 241.734 407.709C241.722 407.718 241.709 407.726 241.695 407.735C241.682 407.744 241.67 407.753 241.657 407.761C241.644 407.77 241.631 407.778 241.618 407.787C241.605 407.795 241.591 407.804 241.579 407.812C241.566 407.821 241.552 407.829 241.539 407.838C241.526 407.846 241.513 407.855 241.5 407.863C241.487 407.871 241.473 407.879 241.461 407.888C241.447 407.896 241.434 407.904 241.42 407.912C241.408 407.921 241.394 407.928 241.381 407.937C241.367 407.945 241.354 407.953 241.341 407.96C241.328 407.969 241.315 407.977 241.301 407.985C241.287 407.993 241.274 408 241.26 408.008C241.247 408.017 241.233 408.024 241.22 408.032C241.207 408.04 241.193 408.047 241.18 408.055C241.166 408.063 241.153 408.07 241.139 408.078C241.125 408.086 241.112 408.093 241.098 408.101C241.084 408.108 241.071 408.116 241.057 408.123C241.043 408.131 241.03 408.138 241.016 408.146C241.002 408.153 240.988 408.161 240.975 408.168C240.961 408.175 240.947 408.182 240.934 408.19C240.92 408.197 240.906 408.204 240.892 408.212C240.878 408.219 240.865 408.226 240.851 408.233C240.837 408.24 240.823 408.247 240.809 408.254C240.796 408.261 240.781 408.268 240.768 408.275C240.753 408.282 240.739 408.288 240.725 408.296C240.712 408.302 240.698 408.309 240.684 408.316C240.67 408.323 240.655 408.329 240.641 408.336C240.627 408.343 240.614 408.349 240.599 408.356C240.585 408.363 240.571 408.369 240.557 408.376C240.543 408.382 240.529 408.389 240.515 408.395C240.5 408.402 240.486 408.409 240.472 408.415C240.458 408.421 240.443 408.427 240.429 408.434C240.415 408.441 240.401 408.446 240.386 408.453C240.372 408.459 240.358 408.465 240.344 408.472C240.329 408.478 240.315 408.483 240.301 408.49C240.286 408.496 240.272 408.502 240.258 408.508C240.243 408.515 240.229 408.52 240.214 408.526C240.2 408.532 240.186 408.538 240.171 408.543C240.157 408.55 240.142 408.555 240.128 408.561C240.114 408.567 240.099 408.572 240.085 408.578C240.071 408.584 240.056 408.589 240.041 408.595C240.027 408.602 240.012 408.606 239.997 408.611C239.983 408.618 239.968 408.622 239.954 408.628C239.939 408.632 239.925 408.639 239.91 408.644C239.895 408.649 239.88 408.655 239.866 408.66C239.851 408.664 239.836 408.67 239.822 408.675C239.807 408.679 239.793 408.686 239.778 408.691C239.763 408.695 239.748 408.702 239.733 408.707C239.719 408.711 239.704 408.718 239.69 408.722C239.675 408.727 239.661 408.733 239.646 408.738C239.631 408.742 239.616 408.747 239.601 408.752C239.586 408.756 239.571 408.761 239.556 408.765C239.542 408.77 239.527 408.774 239.512 408.779C239.503 408.782 239.494 408.784 239.486 408.787C239.471 408.791 239.456 408.796 239.441 408.8C239.427 408.805 239.411 408.81 239.396 408.814C239.382 408.819 239.367 408.823 239.352 408.828C239.337 408.832 239.322 408.837 239.308 408.841C239.293 408.846 239.277 408.848 239.262 408.853C239.247 408.857 239.232 408.86 239.217 408.864C239.202 408.869 239.186 408.871 239.172 408.876C239.157 408.88 239.141 408.883 239.126 408.887C239.111 408.892 239.096 408.895 239.081 408.9C239.066 408.904 239.051 408.907 239.036 408.91C239.021 408.915 239.005 408.917 238.99 408.921C238.975 408.926 238.96 408.928 238.945 408.932C238.929 408.935 238.915 408.94 238.899 408.943C238.884 408.945 238.869 408.95 238.854 408.953C238.839 408.956 238.823 408.96 238.808 408.963C238.793 408.965 238.778 408.969 238.762 408.972C238.747 408.975 238.732 408.979 238.716 408.982C238.701 408.984 238.686 408.988 238.671 408.991C238.655 408.993 238.64 408.997 238.625 409C238.609 409.003 238.594 409.006 238.579 409.009C238.563 409.011 238.548 409.015 238.533 409.018C238.518 409.02 238.502 409.022 238.487 409.026C238.471 409.028 238.457 409.03 238.441 409.034C238.425 409.036 238.411 409.038 238.395 409.041C238.379 409.044 238.364 409.046 238.349 409.048C238.334 409.051 238.318 409.053 238.302 409.055C238.287 409.057 238.272 409.06 238.256 409.062C238.241 409.065 238.226 409.067 238.21 409.068C238.195 409.071 238.179 409.073 238.164 409.075C238.148 409.077 238.133 409.08 238.118 409.081C238.102 409.084 238.087 409.085 238.071 409.087C238.055 409.089 238.04 409.091 238.025 409.093C238.01 409.095 237.994 409.097 237.979 409.098C237.963 409.1 237.948 409.102 237.932 409.103C237.916 409.105 237.901 409.107 237.886 409.108C237.87 409.11 237.855 409.111 237.839 409.112C237.824 409.115 237.809 409.116 237.793 409.117C237.777 409.118 237.761 409.12 237.746 409.121C237.731 409.123 237.715 409.123 237.7 409.125C237.684 409.126 237.669 409.127 237.653 409.129C237.638 409.129 237.622 409.13 237.606 409.132C237.591 409.133 237.575 409.134 237.56 409.135C237.544 409.136 237.528 409.137 237.513 409.137C237.497 409.138 237.482 409.139 237.466 409.14C237.451 409.141 237.435 409.141 237.42 409.142C237.405 409.143 237.389 409.144 237.373 409.144C237.357 409.145 237.342 409.146 237.327 409.146C237.311 409.146 237.296 409.147 237.28 409.147C237.264 409.148 237.249 409.148 237.233 409.148C237.218 409.148 237.202 409.149 237.186 409.149C237.171 409.149 237.155 409.15 237.139 409.15C237.124 409.15 237.109 409.15 237.093 409.15C237.077 409.15 237.062 409.15 237.046 409.15C237.031 409.151 237.015 409.151 237 409.151C236.984 409.15 236.968 409.15 236.953 409.15C236.937 409.15 236.922 409.149 236.906 409.149C236.891 409.149 236.876 409.149 236.859 409.148C236.844 409.148 236.829 409.148 236.813 409.147C236.797 409.147 236.782 409.147 236.766 409.146C236.751 409.145 236.736 409.145 236.719 409.144C236.704 409.143 236.688 409.143 236.673 409.142C236.657 409.141 236.642 409.141 236.626 409.139C236.61 409.139 236.595 409.138 236.579 409.138C236.563 409.136 236.549 409.135 236.533 409.135C236.518 409.134 236.502 409.133 236.487 409.132C236.471 409.131 236.455 409.13 236.44 409.128C236.424 409.127 236.409 409.126 236.394 409.125C236.378 409.124 236.362 409.122 236.347 409.121C236.331 409.12 236.315 409.119 236.3 409.117C236.284 409.116 236.269 409.114 236.254 409.113C236.238 409.111 236.222 409.109 236.207 409.108C236.191 409.107 236.176 409.105 236.16 409.103C236.145 409.101 236.13 409.1 236.114 409.098C236.099 409.096 236.083 409.094 236.068 409.093C236.053 409.091 236.037 409.089 236.022 409.088C236.006 409.085 235.99 409.083 235.975 409.081C235.959 409.079 235.944 409.077 235.929 409.075C235.914 409.073 235.898 409.071 235.883 409.069C235.867 409.067 235.852 409.065 235.837 409.062C235.821 409.06 235.806 409.057 235.79 409.055C235.775 409.053 235.76 409.05 235.744 409.048C235.728 409.046 235.714 409.044 235.698 409.041C235.683 409.038 235.667 409.036 235.652 409.033C235.636 409.03 235.621 409.028 235.606 409.025C235.59 409.023 235.575 409.02 235.56 409.017C235.545 409.014 235.529 409.012 235.514 409.008C235.499 409.006 235.483 409.003 235.468 409C235.453 408.997 235.437 408.994 235.423 408.991C235.407 408.988 235.392 408.985 235.377 408.982C235.361 408.979 235.346 408.975 235.33 408.972C235.316 408.969 235.301 408.966 235.285 408.962C235.27 408.959 235.255 408.956 235.24 408.952C235.224 408.949 235.209 408.945 235.194 408.942C235.179 408.939 235.164 408.935 235.149 408.932C235.133 408.928 235.118 408.924 235.103 408.921C235.088 408.917 235.073 408.914 235.058 408.91C235.042 408.906 235.027 408.902 235.012 408.898C234.997 408.895 234.982 408.891 234.967 408.887C234.952 408.883 234.937 408.88 234.922 408.875C234.907 408.871 234.892 408.867 234.877 408.863C234.861 408.859 234.846 408.855 234.831 408.851C234.817 408.847 234.802 408.842 234.786 408.838C234.771 408.834 234.757 408.83 234.742 408.826C234.727 408.821 234.712 408.817 234.697 408.813C234.682 408.808 234.667 408.804 234.652 408.799C234.637 408.795 234.622 408.79 234.607 408.786C234.593 408.781 234.577 408.777 234.563 408.772C234.547 408.767 234.533 408.763 234.518 408.758C234.503 408.753 234.488 408.748 234.473 408.744C234.459 408.739 234.444 408.734 234.429 408.729C234.415 408.724 234.399 408.719 234.385 408.715C234.37 408.709 234.356 408.704 234.341 408.7C234.326 408.694 234.311 408.689 234.297 408.684C234.282 408.679 234.267 408.674 234.252 408.669C234.238 408.663 234.223 408.659 234.209 408.653C234.194 408.647 234.179 408.642 234.164 408.636C234.15 408.632 234.135 408.626 234.12 408.621C234.106 408.615 234.092 408.609 234.077 408.605C234.063 408.598 234.048 408.593 234.034 408.587C234.019 408.581 234.005 408.576 233.99 408.57C233.975 408.565 233.961 408.559 233.947 408.553C233.932 408.547 233.917 408.542 233.903 408.536C233.889 408.529 233.874 408.524 233.86 408.517C233.846 408.512 233.831 408.506 233.817 408.5C233.803 408.494 233.788 408.488 233.774 408.482C233.76 408.475 233.745 408.469 233.732 408.463C233.717 408.457 233.702 408.451 233.688 408.444C233.674 408.439 233.66 408.432 233.646 408.426C233.631 408.419 233.617 408.413 233.603 408.407C233.589 408.4 233.575 408.394 233.561 408.387C233.546 408.381 233.533 408.374 233.518 408.368C233.504 408.36 233.49 408.354 233.476 408.347C233.462 408.341 233.448 408.334 233.434 408.327C233.42 408.321 233.405 408.313 233.392 408.307C233.378 408.3 233.364 408.293 233.35 408.286C233.336 408.279 233.322 408.273 233.308 408.266C233.294 408.258 233.28 408.252 233.266 408.244C233.253 408.238 233.238 408.23 233.225 408.224C233.211 408.217 233.197 408.209 233.183 408.202C233.17 408.194 233.156 408.187 233.142 408.18C233.128 408.173 233.114 408.165 233.101 408.158C233.087 408.15 233.074 408.143 233.06 408.136C233.046 408.128 233.032 408.121 233.018 408.114C233.005 408.106 232.991 408.098 232.978 408.091C232.964 408.083 232.951 408.076 232.937 408.067C232.924 408.06 232.91 408.053 232.896 408.044C232.883 408.037 232.87 408.03 232.856 408.021C232.843 408.013 232.829 408.006 232.816 407.997C232.803 407.99 232.789 407.982 232.775 407.974C232.762 407.966 232.749 407.958 232.736 407.95C232.723 407.942 232.709 407.934 232.696 407.925C232.683 407.917 232.67 407.91 232.656 407.901C232.643 407.893 232.63 407.885 232.616 407.877C232.603 407.868 232.59 407.86 232.577 407.852C232.564 407.843 232.55 407.835 232.538 407.827C232.525 407.818 232.511 407.809 232.498 407.801C232.485 407.793 232.472 407.784 232.459 407.775C232.446 407.767 232.433 407.758 232.42 407.75C232.407 407.741 232.394 407.733 232.381 407.723C232.369 407.715 232.355 407.706 232.343 407.697C232.33 407.689 232.317 407.68 232.304 407.671C232.292 407.662 232.278 407.653 232.266 407.644C232.254 407.635 232.24 407.626 232.227 407.617C232.215 407.608 232.203 407.599 232.19 407.59C232.177 407.582 232.164 407.572 232.152 407.563C232.139 407.554 232.127 407.545 232.114 407.535C232.102 407.526 232.089 407.517 232.077 407.508C232.064 407.498 232.052 407.489 232.039 407.48C232.027 407.47 232.015 407.461 232.002 407.452C231.99 407.442 231.978 407.433 231.965 407.423C231.952 407.414 231.94 407.404 231.928 407.395C231.915 407.385 231.903 407.376 231.891 407.366C231.879 407.356 231.866 407.347 231.854 407.337C231.842 407.327 231.83 407.318 231.818 407.308C231.805 407.298 231.794 407.288 231.782 407.279C231.769 407.269 231.757 407.259 231.746 407.249C231.733 407.239 231.721 407.229 231.71 407.219C231.697 407.21 231.686 407.199 231.674 407.189C231.662 407.18 231.65 407.169 231.638 407.159C231.626 407.149 231.614 407.139 231.603 407.128C231.591 407.118 231.58 407.109 231.567 407.098C231.555 407.087 231.544 407.078 231.532 407.067C231.521 407.057 231.509 407.047 231.497 407.037C231.486 407.026 231.474 407.015 231.462 407.005C231.451 406.995 231.44 406.984 231.428 406.974C231.417 406.963 231.405 406.952 231.393 406.942C231.382 406.932 231.371 406.921 231.359 406.91C231.348 406.9 231.336 406.889 231.325 406.878C231.314 406.868 231.302 406.857 231.291 406.846C231.28 406.836 231.269 406.825 231.258 406.814C231.247 406.803 231.236 406.792 231.224 406.782C231.213 406.771 231.202 406.759 231.191 406.749C231.18 406.738 231.169 406.727 231.158 406.716C231.147 406.705 231.135 406.694 231.124 406.683C231.113 406.672 231.103 406.661 231.092 406.65C231.081 406.638 231.07 406.627 231.059 406.616C231.048 406.605 231.037 406.594 231.027 406.583C231.016 406.572 231.005 406.56 230.995 406.548C230.983 406.537 230.973 406.526 230.962 406.515C230.952 406.504 230.941 406.492 230.931 406.481C230.92 406.469 230.909 406.458 230.899 406.447C230.888 406.435 230.878 406.424 230.867 406.412C230.857 406.4 230.846 406.389 230.836 406.377C230.826 406.366 230.816 406.353 230.805 406.342C230.795 406.331 230.784 406.319 230.775 406.307C230.764 406.295 230.754 406.284 230.744 406.272C230.733 406.26 230.723 406.248 230.713 406.237C230.703 406.225 230.693 406.213 230.683 406.201C230.673 406.189 230.663 406.178 230.653 406.165C230.643 406.154 230.633 406.141 230.622 406.13C230.613 406.117 230.603 406.105 230.593 406.093C230.583 406.082 230.573 406.069 230.563 406.058C230.554 406.045 230.544 406.033 230.535 406.021C230.525 406.009 230.515 405.997 230.506 405.984C230.496 405.972 230.486 405.96 230.477 405.948C230.467 405.935 230.458 405.923 230.448 405.911C230.438 405.899 230.429 405.886 230.419 405.874C230.41 405.861 230.4 405.849 230.391 405.837C230.382 405.824 230.373 405.812 230.363 405.799C230.354 405.787 230.344 405.774 230.335 405.761C230.326 405.749 230.317 405.737 230.308 405.724C230.298 405.711 230.289 405.699 230.28 405.686C230.271 405.674 230.262 405.661 230.253 405.648C230.244 405.635 230.235 405.623 230.227 405.61C230.217 405.597 230.208 405.585 230.199 405.572C230.19 405.559 230.182 405.546 230.172 405.534C230.164 405.521 230.155 405.508 230.146 405.495C230.137 405.482 230.129 405.469 230.12 405.456C230.111 405.443 230.103 405.43 230.094 405.417C230.086 405.405 230.077 405.392 230.069 405.378C230.06 405.366 230.051 405.353 230.043 405.339C230.035 405.326 230.026 405.313 230.018 405.3C230.01 405.287 230.001 405.273 229.993 405.261C229.985 405.248 229.977 405.234 229.968 405.221C229.96 405.208 229.952 405.194 229.944 405.181C229.936 405.168 229.928 405.155 229.919 405.141C229.911 405.128 229.902 405.115 229.895 405.102C229.887 405.088 229.879 405.075 229.871 405.062C229.863 405.048 229.855 405.035 229.847 405.021C229.84 405.008 229.832 404.994 229.824 404.981C229.816 404.967 229.809 404.954 229.801 404.94C229.793 404.927 229.785 404.913 229.777 404.899C229.77 404.886 229.762 404.873 229.755 404.859C229.747 404.845 229.74 404.832 229.732 404.818C229.725 404.804 229.717 404.791 229.71 404.777C229.703 404.764 229.695 404.75 229.688 404.736C229.681 404.722 229.673 404.708 229.666 404.695C229.659 404.681 229.652 404.667 229.644 404.653C229.637 404.64 229.63 404.626 229.623 404.611C229.616 404.598 229.609 404.584 229.602 404.57C229.595 404.556 229.587 404.542 229.581 404.528C229.573 404.514 229.567 404.501 229.56 404.487C229.554 404.472 229.546 404.458 229.54 404.444C229.533 404.43 229.526 404.416 229.519 404.403C229.513 404.389 229.506 404.374 229.499 404.36C229.493 404.346 229.486 404.332 229.48 404.318C229.474 404.304 229.466 404.29 229.46 404.275C229.454 404.261 229.447 404.247 229.44 404.233C229.435 404.218 229.428 404.205 229.422 404.191C229.415 404.176 229.409 404.161 229.403 404.148C229.397 404.134 229.39 404.119 229.384 404.104C229.379 404.091 229.373 404.076 229.366 404.061C229.361 404.048 229.354 404.033 229.348 404.019C229.342 404.004 229.336 403.99 229.33 403.975C229.324 403.961 229.319 403.947 229.312 403.932C229.306 403.918 229.301 403.903 229.295 403.889C229.289 403.874 229.284 403.86 229.278 403.846C229.273 403.831 229.267 403.817 229.261 403.802C229.256 403.787 229.25 403.773 229.245 403.759C229.239 403.744 229.234 403.729 229.228 403.714C229.223 403.7 229.218 403.685 229.213 403.671C229.207 403.656 229.201 403.642 229.196 403.626C229.191 403.612 229.185 403.597 229.18 403.583C229.175 403.568 229.171 403.553 229.165 403.539C229.16 403.524 229.156 403.509 229.15 403.495C229.145 403.48 229.14 403.465 229.135 403.45C229.13 403.436 229.125 403.421 229.121 403.406C229.116 403.391 229.111 403.377 229.106 403.362C229.101 403.346 229.097 403.332 229.092 403.317C229.088 403.302 229.082 403.287 229.078 403.273C229.075 403.264 229.073 403.256 229.07 403.247C229.065 403.232 229.061 403.217 229.056 403.202C229.052 403.187 229.047 403.173 229.043 403.158C229.039 403.142 229.034 403.127 229.03 403.112C229.026 403.098 229.022 403.082 229.018 403.068C229.014 403.053 229.009 403.038 229.005 403.023C229.001 403.007 228.997 402.992 228.993 402.977C228.989 402.962 228.985 402.948 228.981 402.933C228.977 402.917 228.973 402.902 228.969 402.887C228.965 402.872 228.962 402.857 228.958 402.842C228.954 402.827 228.95 402.812 228.946 402.797C228.943 402.782 228.939 402.767 228.935 402.752C228.932 402.736 228.928 402.721 228.925 402.705C228.921 402.69 228.918 402.675 228.914 402.66C228.911 402.645 228.907 402.63 228.904 402.615C228.901 402.6 228.897 402.585 228.894 402.569C228.891 402.553 228.888 402.539 228.884 402.524C228.88 402.508 228.877 402.493 228.874 402.478C228.871 402.462 228.869 402.447 228.866 402.432C228.863 402.416 228.86 402.402 228.857 402.387C228.853 402.371 228.851 402.355 228.848 402.34C228.845 402.325 228.842 402.309 228.839 402.294C228.837 402.279 228.834 402.264 228.831 402.248C228.829 402.233 228.826 402.218 228.823 402.203C228.821 402.187 228.818 402.172 228.816 402.156C228.813 402.141 228.811 402.126 228.808 402.11C228.806 402.095 228.803 402.079 228.801 402.064C228.799 402.048 228.796 402.033 228.794 402.018C228.792 402.003 228.79 401.987 228.788 401.972C228.785 401.956 228.783 401.941 228.781 401.925C228.779 401.909 228.777 401.895 228.775 401.879C228.773 401.864 228.771 401.848 228.769 401.832C228.767 401.817 228.766 401.802 228.763 401.786C228.762 401.771 228.76 401.755 228.758 401.74C228.757 401.724 228.755 401.709 228.754 401.694C228.752 401.678 228.75 401.663 228.748 401.647C228.747 401.631 228.745 401.616 228.744 401.601C228.742 401.585 228.741 401.57 228.739 401.554C228.738 401.538 228.737 401.523 228.735 401.508C228.734 401.492 228.733 401.477 228.732 401.461C228.73 401.445 228.729 401.43 228.728 401.414C228.727 401.399 228.726 401.383 228.725 401.368C228.724 401.352 228.723 401.337 228.722 401.321C228.721 401.305 228.72 401.29 228.719 401.275C228.719 401.259 228.718 401.243 228.717 401.228C228.716 401.212 228.715 401.197 228.715 401.182C228.714 401.166 228.713 401.151 228.712 401.135C228.712 401.119 228.711 401.104 228.711 401.088C228.71 401.073 228.71 401.057 228.71 401.042C228.709 401.026 228.709 401.01 228.708 400.995C228.708 400.979 228.708 400.964 228.708 400.948C228.707 400.932 228.707 400.917 228.707 400.902C228.706 400.886 228.706 400.87 228.706 400.855C228.707 400.839 228.707 400.824 228.706 400.808C228.706 400.792 228.706 400.777 228.707 400.761C228.707 400.745 228.707 400.731 228.707 400.714C228.707 400.699 228.707 400.683 228.708 400.668C228.708 400.652 228.708 400.637 228.709 400.621C228.709 400.606 228.709 400.59 228.71 400.575C228.71 400.559 228.711 400.544 228.711 400.528C228.712 400.512 228.712 400.497 228.713 400.481C228.714 400.466 228.714 400.45 228.715 400.434C228.716 400.419 228.716 400.403 228.717 400.388C228.717 400.372 228.719 400.356 228.72 400.341C228.721 400.326 228.722 400.31 228.722 400.294C228.723 400.279 228.724 400.264 228.725 400.248C228.726 400.232 228.728 400.216 228.729 400.202C228.73 400.186 228.731 400.171 228.732 400.155C228.733 400.139 228.735 400.124 228.736 400.108C228.738 400.092 228.738 400.078 228.74 400.062C228.741 400.047 228.743 400.031 228.744 400.016C228.746 400 228.747 399.985 228.749 399.969C228.751 399.954 228.752 399.938 228.753 399.922C228.756 399.907 228.757 399.892 228.759 399.876C228.761 399.86 228.762 399.845 228.764 399.829C228.766 399.814 228.768 399.799 228.769 399.783C228.772 399.768 228.774 399.752 228.776 399.736C228.778 399.721 228.78 399.706 228.782 399.691C228.783 399.675 228.786 399.66 228.788 399.645C228.79 399.629 228.792 399.613 228.795 399.598C228.797 399.583 228.8 399.567 228.802 399.552C228.804 399.537 228.807 399.521 228.809 399.506C228.811 399.491 228.814 399.475 228.816 399.46C228.819 399.444 228.822 399.429 228.825 399.413C228.827 399.398 228.829 399.383 228.832 399.367C228.835 399.352 228.837 399.337 228.84 399.321C228.843 399.306 228.847 399.291 228.849 399.276C228.852 399.26 228.855 399.245 228.858 399.23C228.86 399.215 228.864 399.199 228.866 399.184C228.87 399.168 228.872 399.154 228.875 399.138C228.879 399.123 228.882 399.108 228.885 399.092C228.888 399.077 228.892 399.062 228.895 399.047C228.898 399.032 228.901 399.016 228.905 399.001C228.908 398.986 228.912 398.971 228.915 398.956C228.918 398.941 228.922 398.925 228.926 398.91C228.929 398.895 228.933 398.88 228.937 398.865C228.94 398.85 228.944 398.835 228.948 398.82C228.951 398.804 228.955 398.789 228.959 398.774C228.963 398.759 228.967 398.744 228.971 398.729C228.974 398.714 228.978 398.698 228.982 398.683C228.986 398.668 228.99 398.653 228.994 398.638C228.999 398.624 229.002 398.608 229.006 398.594C229.01 398.579 229.015 398.563 229.019 398.548C229.024 398.534 229.027 398.519 229.032 398.503C229.036 398.489 229.041 398.474 229.045 398.459C229.049 398.444 229.054 398.429 229.058 398.414C229.063 398.399 229.067 398.384 229.072 398.369C229.076 398.354 229.081 398.34 229.085 398.325C229.09 398.31 229.095 398.295 229.1 398.28C229.104 398.265 229.109 398.25 229.114 398.236C229.118 398.22 229.123 398.206 229.129 398.191C229.133 398.177 229.138 398.162 229.143 398.147C229.148 398.132 229.153 398.117 229.159 398.103C229.163 398.088 229.169 398.073 229.174 398.059C229.178 398.044 229.184 398.029 229.189 398.015C229.194 398 229.2 397.985 229.205 397.971C229.21 397.956 229.216 397.941 229.221 397.926C229.226 397.912 229.232 397.898 229.237 397.883C229.243 397.868 229.248 397.853 229.254 397.839C229.259 397.825 229.265 397.81 229.271 397.796C229.276 397.781 229.282 397.767 229.287 397.752C229.293 397.738 229.299 397.723 229.305 397.709C229.31 397.694 229.316 397.68 229.323 397.666C229.328 397.651 229.334 397.637 229.34 397.622C229.346 397.608 229.352 397.594 229.358 397.58C229.364 397.565 229.37 397.55 229.376 397.536C229.382 397.522 229.388 397.508 229.395 397.494C229.401 397.479 229.407 397.465 229.413 397.451C229.42 397.437 229.426 397.423 229.433 397.408C229.439 397.394 229.445 397.38 229.451 397.365C229.458 397.351 229.464 397.337 229.47 397.322C229.477 397.309 229.484 397.294 229.491 397.28C229.497 397.266 229.504 397.252 229.51 397.238C229.517 397.224 229.524 397.21 229.531 397.196C229.537 397.182 229.543 397.168 229.551 397.154C229.557 397.14 229.565 397.126 229.572 397.112C229.579 397.098 229.586 397.084 229.592 397.07C229.599 397.056 229.606 397.042 229.613 397.028C229.621 397.015 229.627 397.001 229.635 396.987C229.642 396.973 229.649 396.959 229.656 396.945C229.663 396.932 229.671 396.918 229.678 396.904C229.685 396.89 229.693 396.876 229.7 396.863C229.707 396.849 229.715 396.836 229.722 396.822C229.73 396.808 229.737 396.795 229.745 396.781C229.752 396.767 229.76 396.753 229.767 396.74C229.775 396.727 229.783 396.713 229.79 396.699C229.798 396.686 229.805 396.672 229.813 396.658C229.821 396.645 229.829 396.632 229.836 396.618C229.845 396.605 229.852 396.592 229.86 396.578C229.868 396.565 229.876 396.551 229.884 396.538C229.892 396.524 229.9 396.511 229.908 396.498C229.916 396.485 229.924 396.471 229.932 396.458C229.941 396.445 229.949 396.431 229.957 396.418C229.965 396.405 229.973 396.392 229.981 396.379C229.99 396.366 229.998 396.352 230.006 396.339C230.015 396.326 230.023 396.313 230.031 396.3C230.04 396.286 230.049 396.274 230.057 396.26C230.065 396.247 230.074 396.235 230.083 396.222C230.091 396.208 230.1 396.196 230.108 396.183C230.117 396.17 230.126 396.157 230.135 396.144C230.143 396.131 230.152 396.117 230.161 396.106C230.17 396.092 230.178 396.079 230.187 396.067C230.196 396.053 230.205 396.041 230.213 396.029C230.223 396.016 230.232 396.003 230.24 395.99C230.249 395.978 230.259 395.965 230.268 395.952C230.277 395.939 230.286 395.927 230.295 395.914C230.304 395.902 230.313 395.889 230.323 395.877C230.332 395.864 230.341 395.851 230.35 395.839C230.36 395.826 230.369 395.814 230.378 395.801C230.388 395.789 230.397 395.777 230.406 395.764C230.416 395.752 230.426 395.74 230.435 395.727C230.444 395.715 230.454 395.703 230.464 395.69C230.473 395.678 230.483 395.666 230.492 395.654C230.502 395.641 230.511 395.629 230.521 395.617C230.531 395.604 230.54 395.592 230.551 395.58C230.56 395.568 230.57 395.556 230.579 395.544C230.59 395.532 230.599 395.52 230.609 395.508C230.62 395.496 230.629 395.484 230.639 395.472C230.649 395.459 230.659 395.448 230.669 395.436C230.679 395.424 230.69 395.412 230.699 395.4C230.709 395.389 230.72 395.377 230.73 395.365C230.74 395.353 230.75 395.342 230.76 395.329C230.771 395.318 230.781 395.307 230.791 395.295C230.802 395.283 230.812 395.271 230.822 395.259C230.833 395.248 230.843 395.236 230.853 395.225C230.864 395.214 230.874 395.202 230.884 395.19C230.895 395.179 230.906 395.167 230.916 395.156C230.927 395.144 230.937 395.133 230.948 395.122C230.959 395.111 230.969 395.099 230.98 395.087C230.991 395.076 231.001 395.065 231.012 395.054C231.023 395.043 231.034 395.031 231.044 395.02C231.056 395.009 231.066 394.998 231.077 394.987C231.088 394.975 231.099 394.964 231.109 394.953C231.121 394.942 231.131 394.931 231.142 394.92C231.154 394.909 231.165 394.897 231.175 394.887C231.187 394.876 231.197 394.865 231.209 394.854C231.22 394.843 231.231 394.833 231.242 394.822C231.253 394.81 231.265 394.8 231.276 394.789C231.287 394.778 231.298 394.767 231.31 394.757C231.32 394.746 231.333 394.736 231.343 394.725C231.355 394.715 231.367 394.704 231.378 394.693C231.39 394.682 231.401 394.672 231.412 394.661C231.424 394.65 231.435 394.64 231.447 394.63C231.458 394.62 231.47 394.609 231.481 394.599C231.493 394.589 231.504 394.578 231.516 394.567C231.528 394.557 231.54 394.547 231.551 394.537C231.563 394.527 231.575 394.517 231.587 394.506C231.599 394.496 231.61 394.486 231.622 394.476C231.634 394.465 231.646 394.456 231.658 394.446C231.669 394.435 231.681 394.425 231.693 394.416C231.705 394.405 231.717 394.395 231.73 394.385C231.741 394.376 231.754 394.366 231.765 394.356C231.778 394.346 231.789 394.336 231.802 394.326C231.813 394.316 231.826 394.307 231.838 394.298C231.85 394.288 231.862 394.278 231.874 394.268C231.887 394.258 231.899 394.249 231.911 394.239C231.923 394.23 231.936 394.22 231.948 394.21C231.961 394.201 231.973 394.192 231.985 394.182C231.998 394.172 232.01 394.163 232.022 394.154C232.035 394.145 232.047 394.135 232.06 394.126C232.072 394.117 232.085 394.107 232.097 394.098C232.11 394.089 232.123 394.08 232.135 394.07C232.148 394.061 232.16 394.052 232.173 394.043C232.186 394.034 232.198 394.025 232.211 394.016C232.224 394.006 232.236 393.998 232.249 393.989C232.261 393.979 232.274 393.97 232.287 393.962C232.3 393.953 232.312 393.944 232.325 393.935C232.339 393.927 232.351 393.917 232.364 393.909C232.377 393.9 232.39 393.891 232.403 393.882C232.416 393.874 232.428 393.865 232.442 393.857C232.455 393.848 232.468 393.839 232.481 393.832C232.493 393.823 232.507 393.814 232.52 393.806C232.533 393.797 232.546 393.789 232.559 393.781C232.572 393.772 232.585 393.764 232.598 393.755C232.612 393.747 232.625 393.739 232.638 393.73C232.651 393.722 232.664 393.714 232.678 393.706C232.691 393.697 232.705 393.689 232.718 393.681C232.73 393.673 232.744 393.665 232.758 393.657C232.771 393.649 232.785 393.641 232.798 393.633C232.811 393.625 232.824 393.617 232.838 393.609C232.851 393.601 232.865 393.594 232.878 393.586C232.892 393.578 232.906 393.57 232.919 393.563C232.932 393.555 232.945 393.547 232.959 393.54C232.973 393.533 232.986 393.525 233 393.517C233.014 393.509 233.027 393.502 233.041 393.494C233.055 393.487 233.068 393.48 233.082 393.472C233.096 393.465 233.109 393.457 233.123 393.45C233.137 393.442 233.151 393.435 233.164 393.428C233.178 393.421 233.192 393.413 233.206 393.406C233.22 393.399 233.233 393.392 233.247 393.385C233.261 393.377 233.275 393.371 233.289 393.363C233.303 393.356 233.317 393.35 233.331 393.343C233.345 393.336 233.359 393.329 233.372 393.322C233.387 393.315 233.401 393.309 233.415 393.302C233.429 393.295 233.443 393.289 233.457 393.281C233.471 393.275 233.485 393.268 233.499 393.262C233.513 393.254 233.527 393.248 233.541 393.242C233.555 393.235 233.569 393.229 233.584 393.222C233.598 393.215 233.612 393.209 233.626 393.203C233.64 393.196 233.655 393.19 233.669 393.184C233.683 393.177 233.698 393.171 233.712 393.165C233.725 393.159 233.74 393.152 233.755 393.147C233.769 393.14 233.783 393.134 233.797 393.128C233.812 393.121 233.826 393.116 233.841 393.11C233.855 393.104 233.869 393.098 233.884 393.092C233.898 393.086 233.913 393.081 233.927 393.075C233.941 393.068 233.956 393.063 233.97 393.057C233.984 393.05 233.999 393.046 234.013 393.04C234.028 393.034 234.042 393.029 234.057 393.023C234.071 393.017 234.087 393.012 234.101 393.006C234.115 392.999 234.13 392.995 234.145 392.99C234.159 392.985 234.174 392.979 234.188 392.974C234.203 392.97 234.218 392.963 234.233 392.958C234.248 392.954 234.262 392.947 234.277 392.942C234.291 392.938 234.306 392.931 234.32 392.927C234.335 392.922 234.349 392.916 234.364 392.911C234.38 392.906 234.394 392.9 234.409 392.896C234.424 392.891 234.438 392.885 234.453 392.88C234.467 392.875 234.483 392.87 234.498 392.866C234.512 392.861 234.527 392.857 234.542 392.853C234.557 392.848 234.571 392.843 234.586 392.839C234.596 392.837 234.604 392.834 234.613 392.831C234.627 392.826 234.642 392.822 234.657 392.818C234.672 392.813 234.686 392.808 234.701 392.804C234.717 392.799 234.731 392.794 234.746 392.79C234.761 392.785 234.776 392.781 234.791 392.777C234.806 392.772 234.822 392.77 234.837 392.765C234.851 392.761 234.867 392.758 234.881 392.753C234.896 392.749 234.912 392.746 234.927 392.742C234.941 392.737 234.957 392.735 234.972 392.73C234.987 392.725 235.002 392.723 235.017 392.719C235.032 392.714 235.048 392.712 235.063 392.707C235.078 392.702 235.093 392.701 235.108 392.696C235.123 392.692 235.139 392.689 235.154 392.685C235.169 392.683 235.184 392.678 235.199 392.675C235.215 392.673 235.229 392.668 235.245 392.665C235.26 392.662 235.275 392.658 235.29 392.655C235.306 392.653 235.32 392.649 235.336 392.646C235.352 392.643 235.367 392.639 235.382 392.636C235.398 392.634 235.413 392.63 235.428 392.627C235.443 392.624 235.458 392.621 235.474 392.618C235.489 392.615 235.504 392.612 235.519 392.609C235.535 392.607 235.55 392.604 235.565 392.6C235.581 392.598 235.596 392.595 235.611 392.593C235.627 392.589 235.642 392.587 235.658 392.585C235.672 392.582 235.688 392.579 235.703 392.577C235.718 392.574 235.734 392.572 235.749 392.57C235.765 392.567 235.78 392.565 235.796 392.562C235.811 392.559 235.827 392.558 235.842 392.555C235.857 392.553 235.872 392.551 235.888 392.549C235.903 392.547 235.919 392.545 235.934 392.542C235.95 392.541 235.965 392.539 235.98 392.536C235.996 392.534 236.011 392.532 236.027 392.53C236.043 392.529 236.057 392.526 236.073 392.525C236.089 392.523 236.104 392.521 236.12 392.519C236.135 392.517 236.151 392.516 236.166 392.514C236.181 392.513 236.197 392.511 236.212 392.509C236.227 392.508 236.243 392.506 236.259 392.505C236.275 392.503 236.29 392.502 236.305 392.501C236.321 392.499 236.336 392.498 236.352 392.497C236.368 392.496 236.383 392.494 236.399 392.493C236.414 392.491 236.43 392.491 236.445 392.49C236.461 392.488 236.476 392.487 236.492 392.486C236.507 392.485 236.523 392.484 236.538 392.483C236.554 392.482 236.569 392.481 236.585 392.48C236.6 392.479 236.616 392.478 236.632 392.478C236.647 392.477 236.663 392.476 236.678 392.475C236.694 392.474 236.709 392.474 236.725 392.474C236.741 392.473 236.756 392.472 236.771 392.472C236.787 392.471 236.803 392.471 236.818 392.471C236.834 392.47 236.849 392.469 236.865 392.469C236.881 392.469 236.896 392.469 236.912 392.469C236.928 392.469 236.943 392.469 236.959 392.468C236.974 392.468 236.99 392.467 237.005 392.467C237.02 392.467 237.036 392.467 237.052 392.467C237.067 392.468 237.083 392.467 237.098 392.467C237.114 392.467 237.13 392.468 237.145 392.468C237.161 392.468 237.176 392.468 237.192 392.468C237.207 392.469 237.224 392.469 237.238 392.469C237.254 392.47 237.27 392.47 237.286 392.47C237.301 392.471 237.317 392.471 237.332 392.472C237.348 392.473 237.364 392.473 237.379 392.474C237.394 392.474 237.409 392.475 237.425 392.476C237.441 392.477 237.457 392.477 237.472 392.478C237.488 392.479 237.503 392.479 237.519 392.481C237.534 392.481 237.55 392.482 237.565 392.483C237.581 392.484 237.596 392.485 237.612 392.486C237.628 392.487 237.643 392.488 237.658 392.489C237.674 392.49 237.69 392.492 237.705 392.493C237.72 392.494 237.736 392.495 237.751 392.497C237.767 392.498 237.783 392.499 237.798 392.501C237.814 392.502 237.829 392.504 237.845 392.505C237.86 392.507 237.876 392.508 237.891 392.51C237.906 392.511 237.922 392.513 237.938 392.514C237.953 392.516 237.969 392.517 237.984 392.52C237.999 392.521 238.015 392.523 238.031 392.525C238.046 392.527 238.062 392.528 238.077 392.531C238.092 392.533 238.108 392.535 238.123 392.536C238.139 392.539 238.154 392.541 238.169 392.542C238.184 392.545 238.201 392.547 238.216 392.549C238.231 392.551 238.246 392.553 238.262 392.556C238.277 392.558 238.292 392.56 238.308 392.562C238.323 392.565 238.339 392.567 238.354 392.57C238.369 392.572 238.385 392.574 238.4 392.577C238.416 392.58 238.431 392.582 238.446 392.585C238.462 392.588 238.477 392.59 238.493 392.593C238.507 392.595 238.523 392.598 238.539 392.601C238.554 392.604 238.569 392.607 238.585 392.61C238.6 392.612 238.615 392.615 238.63 392.618C238.646 392.621 238.661 392.624 238.676 392.627C238.691 392.63 238.706 392.633 238.722 392.636C238.737 392.639 238.752 392.642 238.768 392.645C238.783 392.649 238.798 392.652 238.813 392.655C238.828 392.659 238.844 392.662 238.859 392.666C238.874 392.669 238.889 392.672 238.905 392.676C238.919 392.679 238.935 392.683 238.95 392.686C238.965 392.69 238.981 392.694 238.995 392.697C239.01 392.701 239.025 392.705 239.041 392.708C239.056 392.711 239.071 392.715 239.086 392.719C239.101 392.723 239.116 392.727 239.131 392.731C239.146 392.735 239.161 392.739 239.177 392.742C239.192 392.746 239.207 392.751 239.222 392.755C239.237 392.759 239.252 392.763 239.267 392.767C239.282 392.771 239.297 392.775 239.312 392.78C239.327 392.783 239.342 392.788 239.357 392.792C239.372 392.797 239.386 392.801 239.402 392.805C239.417 392.81 239.432 392.814 239.446 392.819C239.462 392.823 239.476 392.827 239.491 392.832C239.506 392.837 239.521 392.841 239.536 392.846C239.55 392.851 239.566 392.855 239.581 392.859C239.595 392.865 239.61 392.87 239.624 392.874C239.64 392.879 239.654 392.884 239.669 392.889C239.684 392.894 239.699 392.899 239.713 392.903C239.728 392.909 239.743 392.914 239.757 392.919C239.772 392.924 239.787 392.929 239.801 392.934C239.817 392.939 239.832 392.944 239.845 392.949C239.861 392.955 239.875 392.96 239.89 392.965C239.904 392.971 239.919 392.976 239.934 392.981C239.948 392.987 239.963 392.992 239.977 392.998C239.992 393.003 240.007 393.009 240.021 393.014C240.036 393.02 240.05 393.025 240.065 393.031C240.079 393.036 240.094 393.042 240.108 393.048C240.123 393.053 240.137 393.059 240.152 393.065C240.166 393.071 240.18 393.077 240.195 393.082C240.209 393.089 240.224 393.094 240.238 393.101C240.252 393.106 240.267 393.112 240.282 393.118C240.296 393.124 240.31 393.13 240.324 393.136C240.338 393.143 240.352 393.148 240.367 393.155C240.382 393.161 240.396 393.167 240.41 393.173C240.424 393.179 240.439 393.187 240.453 393.192C240.466 393.199 240.481 393.205 240.496 393.212C240.509 393.218 240.524 393.225 240.538 393.231C240.552 393.237 240.566 393.244 240.58 393.251C240.594 393.257 240.608 393.264 240.622 393.271C240.637 393.277 240.65 393.284 240.665 393.291C240.678 393.298 240.693 393.304 240.707 393.311C240.721 393.318 240.734 393.324 240.748 393.332C240.762 393.338 240.776 393.345 240.791 393.353C240.804 393.359 240.818 393.367 240.832 393.373C240.846 393.381 240.86 393.388 240.874 393.394C240.887 393.402 240.901 393.409 240.915 393.416C240.929 393.423 240.943 393.431 240.956 393.438C240.97 393.445 240.984 393.452 240.998 393.46C241.011 393.467 241.025 393.475 241.038 393.482C241.052 393.49 241.066 393.497 241.079 393.505C241.093 393.512 241.107 393.519 241.12 393.527C241.134 393.535 241.148 393.542 241.161 393.551C241.175 393.558 241.188 393.566 241.202 393.574C241.215 393.581 241.229 393.589 241.242 393.597C241.255 393.604 241.269 393.612 241.282 393.62C241.296 393.628 241.309 393.636 241.323 393.644C241.336 393.652 241.349 393.66 241.363 393.668C241.376 393.676 241.389 393.684 241.402 393.693C241.416 393.701 241.429 393.708 241.442 393.717C241.455 393.725 241.469 393.733 241.482 393.742C241.495 393.75 241.508 393.758 241.521 393.767C241.535 393.775 241.548 393.783 241.561 393.792C241.574 393.8 241.587 393.808 241.6 393.817C241.613 393.825 241.626 393.834 241.639 393.842C241.652 393.851 241.665 393.86 241.678 393.868C241.691 393.877 241.704 393.886 241.717 393.894C241.73 393.903 241.742 393.912 241.756 393.921C241.768 393.929 241.781 393.938 241.794 393.947C241.807 393.956 241.819 393.964 241.832 393.974C241.845 393.983 241.858 393.992 241.87 394.001C241.883 394.01 241.896 394.019 241.909 394.028C241.921 394.036 241.933 394.046 241.946 394.055C241.959 394.064 241.972 394.073 241.984 394.083C241.997 394.091 242.01 394.101 242.022 394.11C242.035 394.12 242.046 394.128 242.06 394.138C242.072 394.148 242.084 394.157 242.097 394.166C242.109 394.176 242.121 394.185 242.134 394.194C242.146 394.204 242.158 394.214 242.171 394.223C242.183 394.233 242.195 394.242 242.207 394.252C242.22 394.261 242.232 394.271 242.244 394.281C242.256 394.291 242.268 394.3 242.281 394.31C242.292 394.32 242.304 394.329 242.317 394.339C242.329 394.349 242.34 394.359 242.353 394.369C242.365 394.379 242.377 394.389 242.389 394.399C242.401 394.408 242.413 394.419 242.425 394.429C242.436 394.438 242.449 394.449 242.46 394.459C242.472 394.469 242.484 394.479 242.496 394.49C242.507 394.5 242.519 394.51 242.531 394.52C242.543 394.53 242.554 394.54 242.566 394.551C242.578 394.561 242.589 394.571 242.601 394.582C242.613 394.592 242.624 394.602 242.636 394.613C242.648 394.624 242.659 394.634 242.67 394.644C242.682 394.655 242.694 394.665 242.705 394.676C242.716 394.687 242.728 394.697 242.739 394.707C242.751 394.718 242.762 394.729 242.773 394.739C242.784 394.75 242.796 394.761 242.807 394.771C242.819 394.782 242.83 394.793 242.841 394.804C242.852 394.814 242.863 394.826 242.874 394.836C242.886 394.847 242.897 394.858 242.908 394.869C242.919 394.88 242.93 394.891 242.941 394.902C242.952 394.913 242.963 394.924 242.974 394.935C242.984 394.946 242.995 394.957 243.007 394.968C243.018 394.98 243.029 394.991 243.039 395.002C243.05 395.013 243.061 395.024 243.072 395.036C243.083 395.046 243.093 395.058 243.104 395.069C243.115 395.08 243.125 395.092 243.136 395.103C243.147 395.114 243.157 395.126 243.168 395.137C243.178 395.149 243.189 395.16 243.2 395.171C243.21 395.183 243.22 395.194 243.231 395.206C243.242 395.218 243.252 395.229 243.262 395.241C243.272 395.252 243.283 395.264 243.293 395.275C243.304 395.288 243.314 395.299 243.325 395.31C243.334 395.323 243.344 395.334 243.355 395.346C243.365 395.357 243.375 395.37 243.385 395.381C243.395 395.393 243.406 395.405 243.416 395.417C243.425 395.428 243.436 395.441 243.446 395.453C243.456 395.465 243.466 395.477 243.475 395.489C243.486 395.501 243.496 395.512 243.506 395.525C243.515 395.536 243.525 395.548 243.534 395.561C243.545 395.573 243.554 395.585 243.564 395.597C243.574 395.609 243.584 395.621 243.593 395.634C243.603 395.646 243.612 395.658 243.622 395.67C243.632 395.683 243.642 395.695 243.651 395.707C243.66 395.72 243.67 395.732 243.679 395.745C243.689 395.757 243.698 395.769 243.707 395.781C243.716 395.794 243.726 395.806 243.735 395.818C243.745 395.831 243.754 395.844 243.763 395.857C243.772 395.869 243.782 395.881 243.791 395.894C243.799 395.907 243.809 395.919 243.819 395.931C243.827 395.944 243.836 395.957 243.845 395.97C243.854 395.983 243.863 395.995 243.872 396.008C243.881 396.021 243.891 396.034 243.899 396.046C243.908 396.059 243.917 396.072 243.925 396.084C243.935 396.097 243.943 396.11 243.952 396.123C243.96 396.136 243.97 396.149 243.978 396.162C243.987 396.174 243.996 396.188 244.004 396.201C244.013 396.213 244.021 396.226 244.03 396.24C244.038 396.253 244.047 396.265 244.055 396.279C244.064 396.292 244.072 396.305 244.081 396.318C244.089 396.331 244.097 396.344 244.105 396.357C244.114 396.371 244.122 396.384 244.13 396.397C244.138 396.41 244.147 396.424 244.155 396.437C244.163 396.45 244.171 396.463 244.179 396.476C244.187 396.49 244.195 396.503 244.204 396.516C244.212 396.529 244.22 396.543 244.227 396.556C244.235 396.57 244.243 396.583 244.251 396.597C244.259 396.611 244.267 396.624 244.275 396.637C244.283 396.651 244.29 396.664 244.298 396.678C244.306 396.691 244.313 396.705 244.321 396.719C244.328 396.732 244.336 396.746 244.343 396.759C244.351 396.773 244.359 396.786 244.366 396.8C244.374 396.813 244.381 396.827 244.389 396.841C244.396 396.855 244.403 396.868 244.41 396.882C244.417 396.896 244.425 396.909 244.432 396.924C244.439 396.937 244.447 396.951 244.454 396.965C244.461 396.979 244.469 396.992 244.475 397.007C244.483 397.021 244.49 397.034 244.496 397.048C244.504 397.062 244.51 397.076 244.518 397.09C244.524 397.104 244.531 397.117 244.538 397.132C244.545 397.146 244.552 397.16 244.559 397.174C244.565 397.188 244.572 397.201 244.579 397.215C244.586 397.229 244.592 397.244 244.599 397.258C244.606 397.272 244.612 397.286 244.619 397.3C244.625 397.314 244.631 397.329 244.638 397.343C244.645 397.357 244.651 397.37 244.657 397.386C244.664 397.4 244.67 397.413 244.676 397.428C244.683 397.442 244.689 397.456 244.695 397.47C244.701 397.485 244.707 397.499 244.714 397.513C244.72 397.527 244.726 397.542 244.732 397.556C244.738 397.57 244.744 397.585 244.75 397.599C244.756 397.614 244.762 397.629 244.768 397.642C244.774 397.657 244.78 397.671 244.786 397.686C244.792 397.7 244.797 397.715 244.803 397.729C244.809 397.744 244.814 397.758 244.82 397.773C244.826 397.787 244.831 397.802 244.837 397.816C244.843 397.831 244.848 397.845 244.854 397.859C244.859 397.875 244.864 397.889 244.87 397.904C244.875 397.918 244.881 397.933 244.886 397.947C244.891 397.962 244.897 397.976 244.902 397.991C244.907 398.006 244.912 398.02 244.918 398.035C244.923 398.05 244.928 398.065 244.933 398.079C244.938 398.094 244.944 398.109 244.948 398.123C244.953 398.138 244.959 398.153 244.963 398.168C244.968 398.183 244.973 398.197 244.978 398.212C244.983 398.227 244.987 398.242 244.993 398.256C244.997 398.272 245.002 398.286 245.007 398.301C245.011 398.316 245.016 398.331 245.021 398.345ZM186.23 428.134L179.658 406.62C177.224 407.333 175.742 408.996 174.849 410.922L179.821 427.201C181.638 428.3 183.8 428.864 186.23 428.134ZM174.141 411.138C174.141 411.138 162.186 405.792 151.779 413.547C151.779 413.547 159.346 412.249 162.859 413.821C169.028 416.582 151.779 413.547 141.64 430C159.242 437.981 171.852 425.825 168.278 431.562C166.242 434.829 159.242 437.981 159.242 437.981C172.206 438.597 179.133 427.483 179.133 427.483L174.141 411.138Z" fill="black"/>
<path d="M554.326 189.528L559.775 183.956L552.102 185.319C544.303 186.703 536.452 187.536 528.57 187.921L528.568 187.921C519.574 188.366 510.516 188.204 501.527 187.513L501.526 187.513C483.502 186.137 465.629 182.829 448.333 177.604C439.691 174.993 431.188 171.87 422.938 168.239C415.689 165.025 408.65 161.434 401.865 157.316L395.183 153.259L398.271 160.44C410.438 188.729 436.023 210.661 468.565 216.696C501.084 222.764 532.819 211.522 554.326 189.528ZM362.539 114.259L362.542 114.265C370.059 131.243 386.358 144.547 401.379 153.66C420.028 164.988 441.124 172.802 462.159 177.887C495.947 186.09 534.064 188.532 568.09 178.783C580.968 175.101 594.478 169.147 604.323 159.236C607.822 155.742 610.921 151.569 613.144 146.812C617.538 137.444 617.779 126.791 614.21 117.183C609.954 105.728 601.543 96.6811 592.374 89.5136C588.502 86.4786 584.592 83.8746 580.768 81.5594L574.185 77.5746L577.168 84.6672C579.464 90.1247 581.252 95.7887 582.551 101.629L582.552 101.634C582.801 102.833 583.044 103.999 583.259 105.167L583.388 105.867L583.866 106.393C584.754 107.373 585.627 108.39 586.479 109.419C591.693 115.896 596.08 123.622 594.831 131.183L594.83 131.189C594.003 136.272 590.477 140.843 585.934 144.136C576.108 151.257 563.066 154.445 550.763 156.302C515.958 161.549 478.771 156.042 445.434 144.808L445.431 144.807C441.71 143.559 438.025 142.155 434.359 140.699C416.486 133.511 397.482 123.794 386.405 108.379C380.883 100.695 379.269 91.9814 384.616 84.6203L384.62 84.6148C388.342 79.4617 394.639 75.2349 400.655 72.2466L401.302 71.9248L401.678 71.307C405.351 65.2695 409.705 59.6286 414.674 54.4562L420.07 48.8389L412.413 50.2666L412.4 50.269C411.147 50.5025 409.864 50.7418 408.555 51.0159C396.313 53.5635 383.511 57.9966 373.549 66.516C366.198 72.7905 360.48 81.5173 358.993 91.3375L358.993 91.3375L358.992 91.3441C357.822 99.2052 359.43 107.183 362.539 114.259ZM406.958 69.7095L406.952 69.7178L406.946 69.7262C403.203 75.2346 400.021 81.1416 397.486 87.3113C397.273 87.8286 397.045 88.3709 396.808 88.9344C395.469 92.1206 393.845 95.9827 392.988 99.8235C391.972 104.372 391.89 109.466 395.025 113.778C398.207 118.166 402.8 121.189 406.902 123.679L406.903 123.68C436.269 141.482 470.288 150.39 504.23 153.708L504.231 153.708C525.149 155.743 546.749 155.763 567.281 150.098L567.285 150.097C570.99 149.068 575.994 147.396 578.558 143.091C579.869 140.892 580.28 138.437 580.564 136.454L580.565 136.452C585.23 103.705 571.49 68.9903 545.685 48.3327C519.88 27.6755 482.995 21.8698 452.093 33.6199C435.732 39.8264 421.401 50.821 410.743 64.5537C409.393 66.2567 408.151 67.9846 406.958 69.7095ZM591.46 259.599C606.749 256.054 616.268 240.783 612.723 225.49C609.178 210.198 593.911 200.672 578.621 204.216C563.332 207.76 553.813 223.032 557.358 238.325C560.903 253.617 576.171 263.143 591.46 259.599ZM635.952 199.893C645.125 197.767 650.834 188.605 648.708 179.432C646.581 170.259 637.423 164.544 628.251 166.67C619.079 168.797 613.369 177.958 615.495 187.131C617.622 196.305 626.78 202.019 635.952 199.893Z" fill="black" stroke="white" stroke-width="5"/>
</svg>
