<svg width="130" height="40" viewBox="0 0 130 40" fill="none" xmlns="http://www.w3.org/2000/svg">
<path d="M1.46042 0.265738L1.97914 0.0126537L14.9031 0V40H2.24289L1.71538 39.7975C1.056 39.5444 0.379027 38.9033 0.15044 38.3043C0.00977156 37.9163 0.000979821 36.8449 0.000980595 19.9557C0.000981512 -0.0210904 -0.0517697 1.60709 0.616408 0.881577C0.801036 0.679109 1.17909 0.400716 1.46042 0.265738Z" fill="white"/>
<rect width="87" height="40" transform="translate(14.9031)" fill="white"/>
<path d="M32.2146 17.6719C32.1052 17.2917 31.9516 16.9557 31.7537 16.6641C31.5557 16.3672 31.3136 16.1172 31.0271 15.9141C30.7458 15.7057 30.4229 15.5469 30.0583 15.4375C29.699 15.3281 29.3005 15.2734 28.863 15.2734C28.0453 15.2734 27.3266 15.4766 26.7068 15.8828C26.0922 16.2891 25.613 16.8802 25.2693 17.6562C24.9255 18.4271 24.7537 19.3698 24.7537 20.4844C24.7537 21.599 24.9229 22.5469 25.2615 23.3281C25.6 24.1094 26.0792 24.7057 26.699 25.1172C27.3188 25.5234 28.0505 25.7266 28.8943 25.7266C29.6599 25.7266 30.3136 25.5911 30.8552 25.3203C31.4021 25.0443 31.8188 24.6562 32.1052 24.1562C32.3969 23.6562 32.5427 23.0651 32.5427 22.3828L33.2302 22.4844H29.1052V19.9375H35.8005V21.9531C35.8005 23.3594 35.5037 24.5677 34.9099 25.5781C34.3162 26.5833 33.4985 27.3594 32.4568 27.9062C31.4151 28.4479 30.2224 28.7187 28.8787 28.7187C27.3787 28.7187 26.061 28.388 24.9255 27.7266C23.7901 27.0599 22.9047 26.1146 22.2693 24.8906C21.6391 23.6615 21.324 22.2031 21.324 20.5156C21.324 19.2187 21.5115 18.0625 21.8865 17.0469C22.2667 16.026 22.7979 15.1615 23.4802 14.4531C24.1625 13.7448 24.9568 13.2057 25.863 12.8359C26.7693 12.4661 27.7511 12.2812 28.8083 12.2812C29.7146 12.2812 30.5583 12.4141 31.3396 12.6797C32.1208 12.9401 32.8136 13.3099 33.4177 13.7891C34.0271 14.2682 34.5245 14.8385 34.9099 15.5C35.2953 16.1562 35.5427 16.8802 35.6521 17.6719H32.2146ZM39.031 28.5V16.5H42.3591V28.5H39.031ZM40.7029 14.9531C40.2081 14.9531 39.7836 14.7891 39.4294 14.4609C39.0805 14.1276 38.906 13.7292 38.906 13.2656C38.906 12.8073 39.0805 12.4141 39.4294 12.0859C39.7836 11.7526 40.2081 11.5859 40.7029 11.5859C41.1977 11.5859 41.6195 11.7526 41.9685 12.0859C42.3227 12.4141 42.4998 12.8073 42.4998 13.2656C42.4998 13.7292 42.3227 14.1276 41.9685 14.4609C41.6195 14.7891 41.1977 14.9531 40.7029 14.9531ZM51.408 16.5V19H44.1814V16.5H51.408ZM45.822 13.625H49.1501V24.8125C49.1501 25.1198 49.197 25.3594 49.2908 25.5312C49.3845 25.6979 49.5147 25.8151 49.6814 25.8828C49.8533 25.9505 50.0512 25.9844 50.2751 25.9844C50.4314 25.9844 50.5876 25.9714 50.7439 25.9453C50.9001 25.9141 51.0199 25.8906 51.1033 25.875L51.6267 28.3516C51.46 28.4036 51.2257 28.4635 50.9236 28.5313C50.6215 28.6042 50.2543 28.6484 49.822 28.6641C49.0199 28.6953 48.3168 28.5885 47.7126 28.3437C47.1137 28.099 46.6475 27.7187 46.3142 27.2031C45.9809 26.6875 45.8168 26.0365 45.822 25.25V13.625ZM53.8962 28.5V12.5H57.2791V19.1016H64.1462V12.5H67.5212V28.5H64.1462V21.8906H57.2791V28.5H53.8962ZM77.9431 23.3906V16.5H81.2712V28.5H78.0759V26.3203H77.9509C77.6801 27.0234 77.2296 27.5885 76.5994 28.0156C75.9744 28.4427 75.2113 28.6563 74.3103 28.6563C73.5082 28.6563 72.8025 28.474 72.1931 28.1094C71.5837 27.7448 71.1072 27.2266 70.7634 26.5547C70.4249 25.8828 70.253 25.0781 70.2478 24.1406V16.5H73.5759V23.5469C73.5811 24.2552 73.7712 24.8151 74.1462 25.2266C74.5212 25.638 75.0238 25.8437 75.6541 25.8437C76.0551 25.8437 76.4301 25.7526 76.7791 25.5703C77.128 25.3828 77.4093 25.1068 77.6228 24.7422C77.8416 24.3776 77.9483 23.9271 77.9431 23.3906ZM83.9958 28.5V12.5H87.324V18.5156H87.4255C87.5714 18.1927 87.7823 17.8646 88.0583 17.5312C88.3396 17.1927 88.7042 16.9115 89.1521 16.6875C89.6052 16.4583 90.1677 16.3438 90.8396 16.3438C91.7146 16.3438 92.5219 16.5729 93.2615 17.0313C94.0011 17.4844 94.5922 18.1693 95.0349 19.0859C95.4776 19.9974 95.699 21.1406 95.699 22.5156C95.699 23.8542 95.4828 24.9844 95.0505 25.9062C94.6235 26.8229 94.0401 27.5182 93.3005 27.9922C92.5662 28.4609 91.7432 28.6953 90.8318 28.6953C90.186 28.6953 89.6365 28.5885 89.1833 28.375C88.7354 28.1615 88.3682 27.8932 88.0818 27.5703C87.7953 27.2422 87.5766 26.9115 87.4255 26.5781H87.2771V28.5H83.9958ZM87.2537 22.5C87.2537 23.2135 87.3526 23.8359 87.5505 24.3672C87.7485 24.8984 88.0349 25.3125 88.4099 25.6094C88.7849 25.901 89.2406 26.0469 89.7771 26.0469C90.3188 26.0469 90.7771 25.8984 91.1521 25.6016C91.5271 25.2995 91.811 24.8828 92.0037 24.3516C92.2016 23.8151 92.3005 23.1979 92.3005 22.5C92.3005 21.8073 92.2042 21.1979 92.0115 20.6719C91.8188 20.1458 91.5349 19.7344 91.1599 19.4375C90.7849 19.1406 90.324 18.9922 89.7771 18.9922C89.2354 18.9922 88.7771 19.1354 88.4021 19.4219C88.0323 19.7083 87.7485 20.1146 87.5505 20.6406C87.3526 21.1667 87.2537 21.7865 87.2537 22.5Z" fill="black"/>
<path fill-rule="evenodd" clip-rule="evenodd" d="M129.795 10.3678C129.592 9.75223 128.959 9.25471 127.166 8.28496C126.511 7.93521 125.508 7.39377 124.601 6.90379C124.217 6.69675 123.851 6.49891 123.535 6.32859C122.948 6.00743 122.28 5.64517 121.707 5.33398C121.241 5.08137 120.838 4.86241 120.59 4.7264C120.036 4.43125 119.042 3.89157 118.392 3.52896C114.822 1.56417 112.273 0.214949 111.947 0.105325C111.732 0.0366424 109.962 0.00680769 101.903 0V40H111.666L112.079 39.8145C112.299 39.7217 113.741 38.9544 115.288 38.1195C115.819 37.8315 116.501 37.4631 117.243 37.0619C118.652 36.3003 120.281 35.4203 121.513 34.7465C128.555 30.9396 129.3 30.5547 129.595 29.9501C129.645 29.8489 129.681 29.7416 129.733 29.611C129.909 29.1641 129.909 28.987 129.9 19.9051C129.891 13.5638 129.865 10.5618 129.795 10.3678ZM117.53 23.0741C118.559 22.5871 119.201 21.8434 119.543 20.7367C120.185 18.656 118.752 16.4071 116.554 16.0441C113.969 15.628 111.719 18.231 112.492 20.7367C112.835 21.8434 113.477 22.5871 114.506 23.0741C115.051 23.3397 115.165 23.3574 116.018 23.3574C116.871 23.3574 116.985 23.3397 117.53 23.0741Z" fill="white"/>
</svg>
