<svg width="117" height="40" viewBox="0 0 117 40" fill="none" xmlns="http://www.w3.org/2000/svg">
<path d="M1.46042 0.265738L1.97914 0.0126537L14.9031 0V40H2.24289L1.71538 39.7975C1.056 39.5444 0.379027 38.9033 0.15044 38.3043C0.00977156 37.9163 0.000979821 36.8449 0.000980595 19.9557C0.000981512 -0.0210904 -0.0517697 1.60709 0.616408 0.881577C0.801036 0.679109 1.17909 0.400716 1.46042 0.265738Z" fill="white"/>
<rect width="74" height="40" transform="translate(14.9031)" fill="white"/>
<path d="M21.4324 28.5V12.5H24.8152V19.1016H31.6824V12.5H35.0574V28.5H31.6824V21.8906H24.8152V28.5H21.4324ZM37.2371 15.2891V12.5H50.3777V15.2891H45.4792V28.5H42.1355V15.2891H37.2371ZM52.5417 12.5H56.7136L61.1199 23.25H61.3074L65.7136 12.5H69.8855V28.5H66.6042V18.0859H66.4714L62.3308 28.4219H60.0964L55.9558 18.0469H55.823V28.5H52.5417V12.5ZM72.6726 28.5V12.5H76.0554V25.7109H82.9148V28.5H72.6726Z" fill="black"/>
<path fill-rule="evenodd" clip-rule="evenodd" d="M116.795 10.3678C116.592 9.75223 115.959 9.25471 114.166 8.28496C113.511 7.93521 112.508 7.39377 111.601 6.90379C111.217 6.69675 110.851 6.49891 110.535 6.32859C109.948 6.00743 109.28 5.64517 108.707 5.33398C108.241 5.08137 107.838 4.86241 107.59 4.7264C107.036 4.43125 106.042 3.89157 105.392 3.52896C101.822 1.56417 99.2726 0.214949 98.9473 0.105325C98.7325 0.0366424 96.9623 0.00680769 88.9031 0V40H98.666L99.0792 39.8145C99.299 39.7217 100.741 38.9544 102.288 38.1195C102.819 37.8315 103.501 37.4631 104.243 37.0619C105.652 36.3003 107.281 35.4203 108.513 34.7465C115.555 30.9396 116.3 30.5547 116.595 29.9501C116.645 29.8489 116.681 29.7416 116.733 29.611C116.909 29.1641 116.909 28.987 116.9 19.9051C116.891 13.5638 116.865 10.5618 116.795 10.3678ZM104.53 23.0741C105.559 22.5871 106.201 21.8434 106.543 20.7367C107.185 18.656 105.752 16.4071 103.554 16.0441C100.969 15.628 98.7187 18.231 99.4924 20.7367C99.8353 21.8434 100.477 22.5871 101.506 23.0741C102.051 23.3397 102.165 23.3574 103.018 23.3574C103.871 23.3574 103.985 23.3397 104.53 23.0741Z" fill="white"/>
</svg>
