<svg width="147" height="40" viewBox="0 0 147 40" fill="none" xmlns="http://www.w3.org/2000/svg">
<path d="M1.46042 0.265738L1.97914 0.0126537L14.9031 0V40H2.24289L1.71538 39.7975C1.056 39.5445 0.379027 38.9033 0.15044 38.3043C0.00977156 37.9163 0.000979821 36.8449 0.000980595 19.9557C0.000981512 -0.0210904 -0.0517697 1.60709 0.616408 0.881577C0.801036 0.679109 1.17909 0.400716 1.46042 0.265738Z" fill="white"/>
<rect width="104" height="40" transform="translate(14.9031)" fill="white"/>
<path d="M21.4578 28.5V12.5H27.7703C28.9786 12.5 30.0098 12.7161 30.864 13.1484C31.7234 13.5755 32.377 14.1823 32.825 14.9688C33.2781 15.75 33.5046 16.6693 33.5046 17.7266C33.5046 18.7891 33.2755 19.7031 32.8171 20.4687C32.3588 21.2292 31.6947 21.8125 30.825 22.2187C29.9604 22.625 28.9135 22.8281 27.6843 22.8281H23.4578V20.1094H27.1375C27.7833 20.1094 28.3197 20.0208 28.7468 19.8438C29.1739 19.6667 29.4916 19.401 29.7 19.0469C29.9135 18.6927 30.0203 18.2526 30.0203 17.7266C30.0203 17.1953 29.9135 16.7474 29.7 16.3828C29.4916 16.0182 29.1713 15.7422 28.739 15.5547C28.3119 15.362 27.7729 15.2656 27.1218 15.2656H24.8406V28.5H21.4578ZM30.0984 21.2188L34.075 28.5H30.3406L26.45 21.2188H30.0984ZM41.1082 28.7344C39.8738 28.7344 38.8113 28.4844 37.9207 27.9844C37.0352 27.4792 36.3529 26.7656 35.8738 25.8437C35.3946 24.9167 35.155 23.8203 35.155 22.5547C35.155 21.3203 35.3946 20.237 35.8738 19.3047C36.3529 18.3724 37.0274 17.6458 37.8972 17.125C38.7722 16.6042 39.7983 16.3438 40.9753 16.3438C41.767 16.3438 42.504 16.4714 43.1863 16.7266C43.8738 16.9766 44.4727 17.3542 44.9832 17.8594C45.4988 18.3646 45.8998 19 46.1863 19.7656C46.4727 20.526 46.616 21.4167 46.616 22.4375V23.3516H36.4832V21.2891H43.4832C43.4832 20.8099 43.379 20.3854 43.1707 20.0156C42.9623 19.6458 42.6733 19.3568 42.3035 19.1484C41.9389 18.9349 41.5144 18.8281 41.03 18.8281C40.5248 18.8281 40.0769 18.9453 39.6863 19.1797C39.3009 19.4089 38.9988 19.7187 38.78 20.1094C38.5613 20.4948 38.4493 20.9245 38.4441 21.3984V23.3594C38.4441 23.9531 38.5535 24.4661 38.7722 24.8984C38.9962 25.3307 39.3113 25.6641 39.7175 25.8984C40.1238 26.1328 40.6056 26.25 41.1628 26.25C41.5326 26.25 41.8712 26.1979 42.1785 26.0938C42.4858 25.9896 42.7488 25.8333 42.9675 25.625C43.1863 25.4167 43.3529 25.1615 43.4675 24.8594L46.5457 25.0625C46.3894 25.8021 46.0691 26.4479 45.5847 27C45.1056 27.5469 44.4858 27.974 43.7253 28.2813C42.9701 28.5833 42.0977 28.7344 41.1082 28.7344ZM52.2097 28.7266C51.4441 28.7266 50.7618 28.5938 50.1628 28.3281C49.5639 28.0573 49.0899 27.6589 48.741 27.1328C48.3972 26.6016 48.2253 25.9401 48.2253 25.1484C48.2253 24.4818 48.3477 23.9219 48.5925 23.4687C48.8373 23.0156 49.1707 22.651 49.5925 22.375C50.0144 22.099 50.4936 21.8906 51.03 21.75C51.5717 21.6094 52.1394 21.5104 52.7332 21.4531C53.4311 21.3802 53.9936 21.3125 54.4207 21.25C54.8477 21.1823 55.1576 21.0833 55.3503 20.9531C55.5431 20.8229 55.6394 20.6302 55.6394 20.375V20.3281C55.6394 19.8333 55.4832 19.4505 55.1707 19.1797C54.8634 18.9089 54.4259 18.7734 53.8582 18.7734C53.2592 18.7734 52.7826 18.9062 52.4285 19.1719C52.0743 19.4323 51.8399 19.7604 51.7253 20.1562L48.6472 19.9062C48.8035 19.1771 49.1108 18.5469 49.5691 18.0156C50.0274 17.4792 50.6186 17.0677 51.3425 16.7812C52.0717 16.4896 52.9154 16.3438 53.8738 16.3438C54.5404 16.3438 55.1785 16.4219 55.7878 16.5781C56.4024 16.7344 56.9467 16.9766 57.4207 17.3047C57.8998 17.6328 58.2774 18.0547 58.5535 18.5703C58.8295 19.0807 58.9675 19.6927 58.9675 20.4062V28.5H55.8113V26.8359H55.7175C55.5248 27.2109 55.267 27.5417 54.9441 27.8281C54.6212 28.1094 54.2332 28.3307 53.78 28.4922C53.3269 28.6484 52.8035 28.7266 52.2097 28.7266ZM53.1628 26.4297C53.6524 26.4297 54.0847 26.3333 54.4597 26.1406C54.8347 25.9427 55.129 25.6771 55.3425 25.3438C55.5561 25.0104 55.6628 24.6328 55.6628 24.2109V22.9375C55.5587 23.0052 55.4154 23.0677 55.2332 23.125C55.0561 23.1771 54.8556 23.2266 54.6316 23.2734C54.4076 23.3151 54.1837 23.3542 53.9597 23.3906C53.7358 23.4219 53.5326 23.4505 53.3503 23.4766C52.9597 23.5339 52.6186 23.625 52.3269 23.75C52.0352 23.875 51.8087 24.0443 51.6472 24.2578C51.4858 24.4661 51.405 24.7266 51.405 25.0391C51.405 25.4922 51.5691 25.8385 51.8972 26.0781C52.2306 26.3125 52.6524 26.4297 53.1628 26.4297ZM66.9714 28.7344C65.7423 28.7344 64.685 28.474 63.7996 27.9531C62.9194 27.4271 62.2423 26.6979 61.7683 25.7656C61.2996 24.8333 61.0652 23.7604 61.0652 22.5469C61.0652 21.3177 61.3022 20.2396 61.7761 19.3125C62.2553 18.3802 62.935 17.6536 63.8152 17.1328C64.6954 16.6068 65.7423 16.3438 66.9558 16.3438C68.0027 16.3438 68.9194 16.5339 69.7058 16.9141C70.4923 17.2943 71.1147 17.8281 71.573 18.5156C72.0313 19.2031 72.2839 20.0104 72.3308 20.9375H69.1902C69.1016 20.3385 68.8673 19.8568 68.4871 19.4922C68.1121 19.1224 67.6199 18.9375 67.0105 18.9375C66.4949 18.9375 66.0444 19.0781 65.6589 19.3594C65.2787 19.6354 64.9819 20.0391 64.7683 20.5703C64.5548 21.1016 64.448 21.7448 64.448 22.5C64.448 23.2656 64.5522 23.9167 64.7605 24.4531C64.974 24.9896 65.2735 25.3984 65.6589 25.6797C66.0444 25.9609 66.4949 26.1016 67.0105 26.1016C67.3907 26.1016 67.7319 26.0234 68.0339 25.8672C68.3412 25.7109 68.5938 25.4844 68.7917 25.1875C68.9949 24.8854 69.1277 24.5234 69.1902 24.1016H72.3308C72.2787 25.0182 72.0287 25.8255 71.5808 26.5234C71.1381 27.2161 70.5261 27.7578 69.7449 28.1484C68.9636 28.5391 68.0391 28.7344 66.9714 28.7344ZM80.8445 16.5V19H73.6179V16.5H80.8445ZM75.2585 13.625H78.5867V24.8125C78.5867 25.1198 78.6335 25.3594 78.7273 25.5312C78.821 25.6979 78.9513 25.8151 79.1179 25.8828C79.2898 25.9505 79.4877 25.9844 79.7117 25.9844C79.8679 25.9844 80.0242 25.9714 80.1804 25.9453C80.3367 25.9141 80.4565 25.8906 80.5398 25.875L81.0632 28.3516C80.8966 28.4036 80.6622 28.4635 80.3601 28.5313C80.058 28.6042 79.6908 28.6484 79.2585 28.6641C78.4565 28.6953 77.7533 28.5885 77.1492 28.3437C76.5502 28.099 76.0841 27.7187 75.7507 27.2031C75.4174 26.6875 75.2533 26.0365 75.2585 25.25V13.625ZM94.573 12.5H97.9167V23.6562C97.9167 24.6875 97.685 25.5833 97.2214 26.3437C96.7631 27.1042 96.1251 27.6901 95.3074 28.1016C94.4897 28.513 93.5391 28.7187 92.4558 28.7187C91.4923 28.7187 90.6173 28.5495 89.8308 28.2109C89.0496 27.8672 88.4298 27.3464 87.9714 26.6484C87.5131 25.9453 87.2865 25.0625 87.2917 24H90.6589C90.6694 24.4219 90.7553 24.7839 90.9167 25.0859C91.0834 25.3828 91.31 25.612 91.5964 25.7734C91.8881 25.9297 92.2319 26.0078 92.6277 26.0078C93.0444 26.0078 93.3959 25.9193 93.6824 25.7422C93.974 25.5599 94.1954 25.2943 94.3464 24.9453C94.4975 24.5964 94.573 24.1667 94.573 23.6562V12.5ZM109.393 17.1016C109.331 16.4714 109.063 15.9818 108.589 15.6328C108.115 15.2839 107.471 15.1094 106.659 15.1094C106.107 15.1094 105.641 15.1875 105.26 15.3437C104.88 15.4948 104.589 15.7057 104.385 15.9766C104.188 16.2474 104.089 16.5547 104.089 16.8984C104.078 17.1849 104.138 17.4349 104.268 17.6484C104.404 17.862 104.589 18.0469 104.823 18.2031C105.057 18.3542 105.328 18.487 105.635 18.6016C105.943 18.7109 106.271 18.8047 106.62 18.8828L108.057 19.2266C108.755 19.3828 109.396 19.5911 109.979 19.8516C110.563 20.112 111.068 20.4323 111.495 20.8125C111.922 21.1927 112.253 21.6406 112.487 22.1562C112.727 22.6719 112.849 23.263 112.854 23.9297C112.849 24.9089 112.599 25.7578 112.104 26.4766C111.615 27.1901 110.906 27.7448 109.979 28.1406C109.057 28.5312 107.945 28.7266 106.643 28.7266C105.352 28.7266 104.227 28.5286 103.268 28.1328C102.315 27.737 101.57 27.151 101.034 26.375C100.503 25.5937 100.224 24.6276 100.198 23.4766H103.471C103.508 24.013 103.662 24.4609 103.932 24.8203C104.208 25.1745 104.576 25.4427 105.034 25.625C105.497 25.8021 106.021 25.8906 106.604 25.8906C107.177 25.8906 107.675 25.8073 108.096 25.6406C108.524 25.474 108.854 25.2422 109.089 24.9453C109.323 24.6484 109.44 24.3073 109.44 23.9219C109.44 23.5625 109.333 23.2604 109.12 23.0156C108.912 22.7708 108.604 22.5625 108.198 22.3906C107.797 22.2187 107.305 22.0625 106.721 21.9219L104.979 21.4844C103.63 21.1562 102.565 20.6432 101.784 19.9453C101.003 19.2474 100.615 18.3073 100.62 17.125C100.615 16.1562 100.872 15.3099 101.393 14.5859C101.919 13.862 102.641 13.2969 103.557 12.8906C104.474 12.4844 105.516 12.2812 106.682 12.2812C107.87 12.2812 108.906 12.4844 109.792 12.8906C110.682 13.2969 111.375 13.862 111.87 14.5859C112.365 15.3099 112.62 16.1484 112.635 17.1016H109.393Z" fill="black"/>
<path fill-rule="evenodd" clip-rule="evenodd" d="M146.795 10.3678C146.592 9.75223 145.959 9.25471 144.166 8.28496C143.511 7.93521 142.508 7.39377 141.601 6.90379C141.217 6.69675 140.851 6.49891 140.535 6.32859C139.948 6.00743 139.28 5.64517 138.707 5.33398C138.241 5.08137 137.838 4.86241 137.59 4.7264C137.036 4.43125 136.042 3.89157 135.392 3.52896C131.822 1.56417 129.273 0.214949 128.947 0.105325C128.732 0.0366424 126.962 0.00680769 118.903 0V40H128.666L129.079 39.8145C129.299 39.7217 130.741 38.9544 132.288 38.1195C132.819 37.8315 133.501 37.4631 134.243 37.0619C135.652 36.3003 137.281 35.4203 138.513 34.7465C145.555 30.9396 146.3 30.5547 146.595 29.9501C146.645 29.8489 146.681 29.7416 146.733 29.611C146.909 29.1641 146.909 28.987 146.9 19.9051C146.891 13.5638 146.865 10.5618 146.795 10.3678ZM134.53 23.0741C135.559 22.5871 136.201 21.8434 136.543 20.7367C137.185 18.656 135.752 16.4071 133.554 16.0441C130.969 15.628 128.719 18.231 129.492 20.7367C129.835 21.8434 130.477 22.5871 131.506 23.0741C132.051 23.3397 132.165 23.3574 133.018 23.3574C133.871 23.3574 133.985 23.3397 134.53 23.0741Z" fill="white"/>
</svg>
