<svg width="97" height="58" viewBox="0 0 97 58" fill="none" xmlns="http://www.w3.org/2000/svg">
<path fill-rule="evenodd" clip-rule="evenodd" d="M48.125 0C35.2917 0 27.2708 6.41667 24.0625 19.25C28.875 12.8333 34.4896 10.4271 40.9063 12.0312C44.5673 12.9456 47.1839 15.6032 50.0803 18.5424C54.7983 23.3317 60.2596 28.875 72.1875 28.875C85.0208 28.875 93.0417 22.4583 96.25 9.625C91.4375 16.0417 85.8229 18.4479 79.4062 16.8437C75.7452 15.9294 73.1286 13.2718 70.2322 10.3326C65.5142 5.54329 60.0529 0 48.125 0ZM24.0625 28.875C11.2292 28.875 3.20833 35.2917 0 48.125C4.8125 41.7083 10.4271 39.3021 16.8437 40.9062C20.5048 41.8224 23.1214 44.4782 26.0178 47.4174C30.7358 52.2067 36.1971 57.75 48.125 57.75C60.9583 57.75 68.9792 51.3333 72.1875 38.5C67.375 44.9167 61.7604 47.3229 55.3437 45.7187C51.6827 44.8044 49.0661 42.1468 46.1697 39.2076C41.4517 34.4183 35.9904 28.875 24.0625 28.875Z" fill="white"/>
</svg>
